<svg xmlns="http://www.w3.org/2000/svg" width="24" height="18" stroke="currentColor" stroke-linecap="round" stroke-linejoin="round" fill="currentColor" fill-rule="evenodd"><path d="M20.33 1.5075A20.035 20.035 0 0 0 15.3789 0c-.2135.3735-.462.8771-.6348 1.2753a18.815 18.815 0 0 0-5.4877 0C9.0657.8397 8.8518.4134 8.6143 0a19.999 19.999 0 0 0-4.9546 1.5111C.5264 6.0993-.3232 10.5741.1022 14.9841c1.8288 1.3374 3.8837 2.358 6.0727 3.015.492-.6564.9269-1.35 1.3008-2.0754a13.067 13.067 0 0 1-2.0486-.9666 9.515 9.515 0 0 0 .5021-.3852c3.9488 1.7897 8.2389 1.7897 12.1412 0 .1645.1332.3325.2624.5018.3852-.6493.3793-1.3369.7044-2.0521.9672.3732.7263.8086 1.4199 1.3007 2.0757 2.1911-.6561 4.2474-1.677 6.0768-3.0177.498-5.1107-.8508-9.544-3.5676-13.4748zM8.0133 12.2715c-1.1856 0-2.1576-1.0723-2.1576-2.3778s.952-2.3799 2.1576-2.3799 2.1784 1.0713 2.1575 2.3799c.0015 1.3055-.9517 2.3778-2.1575 2.3778zm7.9729 0c-1.1857 0-2.1578-1.0723-2.1578-2.3778s.9519-2.3799 2.1578-2.3799 2.178 1.0713 2.1575 2.3799c0 1.3055-.9516 2.3778-2.1575 2.3778z" stroke="none" fill="currentColor" fill-rule="nonzero"/></svg>