<svg width="24" height="24" viewBox="0 0 24 24" fill="none" xmlns="http://www.w3.org/2000/svg">
<path fill-rule="evenodd" clip-rule="evenodd" d="M12 24C18.6274 24 24 18.6274 24 12C24 5.37258 18.6274 0 12 0C5.37258 0 0 5.37258 0 12C0 18.6274 5.37258 24 12 24ZM17.3503 8.73934C17.9313 8.67222 18.4849 8.52333 19 8.30225C18.615 8.8589 18.1279 9.34788 17.5667 9.73985C17.7487 13.6455 14.7358 18 9.403 18C7.78133 18 6.27108 17.5404 5 16.7525C6.52367 16.9262 8.045 16.5173 9.2525 15.6019C7.99483 15.5794 6.93433 14.7768 6.56917 13.6737C7.0195 13.7571 7.46225 13.7323 7.8665 13.6263C6.48517 13.3584 5.53142 12.1548 5.56292 10.8684C5.94967 11.0765 6.393 11.2011 6.86317 11.2158C5.5845 10.389 5.22225 8.75626 5.97475 7.50815C7.39167 9.18827 9.508 10.2937 11.8944 10.4093C11.4756 8.67278 12.8382 7 14.6927 7C15.5187 7 16.2659 7.33726 16.7892 7.877C17.4437 7.75236 18.0585 7.52112 18.6132 7.20304C18.3992 7.85162 17.9436 8.39587 17.3503 8.73934Z" fill="#000"/>
</svg>
