<svg width="24" height="24" viewBox="0 0 24 24" fill="none" xmlns="http://www.w3.org/2000/svg">
  <path fill-rule="evenodd" clip-rule="evenodd"
    d="M12 24C18.6274 24 24 18.6274 24 12C24 5.37258 18.6274 0 12 0C5.37258 0 0 5.37258 0 12C0 18.6274 5.37258 24 12 24ZM6.45833 7.82609C7.2575 7.82609 7.905 7.19361 7.905 6.41304C7.905 5.63304 7.2575 5 6.45833 5C5.65917 5 5.01167 5.63304 5.01167 6.41304C5.01167 7.19361 5.65917 7.82609 6.45833 7.82609ZM5 8.95652H7.91667V18H5V8.95652ZM9.67483 8.95652H12.5728V10.1746C13.7955 7.98209 19 7.81987 19 12.2738V18H16.0903V13.2527C16.0903 10.3973 12.5734 10.6132 12.5734 13.2527V18H9.67483V8.95652Z"
    fill="#fff" />
</svg>