<svg width="24" height="24" viewBox="0 0 24 24" fill="none" xmlns="http://www.w3.org/2000/svg">
  <g clip-path="url(#clip0_1238_375550)">
    <path fill-rule="evenodd" clip-rule="evenodd"
      d="M12 24C18.6274 24 24 18.6274 24 12C24 5.37258 18.6274 0 12 0C5.37258 0 0 5.37258 0 12C0 18.6274 5.37258 24 12 24ZM17.6089 6L13.1416 11.0786H13.1414L18 17.9938H14.4267L11.1549 13.3371L7.05866 17.9938H6L10.6849 12.6682L6 6H9.57328L12.6714 10.4097L16.5503 6H17.6089ZM11.217 12.0629L11.6916 12.7269V12.7272L14.9248 17.2499H16.5508L12.5888 11.7074L12.1141 11.0434L9.06615 6.77941H7.44011L11.217 12.0629Z"
      fill="#fff" />
  </g>
  <defs>
    <clipPath id="clip0_1238_375550">
      <rect width="24" height="24" fill="black" />
    </clipPath>
  </defs>
</svg>
  