<?xml version="1.0" encoding="UTF-8" standalone="no"?>
<svg
   xmlns:dc="http://purl.org/dc/elements/1.1/"
   xmlns:cc="http://creativecommons.org/ns#"
   xmlns:rdf="http://www.w3.org/1999/02/22-rdf-syntax-ns#"
   xmlns:svg="http://www.w3.org/2000/svg"
   xmlns="http://www.w3.org/2000/svg"
   viewBox="0 0 752.20001 278.86667"
   height="278.86667"
   width="752.20001"
   xml:space="preserve"
   id="svg2"
   version="1.1"><metadata
     id="metadata8"><rdf:RDF><cc:Work
         rdf:about=""><dc:format>image/svg+xml</dc:format><dc:type
           rdf:resource="http://purl.org/dc/dcmitype/StillImage" /></cc:Work></rdf:RDF></metadata><defs
     id="defs6" /><g
     transform="matrix(1.3333333,0,0,-1.3333333,0,278.86667)"
     id="g10"><g
       transform="scale(0.1)"
       id="g12"><path
         id="path14"
         style="fill:#ffffff;fill-opacity:1;fill-rule:nonzero;stroke:none"
         d="m 5044.13,2091.54 c -329.34,0 -597.3,-267.95 -597.3,-597.31 V 1320 h 348.45 v 174.23 c 0,137.22 111.64,248.86 248.85,248.86 137.24,0 248.87,-111.64 248.87,-248.86 V 1320 h 348.46 v 174.23 c 0,329.36 -267.96,597.31 -597.33,597.31" /><path
         id="path16"
         style="fill:#ffffff;fill-opacity:1;fill-rule:nonzero;stroke:none"
         d="M 4795.28,597.301 V 771.52 H 4446.83 V 597.301 C 4446.83,267.961 4714.79,0 5044.13,0 5373.5,0 5641.46,267.961 5641.46,597.301 V 771.52 H 5293 V 597.301 c 0,-137.219 -111.63,-248.852 -248.87,-248.852 -137.21,0 -248.85,111.633 -248.85,248.852" /><path
         id="path18"
         style="fill:#ffffff;fill-opacity:1;fill-rule:nonzero;stroke:none"
         d="m 2082.57,2091.54 c -329.36,0 -597.31,-267.95 -597.31,-597.31 V 1320 h 348.46 v 174.23 c 0,137.22 111.63,248.86 248.85,248.86 137.22,0 248.86,-111.64 248.86,-248.86 V 1320 h 348.45 v 174.23 c 0,329.36 -267.95,597.31 -597.31,597.31" /><path
         id="path20"
         style="fill:#ffffff;fill-opacity:1;fill-rule:nonzero;stroke:none"
         d="M 1833.72,597.301 V 771.52 H 1485.26 V 597.301 C 1485.26,267.961 1753.21,0 2082.57,0 c 329.36,0 597.31,267.961 597.31,597.301 V 771.52 H 2331.43 V 597.301 c 0,-137.219 -111.64,-248.852 -248.86,-248.852 -137.22,0 -248.85,111.633 -248.85,248.852" /><path
         id="path22"
         style="fill:#ffffff;fill-opacity:1;fill-rule:nonzero;stroke:none"
         d="m 3740.82,771.52 c 45.75,-46.27 71.39,-108.032 71.39,-174.219 0,-137.219 -111.63,-248.852 -248.85,-248.852 -124.55,0 -228.02,91.961 -246.07,211.539 H 2967.21 C 2986.51,247.941 3246.53,0 3563.36,0 c 329.35,0 597.3,267.961 597.3,597.301 0,59.308 -8.71,117.808 -25.92,174.219 h -393.92" /><path
         id="path24"
         style="fill:#ffffff;fill-opacity:1;fill-rule:nonzero;stroke:none"
         d="m 3357.29,1320 h 402.15 l 401.22,401.22 v 370.32 H 2966.05 v -348.45 h 814.31 L 3357.29,1320" /><path
         id="path26"
         style="fill:#ffffff;fill-opacity:1;fill-rule:nonzero;stroke:none"
         d="m 601.785,2091.54 c -316.836,0 -576.8397,-247.94 -596.16,-559.99 h 350.098 c 18.062,119.58 121.523,211.54 246.062,211.54 137.219,0 248.852,-111.64 248.852,-248.86 0,-66.2 -25.637,-127.96 -71.383,-174.23 h 393.906 c 17.22,56.43 25.93,114.92 25.93,174.23 0,329.36 -267.945,597.31 -597.305,597.31" /><path
         id="path28"
         style="fill:#ffffff;fill-opacity:1;fill-rule:nonzero;stroke:none"
         d="M 807.867,771.52 H 405.703 L 4.47266,370.301 V 0 H 1199.09 V 348.449 H 384.781 L 807.867,771.52" /><path
         id="path30"
         style="fill:#ffffff;fill-opacity:1;fill-rule:nonzero;stroke:none"
         d="M 125.977,893.84 C 81.0117,893.84 35.625,909.531 0,941.352 l 38.5977,46.226 c 26.7187,-22.047 54.7109,-36.058 88.6483,-36.058 26.723,0 42.836,10.609 42.836,28 v 0.851 c 0,16.539 -10.176,25.019 -59.801,37.739 -59.8083,15.28 -98.406,31.82 -98.406,90.77 v 0.85 c 0,53.87 43.2656,89.5 103.914,89.5 43.27,0 80.172,-13.57 110.285,-37.75 l -33.929,-49.2 c -26.301,18.24 -52.172,29.27 -77.204,29.27 -25.023,0 -38.1676,-11.46 -38.1676,-25.88 v -0.84 c 0,-19.52 12.7227,-25.88 64.0466,-39.03 60.231,-15.69 94.16,-37.33 94.16,-89.07 v -0.851 c 0,-58.957 -44.957,-92.039 -109.003,-92.039" /><path
         id="path32"
         style="fill:#ffffff;fill-opacity:1;fill-rule:nonzero;stroke:none"
         d="m 454.492,898.07 v 296.92 h 223.953 v -58.11 H 519.387 v -60.23 h 139.968 v -58.12 H 519.387 V 956.191 H 680.566 V 898.07 H 454.492" /><path
         id="path34"
         style="fill:#ffffff;fill-opacity:1;fill-rule:nonzero;stroke:none"
         d="m 1074.19,898.07 -92.038,126.4 -34.359,-35.618 V 898.07 h -65.316 v 296.92 h 65.316 v -129.8 l 120.457,129.8 h 78.9 l -120.89,-125.98 126.4,-170.94 h -78.47" /><path
         id="path36"
         style="fill:#ffffff;fill-opacity:1;fill-rule:nonzero;stroke:none"
         d="m 1520.83,1093.62 c 0,27.99 -19.51,42.41 -51.32,42.41 h -64.9 v -85.25 h 66.17 c 31.81,0 50.05,16.96 50.05,41.99 z m -1.26,-195.55 -63.63,95.02 h -51.33 v -95.02 h -65.31 v 296.92 h 135.73 c 69.98,0 111.97,-36.9 111.97,-97.99 v -0.84 c 0,-47.93 -25.87,-78.05 -63.62,-92.04 l 72.53,-106.05 h -76.34" /><path
         id="path38"
         style="fill:#ffffff;fill-opacity:1;fill-rule:nonzero;stroke:none"
         d="m 1804.6,898.07 v 296.92 h 223.96 v -58.11 H 1869.5 v -60.23 h 139.97 v -58.12 H 1869.5 v -62.339 h 161.18 V 898.07 H 1804.6" /><path
         id="path40"
         style="fill:#ffffff;fill-opacity:1;fill-rule:nonzero;stroke:none"
         d="M 2400.33,1134.76 V 898.07 h -65.32 v 236.69 h -90.34 v 60.23 h 246.01 v -60.23 h -90.35" /><path
         id="path42"
         style="fill:#ffffff;fill-opacity:1;fill-rule:nonzero;stroke:none"
         d="m 2816.87,1118.64 -39.45,-96.29 h 78.9 z m 89.92,-220.57 -27.14,66.61 h -125.56 l -27.15,-66.61 h -66.59 l 127.25,299.04 h 60.23 l 127.25,-299.04 h -68.29" /><path
         id="path44"
         style="fill:#ffffff;fill-opacity:1;fill-rule:nonzero;stroke:none"
         d="m 3320.99,1093.62 c 0,27.99 -19.52,42.41 -51.33,42.41 h -64.89 v -85.25 h 66.16 c 31.81,0 50.06,16.96 50.06,41.99 z m -1.27,-195.55 -63.64,95.02 h -51.31 v -95.02 h -65.33 v 296.92 h 135.74 c 69.99,0 111.97,-36.9 111.97,-97.99 v -0.84 c 0,-47.93 -25.87,-78.05 -63.61,-92.04 l 72.51,-106.05 h -76.33" /><path
         id="path46"
         style="fill:#ffffff;fill-opacity:1;fill-rule:nonzero;stroke:none"
         d="m 3685.13,898.07 v 296.92 h 65.32 V 898.07 h -65.32" /><path
         id="path48"
         style="fill:#ffffff;fill-opacity:1;fill-rule:nonzero;stroke:none"
         d="m 4166.98,1118.64 -39.45,-96.29 h 78.9 z m 89.92,-220.57 -27.14,66.61 H 4104.2 l -27.14,-66.61 h -66.6 l 127.25,299.04 h 60.24 l 127.24,-299.04 h -68.29" /><path
         id="path50"
         style="fill:#ffffff;fill-opacity:1;fill-rule:nonzero;stroke:none"
         d="M 4650.52,1134.76 V 898.07 h -65.31 v 236.69 h -90.36 v 60.23 h 246.02 v -60.23 h -90.35" /><path
         id="path52"
         style="fill:#ffffff;fill-opacity:1;fill-rule:nonzero;stroke:none"
         d="m 4954.86,898.07 v 296.92 h 223.96 v -58.11 h -159.06 v -60.23 h 139.97 v -58.12 h -139.97 v -62.339 h 161.18 V 898.07 h -226.08" /><path
         id="path54"
         style="fill:#ffffff;fill-opacity:1;fill-rule:nonzero;stroke:none"
         d="M 5550.6,1134.74 V 898.059 h -65.33 v 236.681 h -90.34 v 60.23 h 246.02 v -60.23 h -90.35" /></g></g></svg>