<svg width="20" height="20" viewBox="0 0 20 20" fill="none" xmlns="http://www.w3.org/2000/svg">
<path d="M10 -4.37114e-07C15.523 -1.95696e-07 20 4.477 20 10C20 15.523 15.523 20 10 20C4.477 20 -6.78532e-07 15.523 -4.37114e-07 10C-1.95696e-07 4.477 4.477 -6.78532e-07 10 -4.37114e-07ZM5.47 8.44C5.32955 8.58062 5.25066 8.77125 5.25066 8.97C5.25066 9.16875 5.32955 9.35937 5.47 9.5L9.47 13.5C9.61062 13.6405 9.80125 13.7193 10 13.7193C10.1987 13.7193 10.3894 13.6405 10.53 13.5L14.53 9.5C14.6625 9.35783 14.7346 9.16978 14.7312 8.97548C14.7277 8.78118 14.649 8.59579 14.5116 8.45838C14.3742 8.32096 14.1888 8.24225 13.9945 8.23882C13.8002 8.2354 13.6122 8.30752 13.47 8.44L10 11.908L6.53 8.438C6.38937 8.29755 6.19875 8.21866 6 8.21866C5.80125 8.21866 5.61062 8.29755 5.47 8.438L5.47 8.44Z" fill="#F2F2F2"/>
</svg>
