<svg width="20" height="20" viewBox="0 0 20 20" fill="none" xmlns="http://www.w3.org/2000/svg">
<path d="M10 20C4.477 20 5.33877e-08 15.523 1.19249e-07 10C1.8511e-07 4.477 4.477 5.33877e-08 10 1.19249e-07C15.523 1.8511e-07 20 4.477 20 10C20 15.523 15.523 20 10 20ZM14.53 11.56C14.6705 11.4194 14.7493 11.2288 14.7493 11.03C14.7493 10.8312 14.6705 10.6406 14.53 10.5L10.53 6.5C10.3894 6.35955 10.1988 6.28066 10 6.28066C9.80125 6.28066 9.61063 6.35955 9.47 6.5L5.47 10.5C5.33752 10.6422 5.2654 10.8302 5.26883 11.0245C5.27225 11.2188 5.35097 11.4042 5.48838 11.5416C5.62579 11.679 5.81118 11.7577 6.00548 11.7612C6.19978 11.7646 6.38782 11.6925 6.53 11.56L10 8.092L13.47 11.562C13.6106 11.7025 13.8012 11.7813 14 11.7813C14.1988 11.7813 14.3894 11.7025 14.53 11.562L14.53 11.56Z" fill="#91DFC8"/>
</svg>
