<svg width="20" height="20" viewBox="0 0 20 20" fill="none" xmlns="http://www.w3.org/2000/svg">
    <path
        d="M20 10C20 15.523 15.523 20 10 20C4.477 20 3.91392e-07 15.523 8.74228e-07 10C1.35706e-06 4.477 4.477 -1.35706e-06 10 -8.74228e-07C15.523 -3.91392e-07 20 4.477 20 10ZM11.56 5.47C11.4194 5.32955 11.2288 5.25066 11.03 5.25066C10.8313 5.25066 10.6406 5.32955 10.5 5.47L6.5 9.47C6.35955 9.61062 6.28066 9.80125 6.28066 10C6.28066 10.1987 6.35955 10.3894 6.5 10.53L10.5 14.53C10.6422 14.6625 10.8302 14.7346 11.0245 14.7312C11.2188 14.7277 11.4042 14.649 11.5416 14.5116C11.679 14.3742 11.7577 14.1888 11.7612 13.9945C11.7646 13.8002 11.6925 13.6122 11.56 13.47L8.092 10L11.562 6.53C11.7025 6.38937 11.7813 6.19875 11.7813 6C11.7813 5.80125 11.7025 5.61062 11.562 5.47L11.56 5.47Z"
        fill="#FFFFFF" />
</svg>