<svg width="20" height="20" viewBox="0 0 20 20" fill="none" xmlns="http://www.w3.org/2000/svg">
<path d="M0 10C0 4.477 4.477 0 10 0C15.523 0 20 4.477 20 10C20 15.523 15.523 20 10 20C4.477 20 0 15.523 0 10ZM8.44 14.53C8.58062 14.6705 8.77125 14.7493 8.97 14.7493C9.16875 14.7493 9.35938 14.6705 9.5 14.53L13.5 10.53C13.6405 10.3894 13.7193 10.1988 13.7193 10C13.7193 9.80125 13.6405 9.61063 13.5 9.47L9.5 5.47C9.35783 5.33752 9.16978 5.2654 8.97548 5.26883C8.78118 5.27225 8.59579 5.35097 8.45838 5.48838C8.32096 5.62579 8.24225 5.81118 8.23882 6.00548C8.2354 6.19978 8.30752 6.38783 8.44 6.53L11.908 10L8.438 13.47C8.29755 13.6106 8.21866 13.8012 8.21866 14C8.21866 14.1988 8.29755 14.3894 8.438 14.53H8.44Z" fill="#91DFC8"/>
</svg>
