<svg width="18" height="17" viewBox="0 0 18 17" fill="none" xmlns="http://www.w3.org/2000/svg">
<path d="M7.29503 15.716C7.3886 15.8082 7.49941 15.881 7.62113 15.9304C7.74285 15.9798 7.87311 16.0047 8.00446 16.0037C8.1358 16.0027 8.26567 15.9759 8.38665 15.9247C8.50763 15.8736 8.61734 15.7991 8.70953 15.7055C8.80172 15.6119 8.87458 15.5011 8.92394 15.3794C8.9733 15.2577 8.99821 15.1274 8.99723 14.9961C8.99626 14.8647 8.96942 14.7349 8.91826 14.6139C8.86709 14.4929 8.7926 14.3832 8.69903 14.291L3.32903 9.001H16.999C17.2642 9.001 17.5186 8.89564 17.7061 8.70811C17.8937 8.52057 17.999 8.26622 17.999 8.001C17.999 7.73578 17.8937 7.48143 17.7061 7.29389C17.5186 7.10636 17.2642 7.001 16.999 7.001H3.33603L8.70003 1.714C8.88398 1.52678 8.98695 1.27475 8.98673 1.01228C8.9865 0.749813 8.88309 0.497957 8.69882 0.311057C8.51454 0.124157 8.26417 0.0171976 8.00174 0.0132582C7.7393 0.00931885 7.48583 0.108715 7.29603 0.29L0.372031 7.112C0.254115 7.22829 0.160483 7.36685 0.0965743 7.51964C0.032666 7.67243 -0.000244141 7.83639 -0.000244141 8.002C-0.000244141 8.16761 0.032666 8.33158 0.0965743 8.48436C0.160483 8.63715 0.254115 8.77571 0.372031 8.892L7.29603 15.715L7.29503 15.716Z" fill="#F2F2F2"/>
</svg>
