<svg width="10" height="10" viewBox="0 0 10 10" fill="currentColor" xmlns="http://www.w3.org/2000/svg">
    <path d="M9.44061 2.16591C9.43996 2.07835 9.42207 1.99177 9.38796 1.91111C9.35385 1.83046 9.30419 1.75732 9.24181 1.69586C9.11583 1.57174 8.94571 1.50275 8.76886 1.50406C8.59201 1.50537 8.42293 1.57688 8.29881 1.70286C8.17469 1.82884 8.1057 1.99896 8.10701 2.17581L8.14425 7.20145L1.70015 0.757354C1.57513 0.63233 1.40556 0.562091 1.22875 0.562091C1.05193 0.562091 0.882366 0.632329 0.757342 0.757353C0.632318 0.882378 0.56208 1.05195 0.56208 1.22876C0.56208 1.40557 0.632318 1.57514 0.757342 1.70016L7.19861 8.14143L2.17863 8.10419C2.09106 8.10354 2.00422 8.12015 1.92308 8.15306C1.84193 8.18596 1.76805 8.23454 1.70568 8.29599C1.6433 8.35745 1.59364 8.4306 1.55953 8.51125C1.52542 8.5919 1.50753 8.67848 1.50688 8.76604C1.50623 8.85361 1.52283 8.94045 1.55574 9.0216C1.58865 9.10274 1.63722 9.17662 1.69868 9.23899C1.76014 9.30137 1.83328 9.35103 1.91393 9.38514C1.99458 9.41925 2.08116 9.43715 2.16873 9.4378L8.64912 9.48541C8.75953 9.48618 8.86899 9.465 8.97114 9.4231C9.07329 9.3812 9.1661 9.31942 9.24417 9.24135C9.32224 9.16328 9.38402 9.07047 9.42591 8.96832C9.46781 8.86617 9.48899 8.75672 9.48822 8.64631L9.44061 2.16591V2.16591Z" fill="currentColor" />
</svg>
    