<svg width="24" height="24" viewBox="0 0 24 24" fill="none" xmlns="http://www.w3.org/2000/svg">
<path fill-rule="evenodd" clip-rule="evenodd" d="M14.0755 4.03728C13.7927 3.93192 13.4707 4.05752 13.3562 4.3178C13.2417 4.57809 13.3782 4.87449 13.661 4.97985L15.3278 5.60079V7.28481H8.33685V6.91284H9.00599C9.31108 6.91284 9.5584 6.68521 9.5584 6.40442C9.5584 6.12362 9.31108 5.89599 9.00599 5.89599H6.70659C6.4015 5.89599 6.15417 6.12362 6.15417 6.40442C6.15417 6.68521 6.4015 6.91284 6.70659 6.91284H7.23202V7.58605L6.40944 9.22853C5.93011 9.08392 5.41809 9.00571 4.88623 9.00571C2.18764 9.00571 0 11.0191 0 13.5029C0 15.9866 2.18764 18 4.88623 18C7.42267 18 9.50771 16.2213 9.74912 13.9451H11.5928C11.7732 13.9451 11.9422 13.8641 12.0455 13.7281L15.787 8.80325L16.3566 9.78957C15.071 10.5997 14.2275 11.9606 14.2275 13.5029C14.2275 15.9866 16.4152 18 19.1138 18C21.8124 18 24 15.9866 24 13.5029C24 11.0191 21.8124 9.00571 19.1138 9.00571C18.4854 9.00571 17.8847 9.11487 17.333 9.31372L16.4327 7.7547V4.91538L14.0755 4.03728ZM16.8793 10.6949L18.626 13.7194C18.7692 13.9674 19.1036 14.0615 19.373 13.9298C19.6424 13.798 19.7448 13.4901 19.6016 13.2422L17.8561 10.2197C18.2496 10.092 18.6729 10.0226 19.1138 10.0226C21.2022 10.0226 22.8952 11.5807 22.8952 13.5029C22.8952 15.425 21.2022 16.9831 19.1138 16.9831C17.0254 16.9831 15.3324 15.425 15.3324 13.5029C15.3324 12.3501 15.9413 11.3282 16.8793 10.6949ZM4.88623 10.0226C5.25296 10.0226 5.6075 10.0706 5.94282 10.1602L4.4085 13.2239C4.32966 13.3813 4.34339 13.5649 4.44494 13.7108C4.54648 13.8568 4.72184 13.9451 4.91018 13.9451H8.63738C8.40128 15.6584 6.81184 16.9831 4.88623 16.9831C2.79782 16.9831 1.10483 15.425 1.10483 13.5029C1.10483 11.5807 2.79782 10.0226 4.88623 10.0226ZM5.77308 12.9283H8.61634C8.43936 11.9477 7.81698 11.1057 6.94699 10.5843L5.77308 12.9283ZM7.41335 9.65311C8.65878 10.3471 9.54041 11.5386 9.73295 12.9283H11.305L14.8199 8.30167H8.09017L7.41335 9.65311Z" fill="#FFFDFA"/>
</svg>