<svg width="32" height="32" viewBox="0 0 32 32" fill="none" xmlns="http://www.w3.org/2000/svg">
<path d="M23.4492 22.535L19.4417 14.5203H11.427L7.99219 22.535H16.0069L20.1575 12.9163H23.4492C24.1605 12.9163 24.7373 13.4929 24.7373 14.2043C24.7373 14.9158 24.1605 15.4924 23.4492 15.4924C23.4492 15.4924 22.872 15.4924 22.4165 15.4924" stroke="#FFFDFA" stroke-linejoin="round"/>
<path d="M15.722 22.2489L9.35449 10.1943" stroke="#FFFDFA" stroke-linejoin="round"/>
<path d="M11.9995 10.5C12.2757 10.5 12.4995 10.2761 12.4995 10C12.4995 9.72386 12.2757 9.5 11.9995 9.5V10.5ZM7.99219 10.5H11.9995V9.5H7.99219V10.5Z" fill="#FFFDFA"/>
<path d="M26.6112 25.6999C24.513 27.7981 21.4635 27.9565 19.7912 26.2842C18.1188 24.6118 18.2773 21.5624 20.3755 19.4642C22.4737 17.366 25.5231 17.2075 27.1955 18.8799C28.8678 20.5522 28.7094 23.6017 26.6112 25.6999Z" stroke="#FFFDFA"/>
<path d="M10.5336 25.6999C8.43532 27.7981 5.3859 27.9565 3.71356 26.2842C2.04121 24.6118 2.19962 21.5624 4.29785 19.4642C6.39609 17.366 9.44551 17.2075 11.1179 18.8799C12.7902 20.5522 12.6318 23.6017 10.5336 25.6999Z" stroke="#FFFDFA"/>
<path d="M1.65039 26L3.65039 26" stroke="#FFFDFA"/>
<path d="M26.6504 26H30.6504" stroke="#FFFDFA"/>
<path d="M10 26L19.5 26" stroke="#FFFDFA"/>
<path d="M22.3751 3C24.2669 3 25.5762 5.66667 26 7H22.3751H19.7559H18.154C18.0014 6.60784 17.8285 5.82353 18.3574 5.82353C18.8863 5.82353 19.5101 6.60784 19.7559 7C19.3237 6.17647 18.7185 4.52941 19.7559 4.52941C20.6838 4.52941 21.6943 5.84671 22.2128 6.7142C21.4519 5.32014 20.6104 3 22.3751 3Z" fill="#FFFDFA"/>
<path d="M26 7C25.5762 5.66667 24.2669 3 22.3751 3C20.4832 3 21.5868 5.66667 22.3751 7C21.9343 6.17647 20.7934 4.52941 19.7559 4.52941C18.7185 4.52941 19.3237 6.17647 19.7559 7C19.5101 6.60784 18.8863 5.82353 18.3574 5.82353C17.8285 5.82353 18.0014 6.60784 18.154 7H26Z" stroke="#FFFDFA" stroke-linejoin="round"/>
</svg>
