<?xml version="1.0" standalone="no"?>
<!DOCTYPE svg PUBLIC "-//W3C//DTD SVG 20010904//EN" "http://www.w3.org/TR/2001/REC-SVG-20010904/DTD/svg10.dtd">
<svg version="1.0" xmlns="http://www.w3.org/2000/svg"
  width="20" height="20" viewBox="0 0 186 186"
  preserveAspectRatio="xMidYMid meet">
  <g transform="translate(0,186) scale(0.1,-0.1)"
    fill="currentColor" stroke="none">
    <path
      d="M570 1415 c-7 -8 -20 -15 -30 -15 -23 0 -100 -77 -100 -100 0 -10 -7
-23 -15 -30 -13 -11 -15 -59 -15 -320 0 -261 2 -309 15 -320 8 -7 15 -20 15
-30 0 -23 77 -100 100 -100 10 0 23 -7 30 -15 19 -22 621 -22 640 0 7 8 20 15
30 15 23 0 100 77 100 100 0 10 7 23 15 30 13 11 15 59 15 320 0 261 -2 309
-15 320 -8 7 -15 20 -15 30 0 23 -77 100 -100 100 -10 0 -23 7 -30 15 -11 13
-59 15 -320 15 -261 0 -309 -2 -320 -15z m572 -212 c16 -15 18 -35 18 -221 0
-177 -2 -208 -17 -224 -20 -22 -31 -23 -55 -1 -16 14 -18 33 -18 160 0 78 -4
143 -8 143 -4 0 -94 -87 -200 -192 -201 -203 -205 -205 -236 -155 -9 15 19 47
182 209 105 106 192 196 192 200 0 4 -64 8 -142 8 -118 0 -145 3 -160 17 -22
20 -23 31 -1 55 15 16 35 18 221 18 177 0 208 -2 224 -17z" />
  </g>
</svg>