<svg width="32" height="35" viewBox="0 0 32 35" fill="none" xmlns="http://www.w3.org/2000/svg">
  <g filter="url(#filter0_d_1658_198576)">
    <path
      d="M25.4687 9.17539L25.4687 24.9485C25.4687 25.8052 24.7743 26.4997 23.9176 26.4998V26.4998C23.0607 26.4999 22.366 25.8053 22.366 24.9485L22.366 17.4886C22.366 16.7406 21.7597 16.1343 21.0117 16.1343L19 16.1343"
      stroke="#FFFDFA" />
    <path
      d="M27.5 9.59507L27.5 6.39185L23.4371 6.39185L23.4371 9.59507C23.4371 10.132 23.8723 10.5672 24.4092 10.5672L26.5279 10.5672C27.0648 10.5672 27.5 10.132 27.5 9.59507Z"
      fill="#FFFDFA" />
    <path d="M26.4834 5L26.4834 7.95478" stroke="#FFFDFA" stroke-linecap="round" />
    <path d="M24.4512 5L24.4512 7.95478" stroke="#FFFDFA" stroke-linecap="round" />
    <path d="M8 7.5H19V26.5H8V7.5Z" stroke="#FFFDFA" />
    <path d="M8 5C8 4.72386 8.22386 4.5 8.5 4.5H18.5C18.7761 4.5 19 4.72386 19 5V7.5H8V5Z"
      stroke="#FFFDFA" />
    <path d="M11.5 19.2667L14.8333 15L13.5 18.2H15.5L12.1667 23L13.5 19.2667H11.5Z" fill="#FFFDFA" />
    <rect x="6" y="26" width="15" height="1" fill="#FFFDFA" />
    <path d="M10.5 10.5H16.5V13.5H10.5V10.5Z" stroke="#FFFDFA" />
    <path d="M12.5 11V13" stroke="#FFFDFA" />
    <path d="M14.5 11V13" stroke="#FFFDFA" />
    <rect x="15" y="11" width="1" height="2" fill="#FFFDFA" />
  </g>
  <defs>
    <filter id="filter0_d_1658_198576" x="-4" y="0" width="40" height="40"
      filterUnits="userSpaceOnUse" color-interpolation-filters="sRGB">
      <feFlood flood-opacity="0" result="BackgroundImageFix" />
      <feColorMatrix in="SourceAlpha" type="matrix"
        values="0 0 0 0 0 0 0 0 0 0 0 0 0 0 0 0 0 0 127 0" result="hardAlpha" />
      <feOffset dy="4" />
      <feGaussianBlur stdDeviation="2" />
      <feComposite in2="hardAlpha" operator="out" />
      <feColorMatrix type="matrix" values="0 0 0 0 0 0 0 0 0 0 0 0 0 0 0 0 0 0 0.25 0" />
      <feBlend mode="normal" in2="BackgroundImageFix" result="effect1_dropShadow_1658_198576" />
      <feBlend mode="normal" in="SourceGraphic" in2="effect1_dropShadow_1658_198576" result="shape" />
    </filter>
  </defs>
</svg>