<svg width="24" height="25" viewBox="0 0 24 25" fill="none" xmlns="http://www.w3.org/2000/svg">
<path fill-rule="evenodd" clip-rule="evenodd" d="M12 2.62695V7.65005L12 7.70446C11.9999 8.12853 11.9998 8.54066 12.0455 8.88057C12.097 9.26378 12.2226 9.70105 12.5858 10.0643C12.949 10.4275 13.3863 10.553 13.7695 10.6045C14.1094 10.6502 14.5215 10.6501 14.9456 10.6501H14.9456H14.9456H14.9456L15 10.6501H20V16.6732C20 19.5109 20 20.9298 19.1213 21.8114C18.2426 22.693 16.8284 22.693 14 22.693H10C7.17157 22.693 5.75736 22.693 4.87868 21.8114C4 20.9298 4 19.5109 4 16.6732V8.64676C4 5.80899 4 4.39011 4.87868 3.50853C5.75736 2.62695 7.17157 2.62695 10 2.62695H12ZM14 2.63159V7.65005C14 8.14973 14.0021 8.42389 14.0277 8.61408L14.0287 8.62136L14.036 8.62236C14.2262 8.64793 14.5003 8.65005 15 8.65005H19.9955C19.9854 8.23521 19.9528 7.96113 19.8478 7.70672C19.6955 7.33797 19.4065 7.04799 18.8284 6.46802L18.8284 6.46802L16.1716 3.80239C15.5935 3.22242 15.3045 2.93244 14.9369 2.7797C14.684 2.6746 14.4116 2.64182 14 2.63159ZM8 13.6633C8 13.111 8.44772 12.6633 9 12.6633L15 12.6633C15.5523 12.6633 16 13.111 16 13.6633C16 14.2155 15.5523 14.6633 15 14.6633L9 14.6633C8.44772 14.6633 8 14.2155 8 13.6633ZM9 16.6765C8.44772 16.6765 8 17.1242 8 17.6765C8 18.2287 8.44772 18.6765 9 18.6765H13C13.5523 18.6765 14 18.2287 14 17.6765C14 17.1242 13.5523 16.6765 13 16.6765H9Z" fill="#F9FBFF"/>
</svg>
