<svg width="32" height="32" viewBox="0 0 32 32" fill="none" xmlns="http://www.w3.org/2000/svg">
<path d="M15.0376 6.31812H12.4762C11.1787 6.31812 10.127 7.36989 10.127 8.66732V25.2053C10.127 26.5027 11.1787 27.5545 12.4762 27.5545H21.7777C23.0752 27.5545 24.127 26.5027 24.127 25.2053V8.66732C24.127 7.36989 23.0752 6.31812 21.7777 6.31812H19.6618" stroke="#FFFDFA"/>
<path d="M13.627 12.5H20.627" stroke="#FFFDFA"/>
<path d="M13.627 20.5H18.002" stroke="#FFFDFA"/>
<path d="M13.627 16.5H20.627" stroke="#FFFDFA"/>
<path d="M10.127 13.5L5.50781 16.337V23.2728" stroke="#FFFDFA"/>
<path d="M4.84985 19.2314C4.28203 18.8278 3.62695 17.9404 3.62695 16.1779C3.62695 14.8875 3.86763 13.3965 4.25245 12.24C4.44557 11.6597 4.66576 11.1919 4.89039 10.8799C5.12894 10.5485 5.29117 10.5 5.34985 10.5C5.45375 10.5 5.76274 10.5694 6.13606 11.2425C6.48765 11.8764 6.84427 12.966 7.09048 14.7547L5.0748 16.0825L4.84985 16.2306V16.5V19.2314Z" fill="#FFFDFA" stroke="#FFFDFA"/>
<path d="M24.127 13.5278L26.127 12L28.127 13.5278V18" stroke="#FFFDFA"/>
<path d="M30.127 20C30.127 19.4696 29.9162 18.9609 29.5412 18.5858C29.1661 18.2107 28.6574 18 28.127 18C27.5965 18 27.0878 18.2107 26.7127 18.5858C26.3377 18.9609 26.127 19.4696 26.127 20L28.127 20H30.127Z" fill="#FFFDFA" stroke="#FFFDFA"/>
<path d="M28.1279 19.491V23.2728" stroke="#FFFDFA"/>
<line x1="10" y1="23.7727" x2="3" y2="23.7727" stroke="#FFFDFA"/>
<line x1="30.127" y1="23.7727" x2="24.0179" y2="23.7727" stroke="#FFFDFA"/>
<rect x="14.127" y="5" width="6" height="3" rx="1" fill="#FFFDFA"/>
</svg>
