<svg width="32" height="32" viewBox="0 0 32 32" fill="none" xmlns="http://www.w3.org/2000/svg">
<path d="M3.47656 8H6.27497C6.74084 8 7.16268 8.27532 7.35021 8.70178L12.2889 19.9327C12.5073 20.4292 12.3572 21.0107 11.9259 21.3396L11.2023 21.8914C10.3084 22.5729 10.7904 24 11.9145 24H25.4766" stroke="#FFFDFA" stroke-linecap="round"/>
<path d="M8.47656 12H26.0798C26.809 12 27.3621 12.6576 27.237 13.3761L26.39 18.2402C26.2966 18.7765 25.8469 19.1784 25.3035 19.2112L12.2143 20" stroke="#FFFDFA"/>
<path d="M12.4766 12V20" stroke="#FFFDFA"/>
<path d="M16.4766 12V20" stroke="#FFFDFA"/>
<path d="M20.4766 12V19.5" stroke="#FFFDFA"/>
<path d="M24.4766 12V19" stroke="#FFFDFA"/>
<circle cx="12.7334" cy="26.6714" r="1.25681" fill="#FFFDFA"/>
<circle cx="23.3115" cy="26.6714" r="1.25681" fill="#FFFDFA"/>
<path d="M10.4766 12V10H12.4766V12" stroke="#FFFDFA"/>
<path d="M20.48 11.8812V9H24.48V12" stroke="#FFFDFA"/>
<path d="M16.4766 12V8C16.4766 7.44772 16.0288 7 15.4766 7H13.4766C12.9243 7 12.4766 7.44772 12.4766 8V9.72727" stroke="#FFFDFA"/>
</svg>
