<svg width="20" height="20" viewBox="0 0 20 20" fill="none" xmlns="http://www.w3.org/2000/svg">
<path fill-rule="evenodd" clip-rule="evenodd" d="M5.44152 1C4.15023 1 3.00381 1.82629 2.59547 3.05132L1.22772 7.15455C0.506588 7.45669 0 8.16919 0 9V16H1V17.5C1 18.3284 1.67157 19 2.5 19C3.32843 19 4 18.3284 4 17.5V16H16V17.5C16 18.3284 16.6716 19 17.5 19C18.3284 19 19 18.3284 19 17.5V16H20V9C20 8.16919 19.4934 7.45669 18.7723 7.15455L17.4045 3.05132C16.9962 1.82629 15.8498 1 14.5585 1H5.44152ZM16.6126 7L15.5072 3.68377C15.3711 3.27543 14.9889 3 14.5585 3H5.44152C5.01109 3 4.62895 3.27543 4.49284 3.68377L3.38743 7H16.6126ZM2.5 12C3.32843 12 4 11.3284 4 10.5C4 9.67157 3.32843 9 2.5 9C1.67157 9 1 9.67157 1 10.5C1 11.3284 1.67157 12 2.5 12ZM19 10.5C19 11.3284 18.3284 12 17.5 12C16.6716 12 16 11.3284 16 10.5C16 9.67157 16.6716 9 17.5 9C18.3284 9 19 9.67157 19 10.5ZM11 8L8 12H9.5L8.5 15L12.5 10.5H10.5L11 8Z" fill="#F9FBFF"/>
</svg>
