<svg width="32" height="32" viewBox="0 0 32 32" fill="none" xmlns="http://www.w3.org/2000/svg">
<path d="M14.3008 6.5H18.3258C19.3183 6.5 20.0371 7.44649 19.7708 8.40253L19.7351 8.53055C19.4109 9.69467 18.3505 10.5 17.1421 10.5H6.02857C4.736 10.5 3.62592 11.4187 3.38424 12.6885L2.62512 16.6769C2.45675 17.5615 3.13493 18.3809 4.03543 18.3809H6.78275" stroke="#FFFDFA"/>
<path d="M14.2822 4H12V8H14.2822C14.6786 8 15 7.67862 15 7.28219V4.71781C15 4.32138 14.6786 4 14.2822 4Z" fill="#FFFDFA"/>
<path d="M10.3008 5H12.3008" stroke="#FFFDFA"/>
<path d="M10.3008 7H12.3008" stroke="#FFFDFA"/>
<path d="M13.1484 14.2192L12.0497 18.3607" stroke="#FFFDFA"/>
<path d="M12.586 26.6019C11.3916 27.8823 9.69828 27.9422 8.7952 26.9741C7.89213 26.006 7.94803 24.1908 9.14242 22.9104C10.3368 21.63 12.0301 21.5701 12.9332 22.5382C13.8363 23.5063 13.7804 25.3215 12.586 26.6019Z" stroke="#FFFDFA"/>
<path d="M25.1861 26.6297C23.9917 27.9101 22.2984 27.97 21.3953 27.0019C20.4922 26.0339 20.5481 24.2186 21.7425 22.9382C22.9369 21.6578 24.6302 21.5979 25.5333 22.566C26.4364 23.5341 26.3805 25.3494 25.1861 26.6297Z" stroke="#FFFDFA"/>
<path d="M24.0098 25.2275C23.6352 25.629 23.1173 25.6365 22.8492 25.3491C22.581 25.0616 22.588 24.5064 22.9626 24.1048C23.3372 23.7033 23.8551 23.6958 24.1232 23.9833C24.3913 24.2707 24.3844 24.8259 24.0098 25.2275Z" fill="#FFFDFA" stroke="#FFFDFA" stroke-width="0.440476"/>
<path d="M11.4102 25.2275C11.0356 25.629 10.5177 25.6365 10.2495 25.3491C9.98144 25.0616 9.98837 24.5064 10.363 24.1048C10.7376 23.7033 11.2555 23.6958 11.5236 23.9833C11.7917 24.2707 11.7848 24.8259 11.4102 25.2275Z" fill="#FFFDFA" stroke="#FFFDFA" stroke-width="0.440476"/>
<path d="M20.9688 20H18.3014" stroke="#FFFDFA" stroke-linecap="round"/>
<path d="M20.7099 25.0206H13.851M26.3008 25.0206H29.1484V21.0247C29.1484 20.3442 28.6707 19.7573 28.0045 19.619L22.0369 18.3809H8.53014H6.45168L5.37088 25.0206H7.94817" stroke="#FFFDFA"/>
<path d="M6.5569 18.2372V18.2372C6.89883 15.9288 8.88024 14.2192 11.2138 14.2192H18.8746C19.4 14.2192 19.8834 14.5062 20.135 14.9675L21.9395 18.2762" stroke="#FFFDFA"/>
</svg>
