<svg width="22" height="21" viewBox="0 0 22 21" fill="none" xmlns="http://www.w3.org/2000/svg">
<path d="M11 -0.000999451C16.524 -0.000999451 21.002 4.477 21.002 10.001C21.002 15.524 16.524 20.002 11 20.002C5.47605 20.002 0.998047 15.524 0.998047 10.001C0.998047 4.477 5.47605 -0.000999451 11 -0.000999451ZM10.996 8.249C10.751 8.24934 10.5146 8.33965 10.3317 8.5028C10.1488 8.66594 10.0322 8.89056 10.004 9.134L9.99705 9.25L10 14.752L10.007 14.869C10.0352 15.1129 10.1522 15.3379 10.3355 15.5011C10.5189 15.6643 10.7559 15.7544 11.0014 15.7542C11.2469 15.7539 11.4838 15.6634 11.6668 15.4998C11.8499 15.3362 11.9663 15.1109 11.994 14.867L12 14.75L11.997 9.249L11.99 9.132C11.9611 8.88876 11.844 8.66459 11.6607 8.50201C11.4775 8.33943 11.241 8.24976 10.996 8.25V8.249ZM11 4.5C10.6681 4.5 10.3498 4.63185 10.1151 4.86656C9.8804 5.10126 9.74855 5.41958 9.74855 5.7515C9.74855 6.08342 9.8804 6.40174 10.1151 6.63644C10.3498 6.87115 10.6681 7.003 11 7.003C11.332 7.003 11.6503 6.87115 11.885 6.63644C12.1197 6.40174 12.2515 6.08342 12.2515 5.7515C12.2515 5.41958 12.1197 5.10126 11.885 4.86656C11.6503 4.63185 11.332 4.5 11 4.5V4.5Z" fill="#F2F2F2"/>
</svg>
