<svg width="22" height="21" viewBox="0 0 22 21" fill="none" xmlns="http://www.w3.org/2000/svg">
<path d="M11 -0.000976562C16.524 -0.000976562 21.002 4.47702 21.002 10.001C21.002 15.524 16.524 20.002 11 20.002C5.47599 20.002 0.997986 15.524 0.997986 10.001C0.997986 4.47702 5.47599 -0.000976562 11 -0.000976562ZM10.996 8.24902C10.7509 8.24936 10.5145 8.33967 10.3316 8.50282C10.1488 8.66596 10.0322 8.89058 10.004 9.13402L9.99699 9.25002L9.99999 14.752L10.007 14.869C10.0352 15.1129 10.1521 15.3379 10.3355 15.5011C10.5189 15.6644 10.7559 15.7544 11.0014 15.7542C11.2469 15.7539 11.4837 15.6634 11.6668 15.4998C11.8498 15.3362 11.9663 15.111 11.994 14.867L12 14.75L11.997 9.24902L11.99 9.13202C11.9611 8.88878 11.8439 8.66461 11.6607 8.50203C11.4775 8.33946 11.2409 8.24978 10.996 8.25002V8.24902ZM11 4.50002C10.6681 4.50002 10.3497 4.63188 10.115 4.86658C9.88034 5.10128 9.74849 5.41961 9.74849 5.75152C9.74849 6.08344 9.88034 6.40177 10.115 6.63647C10.3497 6.87117 10.6681 7.00302 11 7.00302C11.3319 7.00302 11.6502 6.87117 11.8849 6.63647C12.1196 6.40177 12.2515 6.08344 12.2515 5.75152C12.2515 5.41961 12.1196 5.10128 11.8849 4.86658C11.6502 4.63188 11.3319 4.50002 11 4.50002Z" fill="#91DFC8"/>
</svg>
