<svg width="20" height="20" viewBox="0 0 20 20" fill="none" xmlns="http://www.w3.org/2000/svg">
<path fill-rule="evenodd" clip-rule="evenodd" d="M17 2.00005V2.80139V13.8558V14.1709L16.7157 14.3069L12.6477 16.2525L12.4316 16.3558L12.2156 16.2522L8.00808 14.2325L3.7129 16.2538L3 16.5893V15.8014V5.01228V4.68927L3.29445 4.55648L7.80465 2.52247L8.00508 2.43208L8.20716 2.51869L12.3297 4.2855L16.2802 2.35228L17 2.00005ZM16 3.60273L12.5633 5.28451L12.5 5.3155L12.5 15.2146L16 13.5407V3.60273ZM11.5 14.7994L11.5 5.01787L8.5 3.73216L8.5 13.3594L11.5 14.7994ZM4 5.33528L7.5 3.75685L7.5 13.3664L4 15.0135V5.33528Z" fill="#000"/>
</svg>
