<?xml version="1.0" encoding="UTF-8" standalone="no"?>
<svg
   xmlns:dc="http://purl.org/dc/elements/1.1/"
   xmlns:cc="http://creativecommons.org/ns#"
   xmlns:rdf="http://www.w3.org/1999/02/22-rdf-syntax-ns#"
   xmlns:svg="http://www.w3.org/2000/svg"
   xmlns="http://www.w3.org/2000/svg"
   viewBox="0 0 554.58667 275.22668"
   height="275.22668"
   width="554.58667"
   xml:space="preserve"
   id="svg2"
   version="1.1"><metadata
     id="metadata8"><rdf:RDF><cc:Work
         rdf:about=""><dc:format>image/svg+xml</dc:format><dc:type
           rdf:resource="http://purl.org/dc/dcmitype/StillImage" /></cc:Work></rdf:RDF></metadata><defs
     id="defs6" /><g
     transform="matrix(1.3333333,0,0,-1.3333333,0,275.22667)"
     id="g10"><g
       transform="scale(0.1)"
       id="g12"><path
         id="path14"
         style="fill:#ffffff;fill-opacity:1;fill-rule:nonzero;stroke:none"
         d="M 3934.55,2064.25 H 224.836 C 100.66,2064.25 0,1988.03 0,1894 V 170.25 C 0,76.2188 100.66,0 224.836,0 H 3934.55 c 124.18,0 224.84,76.2188 224.84,170.25 V 1894 c 0,94.03 -100.66,170.25 -224.84,170.25 z m 0,-10 c 118.46,0 214.84,-71.89 214.84,-160.25 V 170.25 C 4149.39,81.8906 4053.01,10 3934.55,10 H 224.836 C 106.371,10 10,81.8906 10,170.25 V 1894 c 0,88.36 96.371,160.25 214.836,160.25 H 3934.55" /><path
         id="path16"
         style="fill:#ffffff;fill-opacity:1;fill-rule:nonzero;stroke:none"
         d="M 524.043,192.141 H 178.281 v 345.75 h 345.762 v -345.75" /><path
         id="path18"
         style="fill:#ffffff;fill-opacity:1;fill-rule:nonzero;stroke:none"
         d="M 524.043,1477.85 H 178.281 v 345.78 h 345.762 v -345.78" /><path
         id="path20"
         style="fill:#ffffff;fill-opacity:1;fill-rule:nonzero;stroke:none"
         d="m 3981.78,192.141 h -345.77 v 345.75 h 345.77 v -345.75" /><path
         id="path22"
         style="fill:#ffffff;fill-opacity:1;fill-rule:nonzero;stroke:none"
         d="m 3981.78,1477.85 h -345.77 v 345.78 h 345.77 v -345.78" /><path
         id="path24"
         style="fill:#ffffff;fill-opacity:1;fill-rule:nonzero;stroke:none"
         d="m 621.559,1572.82 c 28.519,-11.39 74.156,-24.3 122.988,-24.3 39.926,0 60.199,10.33 60.199,27.91 0,14.98 -19.648,24.8 -71.609,36.71 -72.907,16.51 -133.16,47.02 -133.16,107.47 0,63.04 69.75,109.56 180.695,109.56 58.328,0 97.644,-8.26 130.598,-19.62 l -27.274,-76.51 c -20.269,6.75 -56.43,18.1 -105.238,18.1 -35.485,0 -55.781,-9.29 -55.781,-24.28 0,-18.63 27.257,-24.81 83.046,-39.3 83.067,-21.7 122.364,-54.24 122.364,-106.97 0,-58.39 -56.422,-112.17 -192.727,-112.17 -56.422,0 -111.551,12.42 -138.844,23.79 l 24.743,79.61" /><path
         id="path26"
         style="fill:#ffffff;fill-opacity:1;fill-rule:nonzero;stroke:none"
         d="m 1115.41,1475.65 -149.601,348.33 h 131.251 l 51.96,-134.35 c 15.85,-39.81 29.15,-77.54 41.22,-124.06 h 1.24 c 12.06,43.41 26.66,84.25 41.22,121.45 l 53.88,136.96 h 126.17 L 1258.7,1475.65 h -143.29" /><path
         id="path28"
         style="fill:#ffffff;fill-opacity:1;fill-rule:nonzero;stroke:none"
         d="m 1757.65,1613.62 h -173.71 v -59.4 h 193.98 v -78.57 h -313.8 v 348.33 h 304.32 v -78.55 h -184.5 v -53.22 h 173.71 v -78.59" /><path
         id="path30"
         style="fill:#ffffff;fill-opacity:1;fill-rule:nonzero;stroke:none"
         d="m 1843.86,1475.65 v 348.33 h 150.27 l 70.38,-100.78 c 27.28,-38.75 53.87,-86.32 75.43,-131.79 h 1.9 c -7.6,51.66 -8.24,94.05 -8.24,141.6 v 90.97 h 110.96 v -348.33 h -131.24 l -77.34,115.25 c -27.27,40.3 -57.68,87.33 -82.42,134.87 h -2.53 c 3.18,-52.69 3.79,-103.36 3.79,-156.06 v -94.06 h -110.96" /><path
         id="path32"
         style="fill:#ffffff;fill-opacity:1;fill-rule:nonzero;stroke:none"
         d="m 2339.02,1572.82 c 28.53,-11.39 74.18,-24.3 122.99,-24.3 39.94,0 60.25,10.33 60.25,27.91 0,14.98 -19.67,24.8 -71.63,36.71 -72.92,16.51 -133.16,47.02 -133.16,107.47 0,63.04 69.75,109.56 180.7,109.56 58.33,0 97.62,-8.26 130.59,-19.62 l -27.25,-76.51 c -20.29,6.75 -56.46,18.1 -105.26,18.1 -35.49,0 -55.79,-9.29 -55.79,-24.28 0,-18.63 27.27,-24.81 83.05,-39.3 83.07,-21.7 122.36,-54.24 122.36,-106.97 0,-58.39 -56.42,-112.17 -192.71,-112.17 -56.43,0 -111.56,12.42 -138.87,23.79 l 24.73,79.61" /><path
         id="path34"
         style="fill:#ffffff;fill-opacity:1;fill-rule:nonzero;stroke:none"
         d="m 2713.06,1823.98 h 118.59 v -146.26 h 1.24 c 9.55,12.4 20.3,24.29 30.45,35.66 l 93.81,110.6 h 151.54 l -150.25,-146.78 157.23,-201.55 h -141.38 l -102.73,143.67 -39.91,-38.77 v -104.9 h -118.59 v 348.33" /><path
         id="path36"
         style="fill:#ffffff;fill-opacity:1;fill-rule:nonzero;stroke:none"
         d="m 3396.54,1631.72 -22.83,61.51 c -7.62,19.62 -16.49,44.95 -24.09,65.1 h -1.27 c -6.97,-20.15 -13.33,-45.48 -20.27,-65.61 l -20.32,-61 z m -105.88,-71.33 -27.28,-84.74 h -126.17 l 135.03,348.33 h 163.6 l 143.89,-348.33 h -133.15 l -31.67,84.74 h -124.25" /><path
         id="path38"
         style="fill:#ffffff;fill-opacity:1;fill-rule:nonzero;stroke:none"
         d="m 339.875,1034.88 c 9.031,-0.93 19.898,-1.89 37.117,-1.89 63.395,0 103.246,33.87 103.246,88.46 0,47.03 -29.898,79.03 -92.394,79.03 -23.531,0 -39.824,-1.87 -47.969,-3.76 z m -162.109,279.44 c 44.375,7.52 108.66,14.11 201.031,14.11 87.832,0 151.242,-16.92 193.789,-50.8 41.68,-32 69.719,-87.5 69.719,-152.42 0,-63.98 -20.825,-119.49 -59.746,-156.171 -48.911,-45.16 -120.454,-65.91 -202.836,-65.91 -16.313,0 -29.899,1.91 -39.848,1.91 V 689.57 H 177.766 v 624.75" /><path
         id="path40"
         style="fill:#ffffff;fill-opacity:1;fill-rule:nonzero;stroke:none"
         d="m 962.887,813.789 c 78.763,0 124.953,79.02 124.953,193.801 0,109.15 -47.07,191.93 -126.785,191.93 -78.77,0 -126.782,-82.78 -126.782,-192.85 -0.886,-113.861 48.012,-192.881 126.782,-192.881 z m -8.16,-134.539 c -189.278,0 -293.399,147.699 -293.399,323.63 0,184.45 115.906,331.19 303.36,331.19 196.492,0 296.112,-151.46 296.112,-320.8 0,-204.2 -117.71,-334.02 -305.155,-334.02 h -0.918" /><path
         id="path42"
         style="fill:#ffffff;fill-opacity:1;fill-rule:nonzero;stroke:none"
         d="m 1322.34,858.93 c 37.15,-19.739 96.9,-39.5 158.5,-39.5 56.13,0 83.3,19.761 83.3,51.75 0,31.031 -27.17,47.992 -95.99,72.468 -103.25,38.551 -172.06,96.902 -172.06,190.962 0,111.99 91.47,198.54 245.42,198.54 72.45,0 124.95,-14.11 164.8,-31.99 l -34.39,-136.43 c -26.28,12.24 -71.55,30.12 -132.21,30.12 -49.83,0 -76.97,-18.84 -76.97,-47.04 0,-32 32.58,-44.23 109.56,-74.35 109.57,-42.31 158.49,-102.538 158.49,-190.999 0,-109.152 -81.55,-202.301 -259.93,-202.301 -73.33,0 -144.88,19.789 -179.3,38.559 l 30.78,140.211" /><path
         id="path44"
         style="fill:#ffffff;fill-opacity:1;fill-rule:nonzero;stroke:none"
         d="m 1901.91,1180.69 h -155.76 v 143.05 H 2224.3 V 1180.69 H 2065.8 V 689.57 h -163.89 v 491.12" /><path
         id="path46"
         style="fill:#ffffff;fill-opacity:1;fill-rule:nonzero;stroke:none"
         d="m 2272.26,1323.74 h 162.1 v -269.11 h 1.81 c 12.68,23.55 26.26,47.07 38.95,69.66 l 117.7,199.45 h 201.06 L 2600.09,1053.7 2801.12,689.57 h -189.27 l -128.6,256.871 -48.89,-64.902 V 689.57 h -162.1 v 634.17" /><path
         id="path48"
         style="fill:#ffffff;fill-opacity:1;fill-rule:nonzero;stroke:none"
         d="m 3079.12,813.789 c 78.78,0 124.97,79.02 124.97,193.801 0,109.15 -47.09,191.93 -126.77,191.93 -78.82,0 -126.8,-82.78 -126.8,-192.85 -0.9,-113.861 47.98,-192.881 126.8,-192.881 z m -8.16,-134.539 c -189.26,0 -293.39,147.699 -293.39,323.63 0,184.45 115.88,331.19 303.35,331.19 196.51,0 296.13,-151.46 296.13,-320.8 0,-204.2 -117.72,-334.02 -305.19,-334.02 h -0.9" /><path
         id="path50"
         style="fill:#ffffff;fill-opacity:1;fill-rule:nonzero;stroke:none"
         d="m 3609.78,815.66 c 8.14,-1.871 23.53,-1.871 34.37,-1.871 105.95,-1.891 184.77,59.27 184.77,202.281 0,124.19 -71.57,182.54 -169.35,182.54 -25.36,0 -41.65,-1.89 -49.79,-3.76 z m -163.96,498.66 c 52.55,9.42 122.29,14.11 194.72,14.11 116.81,0 191.09,-19.75 250.84,-63.04 67.02,-47.95 110.49,-126.97 110.49,-243.67 0,-129.861 -47.08,-213.572 -105.96,-261.56 -66.99,-54.59 -167.52,-78.121 -287.07,-78.121 -78.78,0 -131.29,5.66 -163.02,11.34 v 620.941" /><path
         id="path52"
         style="fill:#ffffff;fill-opacity:1;fill-rule:nonzero;stroke:none"
         d="m 660.602,287.262 c 21.66,-11.09 56.539,-22.184 92.461,-22.184 32.769,0 48.609,11.094 48.609,29.051 0,17.43 -15.84,26.941 -55.996,40.672 -60.238,21.679 -100.399,54.429 -100.399,107.269 0,62.879 53.371,111.481 143.192,111.481 42.265,0 72.91,-7.93 96.152,-17.961 l -20.074,-76.621 c -15.32,6.871 -41.734,16.902 -77.141,16.902 -29.066,0 -44.898,-10.562 -44.898,-26.402 0,-17.969 19.008,-24.828 63.926,-41.75 63.925,-23.778 92.461,-57.578 92.461,-107.25 0,-61.289 -47.559,-113.61 -151.641,-113.61 -42.793,0 -84.531,11.11 -104.617,21.68 l 17.965,78.723" /><path
         id="path54"
         style="fill:#ffffff;fill-opacity:1;fill-rule:nonzero;stroke:none"
         d="m 1025.21,467.961 h -90.882 v 80.301 h 278.982 v -80.301 h -92.47 V 192.16 h -95.63 v 275.801" /><path
         id="path56"
         style="fill:#ffffff;fill-opacity:1;fill-rule:nonzero;stroke:none"
         d="M 1358.1,548.262 V 192.16 h -95.63 v 356.102 h 95.63" /><path
         id="path58"
         style="fill:#ffffff;fill-opacity:1;fill-rule:nonzero;stroke:none"
         d="m 1428.91,548.262 h 228.79 v -78.203 h -133.15 v -65.508 h 125.21 V 327.41 H 1524.55 V 192.16 h -95.64 v 356.102" /><path
         id="path60"
         style="fill:#ffffff;fill-opacity:1;fill-rule:nonzero;stroke:none"
         d="m 1791.41,467.961 h -90.88 v 80.301 h 278.98 v -80.301 h -92.46 V 192.16 h -95.64 v 275.801" /><path
         id="path62"
         style="fill:#ffffff;fill-opacity:1;fill-rule:nonzero;stroke:none"
         d="M 2252.17,335.859 H 2124.3 v -65.5 h 143.19 V 192.16 h -238.82 v 356.102 h 231.42 V 470.059 H 2124.3 V 413 h 127.87 v -77.141" /><path
         id="path64"
         style="fill:#ffffff;fill-opacity:1;fill-rule:nonzero;stroke:none"
         d="m 2325.64,548.262 h 95.63 V 271.941 h 136.85 V 192.16 h -232.48 v 356.102" /><path
         id="path66"
         style="fill:#ffffff;fill-opacity:1;fill-rule:nonzero;stroke:none"
         d="m 2616.28,287.262 c 21.66,-11.09 56.53,-22.184 92.46,-22.184 32.77,0 48.6,11.094 48.6,29.051 0,17.43 -15.83,26.941 -55.99,40.672 -60.24,21.679 -100.4,54.429 -100.4,107.269 0,62.879 53.37,111.481 143.19,111.481 42.27,0 72.91,-7.93 96.15,-17.961 l -20.06,-76.621 c -15.33,6.871 -41.74,16.902 -77.15,16.902 -29.06,0 -44.9,-10.562 -44.9,-26.402 0,-17.969 19.01,-24.828 63.93,-41.75 63.93,-23.778 92.46,-57.578 92.46,-107.25 0,-61.289 -47.56,-113.61 -151.64,-113.61 -42.8,0 -84.53,11.11 -104.61,21.68 l 17.96,78.723" /><path
         id="path68"
         style="fill:#ffffff;fill-opacity:1;fill-rule:nonzero;stroke:none"
         d="m 3135.15,335.859 h -127.87 v -65.5 h 143.19 V 192.16 h -238.82 v 356.102 h 231.42 V 470.059 H 3007.28 V 413 h 127.87 v -77.141" /><path
         id="path70"
         style="fill:#ffffff;fill-opacity:1;fill-rule:nonzero;stroke:none"
         d="m 3208.62,192.16 v 356.102 h 112.54 l 56.53,-109.371 c 19.55,-35.403 40.16,-82.942 56.01,-124.68 h 1.59 c -5.29,47.019 -7.4,96.68 -7.4,149.508 v 84.543 h 87.18 V 192.16 h -100.4 l -60.75,118.34 c -19.55,37.52 -42.8,85.59 -59.71,128.391 h -2.11 c 2.64,-48.082 3.7,-101.442 3.7,-159.032 V 192.16 h -87.18" /></g></g></svg>