<svg width="17" height="18" viewBox="0 0 17 18" fill="none" xmlns="http://www.w3.org/2000/svg">
<path d="M14.0001 0.00199893C14.4947 0.00208974 14.9817 0.124577 15.4175 0.358541C15.8534 0.592504 16.2245 0.930674 16.4979 1.3429C16.7714 1.75513 16.9385 2.22861 16.9845 2.72112C17.0306 3.21364 16.954 3.70989 16.7617 4.16563C16.5693 4.62137 16.2672 5.02244 15.8823 5.33308C15.4973 5.64373 15.0415 5.8543 14.5554 5.94601C14.0693 6.03773 13.5681 6.00775 13.0964 5.85874C12.6247 5.70973 12.1973 5.44632 11.8521 5.092L6.39509 8.212C6.53563 8.72827 6.53563 9.27273 6.39509 9.789L11.8531 12.908C12.3625 12.3857 13.0448 12.0671 13.7723 12.0118C14.4997 11.9566 15.2223 12.1685 15.8048 12.6078C16.3872 13.0472 16.7894 13.6838 16.9361 14.3984C17.0828 15.1131 16.9639 15.8567 16.6016 16.4899C16.2393 17.1232 15.6586 17.6026 14.9682 17.8384C14.2778 18.0741 13.5251 18.0501 12.8512 17.7707C12.1773 17.4913 11.6283 16.9757 11.3073 16.3206C10.9862 15.6655 10.915 14.9158 11.1071 14.212L5.65009 11.092C5.234 11.5191 4.69999 11.8125 4.11633 11.9345C3.53267 12.0566 2.92587 12.0018 2.37349 11.7772C1.82111 11.5527 1.34825 11.1685 1.01535 10.6737C0.682452 10.179 0.504639 9.59629 0.504639 9C0.504639 8.40371 0.682452 7.82097 1.01535 7.32626C1.34825 6.83155 1.82111 6.44735 2.37349 6.22276C2.92587 5.99818 3.53267 5.94342 4.11633 6.06548C4.69999 6.18754 5.234 6.48088 5.65009 6.908L11.1071 3.788C10.9859 3.34326 10.969 2.87657 11.0575 2.42421C11.146 1.97184 11.3377 1.54599 11.6175 1.17973C11.8974 0.81347 12.258 0.516679 12.6712 0.31242C13.0844 0.108161 13.5391 0.00193544 14.0001 0.00199893Z" fill="#F2F2F2"/>
</svg>
