<svg width="172" height="57" viewBox="0 0 172 57" fill="none" xmlns="http://www.w3.org/2000/svg">
<path d="M56.9815 15.7987L54.325 25.2295H49.9234L45.831 9.93529C45.7166 9.54287 45.5725 9.16182 45.4002 8.79617L44.419 6.65039V6.59741H52.1232V6.65039L51.2876 8.63723C51.2267 8.74267 51.1902 8.86314 51.1815 8.98793C51.1728 9.11272 51.1921 9.23795 51.2377 9.35249L54.6122 22.1565L56.6943 14.739L55.4259 9.93529C55.3471 9.57888 55.2348 9.2326 55.0908 8.90214L54.1335 6.65039V6.59741H61.7121V6.65039L60.8744 8.63723C60.8138 8.74286 60.7778 8.86342 60.7694 8.98821C60.7611 9.11299 60.7807 9.23813 60.8266 9.35249L64.215 22.1035L66.9911 11.9045C67.1108 11.4806 67.1108 11.4011 66.8715 10.9508L64.6876 6.65922V6.60624H70.5032V6.65922L67.9903 10.9508C67.7554 11.3089 67.5848 11.7136 67.4877 12.1429L63.9218 25.2295H59.5183L56.9815 15.7987Z" fill="#F9FBFF"/>
<path d="M73.0899 18.324C73.1856 21.4147 74.7412 22.4567 76.4803 22.4567C77.7726 22.4567 79.2564 21.8209 79.9983 20.4168L80.0442 20.4433C79.3761 23.8872 77.3658 25.4502 74.3982 25.4502C71.1673 25.4502 68.0561 23.4104 68.0561 18.6949C68.0561 13.8735 70.9041 11.8071 74.5896 11.8071C77.2461 11.8071 80.2117 13.0257 80.2117 17.7677C80.2144 17.9534 80.207 18.1392 80.1898 18.324H73.0899ZM73.0899 17.8207H75.7942C75.8182 17.3968 75.8182 16.9729 75.8182 16.6021C75.8182 12.8491 75.172 12.337 74.5019 12.337C73.5885 12.3281 73.0899 13.2818 73.0899 17.8118V17.8207Z" fill="#F9FBFF"/>
<path d="M85.6065 25.1676L86.9208 23.2603C86.9988 23.1696 87.0573 23.0605 87.0918 22.9412C87.1264 22.8219 87.1361 22.6955 87.1202 22.5715V9.25531C87.1361 9.13129 87.1264 9.0049 87.0918 8.88562C87.0573 8.76634 86.9988 8.65725 86.9208 8.56654L85.6065 6.65918V6.6062H94.1483C99.8681 6.6062 102.668 10.1383 102.668 15.4366C102.668 21.8386 99.222 25.2383 93.4782 25.2383H85.6065V25.1676ZM93.3845 24.6643C96.2563 24.6643 96.5914 21.1145 96.5914 15.8958C96.5914 10.7565 96.2563 7.15368 93.3845 7.15368H92.8819C92.5229 7.15368 92.483 7.18018 92.483 7.63052V24.1875C92.483 24.629 92.5309 24.6643 92.8819 24.6643H93.3845Z" fill="#F9FBFF"/>
<path d="M103.532 18.5801C103.532 14.0501 106.308 11.7983 110.398 11.7983C114.489 11.7983 117.265 13.9971 117.265 18.6596C117.265 23.1896 114.489 25.4414 110.396 25.4414C106.304 25.4414 103.532 23.2426 103.532 18.5801ZM108.891 18.5801C108.891 24.0109 109.441 24.9116 110.398 24.9116C111.356 24.9116 111.906 24.0903 111.906 18.6596C111.906 13.2289 111.356 12.3282 110.398 12.3282C109.441 12.3282 108.889 13.1494 108.889 18.5801H108.891Z" fill="#F9FBFF"/>
<path d="M131.794 23.8784L132.727 25.1765V25.2295H125.641V25.1677L126.551 23.8696C126.626 23.7827 126.684 23.6781 126.718 23.5635C126.753 23.4489 126.764 23.3272 126.75 23.2073C126.75 22.6775 126.822 19.3661 126.822 17.9885C126.822 16.0546 126.622 14.3327 125.123 14.3327C124.859 14.3298 124.598 14.3953 124.361 14.5242C124.124 14.653 123.918 14.8414 123.759 15.0744V23.2073C123.745 23.3272 123.756 23.4489 123.79 23.5635C123.825 23.6781 123.882 23.7827 123.958 23.8696L124.891 25.1677V25.2207H117.831V25.1677L118.741 23.8696C118.817 23.7827 118.874 23.6781 118.908 23.5635C118.943 23.4489 118.954 23.3272 118.94 23.2073V14.0501C118.954 13.9302 118.943 13.8085 118.908 13.6939C118.874 13.5793 118.817 13.4747 118.741 13.3878L117.831 12.0633V12.0103H123.766V14.6859C124.365 13.0699 125.633 11.7983 127.715 11.7983C130.308 11.7983 131.688 13.8912 131.688 17.5381C131.688 19.3661 131.64 21.1145 131.616 23.2073C131.599 23.3268 131.605 23.4491 131.636 23.5652C131.667 23.6814 131.721 23.7884 131.794 23.8784Z" fill="#F9FBFF"/>
<path d="M131.794 13.7587C132.751 13.2289 133.589 12.0103 133.589 10.6681C133.589 10.3502 133.493 10.2973 133.23 10.2443C132.248 10.0588 131.722 9.31709 131.722 8.31043C131.722 7.2243 132.464 6.3501 133.565 6.3501C134.761 6.3501 135.599 7.33026 135.599 8.86674C135.599 11.1715 134.043 13.2642 131.81 13.8206L131.794 13.7587Z" fill="#F9FBFF"/>
<path d="M136.012 21.4412V12.5667H134.911V12.0104H135.868C136.251 12.0104 136.419 12.0104 136.682 11.7454L140.798 7.45386H140.846V12.0104H143.527V12.5667H140.84V21.1233C140.84 22.3154 141.319 22.9777 142.037 22.9777C142.261 22.9796 142.482 22.9231 142.683 22.8126C142.883 22.7021 143.058 22.5409 143.191 22.3419L143.239 22.3684C143 23.8254 141.947 25.4414 139.434 25.4414C137.131 25.4414 136.012 24.0374 136.012 21.4412Z" fill="#F9FBFF"/>
<path d="M63.6346 46.8643C63.6192 46.9883 63.6291 47.1145 63.6636 47.2338C63.6981 47.353 63.7564 47.4621 63.834 47.5531L65.1503 49.4604V49.5134H56.774V49.4516L58.0903 47.5442C58.168 47.4532 58.2262 47.3441 58.2607 47.2249C58.2952 47.1057 58.3051 46.9795 58.2897 46.8554V40.2326H53.6548V46.8554C53.6394 46.9795 53.6493 47.1057 53.6838 47.2249C53.7184 47.3441 53.7766 47.4532 53.8543 47.5442L55.1705 49.4516V49.5046H46.7943V49.4516L48.1105 47.5442C48.1882 47.4532 48.2464 47.3441 48.281 47.2249C48.3155 47.1057 48.3254 46.9795 48.31 46.8554V33.539C48.3254 33.415 48.3155 33.2888 48.281 33.1696C48.2464 33.0504 48.1882 32.9412 48.1105 32.8503L46.7943 30.9429V30.8899H55.1705V30.9429L53.8443 32.8503C53.7666 32.9412 53.7084 33.0504 53.6739 33.1696C53.6394 33.2888 53.6294 33.415 53.6449 33.539V39.6851H58.2638V33.539C58.2792 33.415 58.2693 33.2888 58.2348 33.1696C58.2003 33.0504 58.142 32.9412 58.0644 32.8503L56.7481 30.9429V30.8899H65.1244V30.9429L63.8081 32.8503C63.7304 32.9412 63.6722 33.0504 63.6377 33.1696C63.6032 33.2888 63.5933 33.415 63.6087 33.539L63.6346 46.8643Z" fill="#F9FBFF"/>
<path d="M72.2263 39.5526V39.3937C72.2263 37.6982 71.8673 36.6121 70.9101 36.6121C70.5271 36.6121 70.4813 36.6386 70.3596 36.877L68.1359 41.1421H68.088L66.3649 37.1684C68.0539 36.4876 69.8329 36.1206 71.63 36.0823C73.3511 36.0823 74.7871 36.4267 75.7204 37.3803C76.5341 38.2016 76.9888 39.4732 76.9888 41.407C76.9888 41.7514 76.9649 42.0428 76.9649 42.1223L76.7655 46.1225C76.7176 47.1291 76.933 47.553 77.3159 47.553C77.4306 47.557 77.5443 47.5272 77.6452 47.4667C77.7461 47.4062 77.8307 47.3172 77.8903 47.2086H77.9382C77.975 47.5763 77.9052 47.9474 77.7387 48.2683C77.2601 49.169 76.3746 49.7253 75.0822 49.7253C73.5745 49.7253 72.2582 48.7981 72.1146 47.2969C71.8571 48.0285 71.4019 48.6542 70.8112 49.0888C70.2205 49.5234 69.523 49.7457 68.814 49.7253C67.0191 49.7253 65.4874 48.4007 65.4874 45.8575C65.4874 43.1819 67.5934 41.7779 69.5798 41.7779C70.7266 41.7779 71.5642 41.9633 72.1625 42.4402L72.2263 39.5526ZM69.9986 45.3012C69.9986 46.8112 70.5012 47.5265 71.1952 47.5265C71.3743 47.5138 71.5485 47.4574 71.7054 47.3612C71.8623 47.265 71.998 47.1314 72.1027 46.9702L72.1745 42.7316C71.9707 42.6774 71.7618 42.6507 71.5522 42.6521C70.575 42.6521 69.9986 43.7382 69.9986 45.3012Z" fill="#F9FBFF"/>
<path d="M81.7055 49.5131L78.9294 40.0027C78.714 39.2875 78.5704 38.8371 78.355 38.2543L77.6131 36.3469V36.2939H84.2423V36.3469L83.6201 38.0159C83.5713 38.1167 83.5419 38.2275 83.5337 38.3415C83.5255 38.4555 83.5386 38.5701 83.5722 38.6782L85.7022 46.4666L87.186 41.4598C87.3535 40.9034 87.3276 40.7975 87.1621 40.356L85.7261 36.3558V36.3028H90.0559V36.3558L88.261 40.144C88.0261 40.6017 87.826 41.0802 87.6627 41.5746L85.3193 49.522L81.7055 49.5131Z" fill="#F9FBFF"/>
<path d="M94.6289 42.6079C94.7246 45.6986 96.2782 46.7406 98.0193 46.7406C99.3116 46.7406 100.795 46.1048 101.537 44.7008L101.585 44.7273C100.915 48.1711 98.9048 49.7341 95.9392 49.7341C92.7083 49.7341 89.5971 47.6943 89.5971 42.9788C89.5971 38.1574 92.4451 36.0911 96.1306 36.0911C98.7851 36.0911 101.753 37.3097 101.753 42.0516C101.756 42.2374 101.748 42.4233 101.729 42.6079H94.6289ZM94.6289 42.1046H97.3332C97.3552 41.6807 97.3552 41.2569 97.3552 40.886C97.3552 37.1331 96.709 36.6209 96.0389 36.6209C95.1275 36.6121 94.6289 37.5658 94.6289 42.0958V42.1046Z" fill="#F9FBFF"/>
<path d="M117.506 47.3411L119.038 49.4604V49.5134H110.183V49.4516L111.715 47.3323C111.914 47.0674 111.93 47.0144 111.93 46.564V31.4462H111.356C110.973 31.4462 110.877 31.4992 110.709 31.8436L107.293 38.6784H107.243V30.8899H121.986V38.6784H121.938L118.515 31.8348C118.348 31.4904 118.252 31.4374 117.869 31.4374H117.295V46.5817C117.291 47.0232 117.315 47.0762 117.506 47.3411Z" fill="#F9FBFF"/>
<path d="M128.802 47.5001C128.789 47.62 128.799 47.7417 128.834 47.8563C128.868 47.9709 128.926 48.0755 129.002 48.1624L129.935 49.4604V49.5134H122.875V49.4516L123.784 48.1535C123.86 48.0667 123.918 47.9621 123.952 47.8475C123.987 47.7328 123.997 47.6111 123.984 47.4912V38.334C123.997 38.2141 123.987 38.0924 123.952 37.9778C123.918 37.8632 123.86 37.7586 123.784 37.6717L122.875 36.3472V36.2942H128.81L128.802 47.5001ZM124.159 32.9298C124.159 31.4727 125.212 30.625 126.385 30.625C127.606 30.625 128.611 31.4727 128.611 32.9298C128.611 34.3338 127.614 35.1374 126.385 35.1374C125.212 35.1286 124.159 34.3338 124.159 32.9298Z" fill="#F9FBFF"/>
<path d="M144.597 48.1624L145.531 49.4604V49.5134H138.447V49.4516L139.356 48.1535C139.432 48.0667 139.489 47.9621 139.524 47.8475C139.558 47.7328 139.569 47.6111 139.556 47.4912C139.556 46.9614 139.628 43.65 139.628 42.2724C139.628 40.3386 139.428 38.6166 137.928 38.6166C137.664 38.6137 137.404 38.6793 137.167 38.8081C136.93 38.9369 136.723 39.1254 136.564 39.3584V47.4912C136.551 47.6111 136.561 47.7328 136.596 47.8475C136.63 47.9621 136.688 48.0667 136.764 48.1535L137.697 49.4516V49.5046H130.627V49.4516L131.536 48.1535C131.612 48.0667 131.67 47.9621 131.704 47.8475C131.739 47.7328 131.749 47.6111 131.736 47.4912V38.334C131.749 38.2142 131.739 38.0924 131.704 37.9778C131.67 37.8632 131.612 37.7586 131.536 37.6718L130.627 36.3472V36.2942H136.562V38.9698C137.161 37.3539 138.429 36.0823 140.511 36.0823C142.354 36.0823 143.598 37.1684 144.149 39.1288C144.5 38.2275 145.081 37.4591 145.82 36.9179C146.56 36.3768 147.426 36.0864 148.313 36.0823C150.906 36.0823 152.286 38.1751 152.286 41.8221C152.286 43.65 152.238 45.3984 152.214 47.4912C152.2 47.6111 152.211 47.7328 152.246 47.8475C152.28 47.9621 152.338 48.0667 152.413 48.1535L153.347 49.4516V49.5046H146.249V49.4516L147.158 48.1535C147.234 48.0667 147.291 47.9621 147.326 47.8475C147.36 47.7328 147.371 47.6111 147.358 47.4912C147.358 46.9614 147.429 43.65 147.429 42.2724C147.429 40.3386 147.23 38.6166 145.73 38.6166C145.156 38.6166 144.605 39.014 144.223 39.4114C144.403 40.1992 144.491 41.0094 144.486 41.8221C144.486 43.65 144.438 45.3984 144.414 47.4912C144.397 47.6112 144.405 47.7338 144.437 47.85C144.468 47.9662 144.523 48.0729 144.597 48.1624Z" fill="#F9FBFF"/>
<path d="M158.789 42.6079C158.885 45.6986 160.441 46.7406 162.18 46.7406C163.472 46.7406 164.956 46.1048 165.698 44.7008L165.746 44.7273C165.076 48.1711 163.065 49.7341 160.098 49.7341C156.867 49.7341 153.756 47.6943 153.756 42.9788C153.756 38.1574 156.604 36.0911 160.289 36.0911C162.946 36.0911 165.913 37.3097 165.913 42.0516C165.916 42.2374 165.908 42.4233 165.889 42.6079H158.789ZM158.789 42.1046H161.494C161.518 41.6807 161.518 41.2569 161.518 40.886C161.518 37.1331 160.871 36.6209 160.201 36.6209C159.292 36.6121 158.789 37.5658 158.789 42.0958V42.1046Z" fill="#F9FBFF"/>
<path d="M169.846 45.1953C171.019 45.1953 172 46.096 172 47.5001C172 48.8511 171.019 49.7253 169.846 49.7253C168.673 49.7253 167.692 48.8423 167.692 47.5001C167.692 46.096 168.697 45.1953 169.846 45.1953Z" fill="#F9FBFF"/>
<path d="M12.5931 8.06982C13.7572 7.35006 14.9823 6.75853 16.2508 6.30373L14.2943 1.32555C14.0827 0.788651 13.6872 0.366776 13.1946 0.152734C12.702 -0.0613088 12.1528 -0.0499852 11.6677 0.184213C11.1827 0.418412 10.8016 0.856301 10.6082 1.40155C10.4149 1.9468 10.4251 2.55475 10.6367 3.09165L12.5931 8.06982Z" fill="#F9FBFF"/>
<path d="M34.5829 52.9836L32.6205 47.9878C31.4553 48.7066 30.2296 49.2981 28.9608 49.7539L30.9253 54.7497C31.1368 55.2866 31.5324 55.7084 32.025 55.9225C32.5176 56.1365 33.0668 56.1252 33.5518 55.891C34.0368 55.6568 34.418 55.2189 34.6113 54.6737C34.8047 54.1284 34.7945 53.5205 34.5829 52.9836Z" fill="#F9FBFF"/>
<path d="M22.6108 53.0544C19.2505 53.0539 15.9327 52.2244 12.8984 50.6264C9.8641 49.0284 7.18966 46.702 5.06953 43.8163C2.94941 40.9306 1.43688 37.5582 0.641941 33.9443C-0.153002 30.3304 -0.210385 26.5658 0.473965 22.9242C1.15832 19.2827 2.5672 15.8557 4.59817 12.8925C6.62914 9.92926 9.23115 7.50429 12.215 5.79388C15.1989 4.08347 18.4896 3.13062 21.8479 3.00461C25.2061 2.87859 28.5476 3.58258 31.6292 5.06539C31.8694 5.18135 32.0866 5.34854 32.2684 5.55741C32.4502 5.76628 32.593 6.01274 32.6888 6.28272C32.7845 6.5527 32.8313 6.84091 32.8264 7.1309C32.8215 7.42088 32.7651 7.70696 32.6603 7.97281C32.5556 8.23866 32.4045 8.47906 32.2158 8.68029C32.0271 8.88152 31.8045 9.03964 31.5606 9.14562C31.3167 9.25161 31.0563 9.30337 30.7943 9.29797C30.5324 9.29257 30.2739 9.23011 30.0338 9.11414C27.2001 7.75277 24.105 7.19303 21.0272 7.48533C17.9494 7.77763 14.9857 8.91278 12.4029 10.7886C9.82015 12.6643 7.69946 15.2218 6.23186 18.2306C4.76427 21.2395 3.99587 24.6052 3.99587 28.0245C3.99587 31.4439 4.76427 34.8096 6.23186 37.8184C7.69946 40.8272 9.82015 43.3847 12.4029 45.2605C14.9857 47.1363 17.9494 48.2714 21.0272 48.5637C24.105 48.856 27.2001 48.2963 30.0338 46.9349C30.274 46.8172 30.533 46.7531 30.7957 46.7465C31.0584 46.7399 31.3197 46.7908 31.5646 46.8963C31.8095 47.0018 32.0331 47.1599 32.2227 47.3614C32.4122 47.5629 32.5639 47.8039 32.669 48.0705C32.7741 48.3371 32.8306 48.624 32.8352 48.9149C32.8398 49.2057 32.7924 49.4947 32.6958 49.7652C32.5992 50.0357 32.4552 50.2824 32.2722 50.4912C32.0891 50.6999 31.8706 50.8665 31.6292 50.9815C28.7848 52.3548 25.714 53.0606 22.6108 53.0544Z" fill="#F9FBFF"/>
<path d="M22.6107 30.2319C22.0818 30.2319 21.5745 29.9993 21.2005 29.5853C20.8265 29.1713 20.6164 28.6098 20.6164 28.0244V17.386C20.6164 16.8006 20.8265 16.2391 21.2005 15.8251C21.5745 15.4111 22.0818 15.1785 22.6107 15.1785C23.1397 15.1785 23.6469 15.4111 24.021 15.8251C24.395 16.2391 24.6051 16.8006 24.6051 17.386V28.0244C24.6051 28.6098 24.395 29.1713 24.021 29.5853C23.6469 29.9993 23.1397 30.2319 22.6107 30.2319Z" fill="#F9FBFF"/>
<path d="M22.6108 30.2322C22.2222 30.2329 21.842 30.1078 21.5167 29.8725C21.1915 29.6372 20.9354 29.3019 20.78 28.9077L15.5189 15.5118C15.3073 14.9747 15.2972 14.3664 15.4907 13.821C15.6843 13.2755 16.0657 12.8375 16.551 12.6033C17.0362 12.3691 17.5857 12.3579 18.0785 12.5722C18.5712 12.7864 18.9669 13.2086 19.1785 13.7458L24.4396 27.1548C24.5441 27.4208 24.6001 27.7069 24.6047 27.9969C24.6092 28.2869 24.562 28.575 24.4659 28.8448C24.3698 29.1146 24.2266 29.3608 24.0444 29.5693C23.8623 29.7778 23.6449 29.9446 23.4045 30.06C23.1536 30.1776 22.8833 30.2363 22.6108 30.2322Z" fill="#F9FBFF"/>
</svg>
