<svg width="32" height="32" viewBox="0 0 32 32" fill="none" xmlns="http://www.w3.org/2000/svg">
<path d="M13.5889 20.8213L18.3862 24.4732" stroke="#FFFDFA" stroke-linecap="round"/>
<path d="M16.2422 27.1601L6.3536 19.4791L2.33381 19.4791" stroke="#FFFDFA" stroke-linecap="round"/>
<path d="M15.5361 18.2632L20.3335 21.9151" stroke="#FFFDFA" stroke-linecap="round"/>
<path d="M17.4834 15.7046L22.2807 19.3565" stroke="#FFFDFA" stroke-linecap="round"/>
<path d="M29.6665 11.0224L23.2362 11.0224L18.3308 6.99071C17.2706 6.1194 15.7223 6.19491 14.7519 7.16525L9.83006 12.0871L10.8993 13.1563C11.9406 14.1978 13.6291 14.1978 14.6705 13.1564L16.8043 11.0226L24.0391 16.707" stroke="#FFFDFA" stroke-linecap="round"/>
<path d="M2.33301 11.5869C2.05687 11.5869 1.83301 11.8108 1.83301 12.0869C1.83301 12.3631 2.05687 12.5869 2.33301 12.5869L2.33301 11.5869ZM10 12.5869L10.5 12.5869L10.5 11.5869L10 11.5869L10 12.5869ZM2.33301 12.5869L10 12.5869L10 11.5869L2.33301 11.5869L2.33301 12.5869Z" fill="#FFFDFA"/>
<path d="M24.4404 19.865H29.6645" stroke="#FFFDFA" stroke-linecap="round"/>
</svg>
