<svg width="20" height="20" viewBox="0 0 20 20" fill="none" xmlns="http://www.w3.org/2000/svg">
<path d="M10.465 16.5598L4.51997 12.0343L1.53152 12.0344" stroke="#FFFDFA" stroke-linecap="round"/>
<path d="M10 12.8335L12.0323 14.3876" stroke="#FFFDFA" stroke-linecap="round"/>
<path d="M11.6729 10.8613L13.7058 12.4155" stroke="#FFFDFA" stroke-linecap="round"/>
<path d="M18.3678 6.85614L14.7813 6.85623L11.1687 3.87406C10.5062 3.3272 9.53662 3.37344 8.9292 3.98087L5.81615 7.09391L6.82979 8.10746C7.48067 8.75829 8.53591 8.75826 9.18676 8.10741L10.4988 6.79535L15.2613 10.5632" stroke="#FFFDFA" stroke-linecap="round"/>
<path d="M1.53125 6.79224C1.25511 6.79224 1.03125 7.01609 1.03125 7.29224C1.03125 7.56838 1.25511 7.79224 1.53125 7.79224L1.53125 6.79224ZM5.81572 7.79224L6.31572 7.79224L6.31572 6.79224L5.81572 6.79224L5.81572 7.79224ZM1.53125 7.79224L5.81572 7.79224L5.81572 6.79224L1.53125 6.79224L1.53125 7.79224Z" fill="#FFFDFA"/>
<path d="M15.9756 12.8335H18.4661" stroke="#FFFDFA" stroke-linecap="round"/>
</svg>
