<svg width="24" height="24" viewBox="0 0 24 24" fill="none" xmlns="http://www.w3.org/2000/svg">
<path d="M10.5996 15.4705L14.1256 18.1546" stroke="#FFFDFA" stroke-linecap="round"/>
<path d="M12.5913 20.1693L5.03552 14.4177L1.23739 14.4178" stroke="#FFFDFA" stroke-linecap="round"/>
<path d="M12.1328 13.4556L15.6588 16.1397" stroke="#FFFDFA" stroke-linecap="round"/>
<path d="M13.666 11.4409L17.192 14.125" stroke="#FFFDFA" stroke-linecap="round"/>
<path d="M22.7613 7.75823L17.0641 7.75823L14.0388 5.16519C13.2453 4.48508 12.062 4.53054 11.323 5.26951L7.568 9.02452L8.0529 9.50942C8.83395 10.2905 10.1003 10.2905 10.8813 9.50942L12.6324 7.75834L18.3297 12.2348" stroke="#FFFDFA" stroke-linecap="round"/>
<path d="M1.2373 8.5C0.961162 8.5 0.737305 8.72386 0.737305 9C0.737305 9.27614 0.961162 9.5 1.2373 9.5L1.2373 8.5ZM7.56788 9.5L8.06788 9.5L8.06788 8.5L7.56788 8.5L7.56788 9.5ZM1.2373 9.5L7.56788 9.5L7.56788 8.5L1.2373 8.5L1.2373 9.5Z" fill="#FFFDFA"/>
<path d="M19.5957 14.7222H22.761" stroke="#FFFDFA" stroke-linecap="round"/>
</svg>
