<?xml version="1.0" encoding="UTF-8"?>
<!DOCTYPE svg PUBLIC "-//W3C//DTD SVG 1.1//EN" "http://www.w3.org/Graphics/SVG/1.1/DTD/svg11.dtd">
<svg xmlns="http://www.w3.org/2000/svg" version="1.1" width="1386px" height="344px" style="shape-rendering:geometricPrecision; text-rendering:geometricPrecision; image-rendering:optimizeQuality; fill-rule:evenodd; clip-rule:evenodd" xmlns:xlink="http://www.w3.org/1999/xlink">
<g><path style="opacity:0.886" fill="#fefffe" d="M 140.5,9.5 C 163.125,10.7904 184.125,17.2904 203.5,29C 207.849,33.0094 212.516,36.676 217.5,40C 218.517,41.0495 218.684,42.2161 218,43.5C 210.986,50.6813 203.819,57.6813 196.5,64.5C 167.929,40.7361 136.929,37.4028 103.5,54.5C 71.3808,77.9065 60.8808,108.906 72,147.5C 89.2188,185.278 118.719,201.278 160.5,195.5C 172.317,192.791 182.984,187.791 192.5,180.5C 194.5,177.833 196.833,175.5 199.5,173.5C 206.455,163.97 210.455,153.304 211.5,141.5C 188.498,141.667 165.498,141.5 142.5,141C 141.348,130.91 141.181,120.744 142,110.5C 142.5,110 143,109.5 143.5,109C 176.5,108.333 209.5,108.333 242.5,109C 251.561,155.53 236.228,191.53 196.5,217C 156.509,235.668 117.843,233.335 80.5,210C 36.0122,175.937 22.8455,132.103 41,78.5C 61.76,37.5681 94.9267,14.5681 140.5,9.5 Z"/></g>
<g><path style="opacity:0.888" fill="#fefffe" d="M 710.5,18.5 C 721.5,18.5 732.5,18.5 743.5,18.5C 743.5,87.1667 743.5,155.833 743.5,224.5C 732.5,224.5 721.5,224.5 710.5,224.5C 710.5,155.833 710.5,87.1667 710.5,18.5 Z"/></g>
<g><path style="opacity:0.892" fill="#fefffe" d="M 317.5,87.5 C 357.835,87.0486 383.335,106.049 394,144.5C 398.575,184.379 382.408,211.713 345.5,226.5C 312.736,234.939 285.903,225.939 265,199.5C 245.061,165.052 248.894,133.552 276.5,105C 287.722,95.586 300.722,90.2527 315.5,89C 316.416,88.7216 317.082,88.2216 317.5,87.5 Z M 314.5,118.5 C 346.093,116.928 361.927,131.928 362,163.5C 360.935,169.86 358.768,175.86 355.5,181.5C 338.64,202.523 319.306,204.857 297.5,188.5C 285.985,174.28 283.318,158.447 289.5,141C 291.807,136.716 294.473,132.716 297.5,129C 302.591,124.46 308.257,120.96 314.5,118.5 Z"/></g>
<g><path style="opacity:0.892" fill="#fefffe" d="M 468.5,87.5 C 515.456,87.9586 541.789,111.459 547.5,158C 546.464,184.5 534.964,205 513,219.5C 479.631,236.541 449.298,232.207 422,206.5C 400.017,176.877 398.85,146.544 418.5,115.5C 431.545,99.6046 448.211,90.2713 468.5,87.5 Z M 466.5,118.5 C 495.357,116.728 511.024,130.228 513.5,159C 511.834,182.837 499.167,196.337 475.5,199.5C 458.048,197.88 446.214,188.88 440,172.5C 433.787,146.596 442.62,128.596 466.5,118.5 Z"/></g>
<g><path style="opacity:0.895" fill="#fefffe" d="M 618.5,87.5 C 634.395,86.5857 648.229,91.2523 660,101.5C 659.979,97.9912 660.812,94.8245 662.5,92C 672.161,91.5002 681.828,91.3335 691.5,91.5C 691.667,139.501 691.5,187.501 691,235.5C 685.532,267.3 667.032,286.134 635.5,292C 602.746,293.92 578.579,280.42 563,251.5C 562.333,250.5 562.333,249.5 563,248.5C 571.532,244.235 580.198,240.235 589,236.5C 589.772,236.645 590.439,236.978 591,237.5C 600.396,256.615 615.563,264.115 636.5,260C 648.131,256.037 655.631,248.204 659,236.5C 660.203,229.196 660.537,221.863 660,214.5C 657.145,218.436 653.479,221.436 649,223.5C 622.434,233.652 598.6,228.985 577.5,209.5C 556.786,187.016 551.453,161.183 561.5,132C 570.2,112.197 584.533,98.5307 604.5,91C 608.773,89.9695 613.106,89.3028 617.5,89C 618.056,88.6174 618.389,88.1174 618.5,87.5 Z M 618.5,118.5 C 641.988,116.475 656.488,126.808 662,149.5C 664.585,166.495 659.752,180.828 647.5,192.5C 628.219,203.703 611.386,200.703 597,183.5C 585.297,162.812 587.464,143.812 603.5,126.5C 608.212,123.06 613.212,120.393 618.5,118.5 Z"/></g>
<g><path style="opacity:0.887" fill="#fefffe" d="M 815.5,87.5 C 851.863,87.8289 875.196,105.329 885.5,140C 884.561,142.32 882.895,143.987 880.5,145C 851.397,156.717 822.397,168.717 793.5,181C 808.927,201.21 827.594,204.543 849.5,191C 852.984,187.015 856.651,183.182 860.5,179.5C 867.964,185.142 875.631,190.476 883.5,195.5C 884.614,196.723 884.781,198.056 884,199.5C 860.179,228.448 830.679,236.281 795.5,223C 769.067,209.534 755.734,187.868 755.5,158C 757.268,118.596 777.268,95.0957 815.5,87.5 Z M 818.5,117.5 C 827.254,116.688 835.254,118.688 842.5,123.5C 844.358,125.524 846.025,127.691 847.5,130C 827.562,137.696 807.896,145.863 788.5,154.5C 788.868,140.918 794.535,130.418 805.5,123C 809.928,121.112 814.261,119.278 818.5,117.5 Z"/></g>
<g><path style="opacity:0.868" fill="#fefffe" d="M 1017.5,89.5 C 1055.56,87.432 1080.39,104.432 1092,140.5C 1097.89,166.677 1092.22,189.677 1075,209.5C 1054.87,227.768 1031.54,233.435 1005,226.5C 974.7,214.603 959.2,192.269 958.5,159.5C 959.352,126.224 975.019,103.724 1005.5,92C 1009.67,91.2946 1013.67,90.4613 1017.5,89.5 Z M 1021.5,114.5 C 1038.37,113.709 1051.37,120.209 1060.5,134C 1064.36,142.271 1066.7,150.938 1067.5,160C 1064.58,190.598 1047.92,204.932 1017.5,203C 1000.87,198.236 990.701,187.402 987,170.5C 983.724,153.822 987.39,139.155 998,126.5C 1004.6,119.982 1012.43,115.982 1021.5,114.5 Z"/></g>
<g><path style="opacity:0.868" fill="#fefffe" d="M 1248.5,89.5 C 1268.73,87.7589 1285.57,94.4256 1299,109.5C 1299.5,104.177 1299.67,98.8437 1299.5,93.5C 1308.5,93.5 1317.5,93.5 1326.5,93.5C 1326.67,138.168 1326.5,182.835 1326,227.5C 1316.09,270.706 1288.92,289.873 1244.5,285C 1225.86,280.847 1211.52,270.68 1201.5,254.5C 1199.76,251.657 1198.93,248.657 1199,245.5C 1206.39,242.275 1213.89,239.275 1221.5,236.5C 1222.17,236.833 1222.83,237.167 1223.5,237.5C 1228.1,248.604 1236.1,256.104 1247.5,260C 1279.76,264.402 1297.09,250.402 1299.5,218C 1299.33,215.167 1299.17,212.333 1299,209.5C 1282.5,227.401 1262.34,233.234 1238.5,227C 1208.82,214.274 1193.82,191.608 1193.5,159C 1194.35,121.732 1212.68,98.5652 1248.5,89.5 Z M 1255.5,114.5 C 1279.91,115.07 1294.41,127.404 1299,151.5C 1301.16,170.627 1294.99,186.294 1280.5,198.5C 1256.49,209.69 1237.99,204.023 1225,181.5C 1222.9,175.553 1221.24,169.553 1220,163.5C 1219.33,160.833 1219.33,158.167 1220,155.5C 1221.11,152.775 1221.94,149.941 1222.5,147C 1222.17,146.667 1221.83,146.333 1221.5,146C 1226.91,128.843 1238.24,118.343 1255.5,114.5 Z"/></g>
<g><path style="opacity:0.881" fill="#fefffe" d="M 1166.5,90.5 C 1175.45,89.9291 1184.12,90.9291 1192.5,93.5C 1191.38,100.446 1189.05,106.946 1185.5,113C 1184.77,114.766 1184.43,116.599 1184.5,118.5C 1160.93,113.356 1145.43,122.023 1138,144.5C 1137.5,171.165 1137.33,197.831 1137.5,224.5C 1128.83,224.5 1120.17,224.5 1111.5,224.5C 1111.5,180.833 1111.5,137.167 1111.5,93.5C 1119.83,93.5 1128.17,93.5 1136.5,93.5C 1136.17,99.2055 1136.5,104.872 1137.5,110.5C 1144.5,99.8162 1154.16,93.1495 1166.5,90.5 Z"/></g>
<g><path style="opacity:0.825" fill="#fefffe" d="M 916.5,188.5 C 931.106,186.779 939.773,193.113 942.5,207.5C 938.228,224.59 927.895,229.923 911.5,223.5C 900.752,214.345 899.752,204.178 908.5,193C 911.092,191.212 913.759,189.712 916.5,188.5 Z"/></g>
</svg>
