<svg width="171" height="22" viewBox="0 0 171 22" fill="none" xmlns="http://www.w3.org/2000/svg">
<g clip-path="url(#clip0_571_1806)">
<path d="M22.1171 8.8365C21.9599 8.06066 21.7163 7.30428 21.3905 6.58111C20.3587 4.27197 18.5523 2.38235 16.2741 1.22898C13.9959 0.0756213 11.3845 -0.271382 8.87741 0.246139C6.37037 0.76366 4.12013 2.11425 2.50388 4.07153C0.887636 6.0288 0.00361635 8.4738 9.28208e-08 10.9967C-0.000201036 12.5333 0.326462 14.0529 0.958937 15.4575C1.59141 16.8622 2.51567 18.1208 3.67214 19.1521C4.82862 20.1835 6.19165 20.9648 7.67341 21.4456C9.15517 21.9265 10.7228 22.0962 12.2752 21.944C13.8277 21.7917 15.3305 21.3207 16.6868 20.5615C18.0432 19.8022 19.223 18.7715 20.1502 17.5358C21.0775 16.3 21.7315 14.8866 22.0703 13.3867C22.4091 11.8867 22.425 10.3336 22.1171 8.82718V8.8365ZM15.5414 1.97049C15.9668 2.1707 16.3768 2.4012 16.7681 2.66015C16.8682 2.72273 16.9648 2.78797 17.0615 2.85986C17.1086 2.8898 17.1538 2.92271 17.1967 2.95838L17.3318 3.05691L17.3555 3.07355L17.6887 3.34582L17.9888 3.60211C18.647 4.19526 19.2249 4.86938 19.7083 5.60786H16.781C16.6016 4.73084 16.3452 3.87085 16.0145 3.0376L15.9469 2.86718L15.8543 2.65017C15.8111 2.54831 15.7644 2.45046 15.7192 2.35127C15.7179 2.33932 15.7179 2.32727 15.7192 2.31532L15.5495 1.98713V1.96716L15.5414 1.97049ZM16.3491 10.9947C16.3454 12.48 16.215 13.9624 15.9591 15.4262H11.6652V6.58178H15.9611C16.2159 8.04013 16.3463 9.51692 16.3511 10.9967L16.3491 10.9947ZM0.99964 11.4893V11.0167C0.990547 9.47947 1.34433 7.96123 2.03308 6.58178H5.36589C5.12291 8.04123 5.00107 9.51775 5.00158 10.9967C4.99596 12.4833 5.12466 13.9674 5.38616 15.4316H2.03308C1.41691 14.2027 1.06508 12.8617 0.99964 11.4926V11.4893ZM6.85892 20.0735C6.8201 20.0568 6.78219 20.0382 6.74538 20.0176H6.6913L6.51152 19.929L6.27834 19.8045C6.21545 19.7727 6.15431 19.7376 6.09517 19.6994H6.07895C6.04501 19.6851 6.01263 19.6675 5.9823 19.6468H5.95932C5.86266 19.5909 5.76939 19.5316 5.67612 19.473C4.87594 18.9697 4.15403 18.3549 3.53287 17.6477C3.49728 17.6126 3.46393 17.5765 3.43284 17.5392C3.35647 17.454 3.28617 17.3688 3.21588 17.2829L3.00906 17.0166C2.87388 16.8429 2.75222 16.6618 2.63259 16.4781H2.64949L2.63597 16.4494H5.64908C5.78899 17.0699 5.95594 17.667 6.14586 18.2355C6.36163 18.8957 6.62802 19.5389 6.94274 20.1594L6.88258 20.1301L6.85892 20.0735ZM10.6676 21.0101C10.035 20.9804 9.40668 20.8912 8.79129 20.7438H8.74466L8.51823 20.6813C8.1127 20.4676 7.23404 18.9019 6.62574 16.4141H10.6655L10.6676 21.0101ZM10.6676 15.4296H6.39256C6.14828 14.13 6.01668 12.8122 5.99919 11.4906V11.018C6.00121 9.53824 6.13054 8.06132 6.3858 6.60308H10.6655L10.6676 15.4296ZM2.60285 5.59655C2.77593 5.32913 2.96296 5.07071 3.16316 4.82234C3.23616 4.73047 3.31321 4.63861 3.38958 4.55007C3.41594 4.51745 3.44636 4.48749 3.4761 4.45487C3.50584 4.42226 3.55247 4.36634 3.59303 4.32173L3.78498 4.1147C3.86474 4.02949 3.95192 3.94428 4.04182 3.85841L4.14185 3.76654C4.18849 3.71728 4.2385 3.67135 4.28852 3.62541L4.38517 3.5402C4.4852 3.45167 4.58794 3.36646 4.68864 3.28391C4.73866 3.24131 4.79206 3.20203 4.84545 3.16275C5.135 2.92897 5.4413 2.71606 5.76196 2.52568C5.92214 2.4205 6.09517 2.32597 6.25198 2.23677C6.40878 2.14756 6.58519 2.06302 6.74875 1.9838C6.91232 1.90458 7.15429 1.80007 7.36179 1.71752C7.81812 1.53283 8.28839 1.38348 8.76831 1.27084C9.03281 1.20959 9.30317 1.157 9.57938 1.11307C9.77268 1.08045 9.96937 1.05715 10.1694 1.04117L10.4128 1.01787H11.8321C12.0624 1.0272 12.2917 1.05122 12.5188 1.08977L12.852 1.14236C13.189 1.1995 13.5226 1.27394 13.8517 1.36537C14.2518 1.63764 15.1683 3.12481 15.7246 5.6032L2.60285 5.59655ZM16.4809 19.5283C16.3944 19.5809 16.3079 19.6335 16.2146 19.6827C16.0118 19.8012 15.8091 19.9091 15.5982 20.0109C15.4779 20.0702 15.3549 20.1261 15.2318 20.178C15.1088 20.2299 14.9851 20.2799 14.8621 20.3291C14.7087 20.3884 14.5519 20.4476 14.389 20.4995C14.2261 20.5515 14.0754 20.6014 13.9125 20.644C13.7496 20.6866 13.5793 20.7292 13.4259 20.7651C13.2724 20.8011 13.069 20.8404 12.8926 20.8703C12.7162 20.9003 12.4871 20.9329 12.2762 20.9555C12.073 20.9843 11.8683 21.0019 11.6631 21.0081V16.4148H19.717C18.8911 17.6824 17.7848 18.7495 16.4809 19.5363V19.5283ZM21.3304 11.0014C21.336 12.5377 20.979 14.0544 20.2875 15.4316H16.9547C17.0115 15.1032 17.0615 14.775 17.1047 14.447C17.1284 14.2633 17.1446 14.0795 17.1649 13.8958C17.1852 13.7121 17.198 13.6169 17.2081 13.4758C17.2379 13.1735 17.2582 12.8653 17.2757 12.5631C17.2741 12.5467 17.2741 12.5302 17.2757 12.5138C17.3021 12.1497 17.3291 11.8215 17.3291 11.4926V11.02C17.3278 9.54077 17.2031 8.06416 16.956 6.60508H20.2888C20.9736 7.97148 21.3296 9.4749 21.329 10.9987L21.3304 11.0014Z" fill="white"/>
<path d="M39.4212 16.0845C38.7444 16.6262 37.8898 16.9054 37.0185 16.8694C36.473 16.8947 35.9286 16.8013 35.424 16.596C34.9193 16.3906 34.4668 16.0782 34.0986 15.6811C33.318 14.7148 32.9323 13.4961 33.0172 12.2641V9.55868C32.9391 8.3234 33.3239 7.10282 34.0986 6.12834C34.4611 5.72188 34.9117 5.40084 35.4171 5.18894C35.9225 4.97704 36.4697 4.8797 37.0185 4.90412C37.8562 4.85347 38.6844 5.10159 39.3516 5.60311C39.922 6.08261 40.3416 6.71235 40.5615 7.41846C40.5664 7.4231 40.5729 7.42569 40.5797 7.42569C40.5865 7.42569 40.5931 7.4231 40.598 7.41846L43.3279 5.99387C43.3326 5.98904 43.3352 5.9826 43.3352 5.9759C43.3352 5.9692 43.3326 5.96276 43.3279 5.95792C42.8204 4.7607 41.9709 3.73437 40.8825 3.00355C39.7115 2.3109 38.3612 1.96881 36.9962 2.01899C35.9405 2.01192 34.8947 2.21856 33.9236 2.6261C33.0101 3.01185 32.2012 3.60331 31.562 4.35292C30.8679 5.17936 30.355 6.13832 30.0554 7.16949C29.6881 8.41575 29.5118 9.70903 29.5323 11.0066C29.5098 12.2872 29.6862 13.5637 30.0554 14.7917C30.3575 15.7956 30.8708 16.7256 31.562 17.5211C32.2078 18.2424 33.0155 18.8054 33.9209 19.1654C34.907 19.5446 35.9585 19.7318 37.0171 19.7166C38.4004 19.7658 39.7655 19.3939 40.9264 18.6515C42.0038 17.8945 42.8651 16.8771 43.4272 15.6971C43.4313 15.6919 43.4335 15.6856 43.4335 15.6791C43.4335 15.6726 43.4313 15.6663 43.4272 15.6611L40.8149 14.1414C40.81 14.1367 40.8035 14.1341 40.7967 14.1341C40.7899 14.1341 40.7833 14.1367 40.7784 14.1414C40.5102 14.8805 40.0508 15.5379 39.4456 16.0486" fill="white"/>
<path d="M48.9668 2.32397H45.7807V19.4364H48.9668V2.32397Z" fill="white"/>
<path d="M55.9258 6.64429H52.743V19.4337H55.9258V6.64429Z" fill="white"/>
<path d="M74.2836 6.34534C73.3577 6.31031 72.4452 6.57294 71.6841 7.09359C71.0366 7.53969 70.5527 8.17995 70.3047 8.91893C70.1951 8.64011 70.0531 8.37472 69.8816 8.12808C69.6204 7.67221 69.2552 7.28231 68.815 6.98907C68.303 6.66022 67.7194 6.45495 67.1118 6.38994C67.1032 6.387 67.0939 6.387 67.0854 6.38994C66.8781 6.35809 66.6686 6.34273 66.4588 6.34401C66.132 6.34367 65.8063 6.38234 65.4889 6.45918C65.3889 6.47915 65.2862 6.50844 65.1956 6.5344L64.9192 6.63625C64.0676 6.97288 63.3542 7.5793 62.8915 8.35974V6.64357H59.7087V19.4463H62.8915V10.9773C62.8823 10.6668 62.9547 10.3593 63.1017 10.0846C63.2392 9.83561 63.4291 9.61842 63.6586 9.44749C63.8906 9.27394 64.151 9.14066 64.4285 9.0534C64.7144 8.96545 65.0123 8.92056 65.3119 8.92026C66.7051 8.92026 67.4006 9.83493 67.3983 11.6643V19.433H70.5845V10.9786C70.5778 10.6693 70.6474 10.363 70.7872 10.0859C70.917 9.83647 71.1017 9.61879 71.328 9.44883C71.5583 9.27463 71.8176 9.14127 72.0944 9.05473C72.3903 8.96532 72.6981 8.92043 73.0075 8.92159C74.4008 8.92159 75.0963 9.83626 75.094 11.6656V19.433H78.2802V11.3481C78.3653 10.0348 78.0015 8.7313 77.2467 7.64545C76.8968 7.21106 76.4465 6.8653 75.9335 6.63696C75.4204 6.40861 74.8594 6.3043 74.2971 6.33269" fill="white"/>
<path d="M99.1766 3.14136H96.3203V6.63095H94.0804V9.15261H95.9864V16.1831C95.9579 16.6202 96.019 17.0584 96.1661 17.4718C96.3132 17.8851 96.5434 18.265 96.8428 18.5889C97.1807 18.8878 97.5763 19.1165 98.006 19.2614C98.4356 19.4063 98.8906 19.4645 99.3436 19.4323H101.653V16.9087H99.8066C99.6431 16.9087 99.4863 16.8447 99.3707 16.7308C99.2551 16.617 99.1901 16.4626 99.1901 16.3015V9.16859H101.857V6.6436H99.1901L99.1766 3.14136Z" fill="white"/>
<path d="M115.74 13.8231V12.802C115.746 11.9606 115.624 11.1231 115.38 10.3169C115.156 9.57215 114.789 8.87674 114.298 8.26855C113.801 7.66987 113.17 7.19161 112.455 6.87058C111.625 6.51096 110.726 6.33507 109.819 6.35533C108.949 6.34235 108.086 6.50549 107.283 6.83463C106.556 7.138 105.909 7.59931 105.39 8.184C104.857 8.79677 104.454 9.50902 104.207 10.2783C103.923 11.1657 103.785 12.092 103.797 13.0223C103.783 13.9654 103.925 14.9045 104.217 15.8029C104.471 16.5791 104.882 17.2962 105.427 17.9105C105.955 18.4959 106.61 18.957 107.343 19.2599C108.158 19.5902 109.034 19.7533 109.916 19.7392C111.016 19.761 112.108 19.547 113.115 19.1121C113.985 18.7345 114.736 18.1349 115.292 17.3753L113.572 15.4847C113.196 15.9709 112.739 16.3915 112.221 16.7289C111.629 17.0724 110.95 17.2401 110.264 17.2115C109.833 17.2435 109.4 17.1854 108.993 17.0412C108.587 16.897 108.216 16.6699 107.904 16.3748C107.354 15.7627 107.068 14.9629 107.108 14.146V13.8178L115.74 13.8231ZM107.108 11.6896C107.07 10.9001 107.335 10.1257 107.851 9.52006C108.101 9.2445 108.41 9.02688 108.756 8.88279C109.102 8.7387 109.476 8.67171 109.851 8.68661C110.215 8.66512 110.579 8.72953 110.913 8.87449C111.247 9.01945 111.541 9.24076 111.77 9.52006C112.235 10.1384 112.47 10.895 112.437 11.6636V11.8833H107.104L107.108 11.6896Z" fill="white"/>
<path d="M124.977 10.6585L123.46 16.3442H123.384L121.841 10.6585L119.181 2.33057H115.821L121.499 19.433H125.228L130.899 2.33057H127.642L124.977 10.6585Z" fill="white"/>
<path d="M150.277 13.8233V12.8021C150.281 11.9609 150.159 11.1236 149.916 10.3171C149.69 9.57344 149.323 8.87852 148.835 8.26873C148.335 7.6652 147.701 7.18338 146.982 6.86078C146.151 6.50137 145.25 6.3255 144.342 6.34553C143.472 6.33374 142.609 6.49683 141.806 6.82484C141.08 7.1286 140.433 7.58986 139.913 8.17421C139.38 8.78636 138.978 9.49887 138.733 10.2685C138.449 11.1559 138.311 12.0822 138.323 13.0125C138.309 13.9556 138.451 14.8947 138.743 15.7931C139.004 16.5714 139.425 17.2887 139.979 17.9007C140.506 18.486 141.159 18.9471 141.891 19.2501C142.708 19.5811 143.585 19.7443 144.468 19.7294C145.56 19.7484 146.644 19.5345 147.645 19.1023C148.515 18.7258 149.267 18.126 149.821 17.3655L148.104 15.4749C147.727 15.9621 147.268 16.3828 146.748 16.7191C146.158 17.0627 145.479 17.2303 144.794 17.2017C144.363 17.2343 143.928 17.1767 143.521 17.0324C143.113 16.8882 142.741 16.6608 142.429 16.365C141.883 15.7506 141.601 14.9515 141.642 14.1362V13.808L150.277 13.8233ZM141.647 11.6898C141.611 10.9016 141.875 10.1285 142.388 9.52225C142.638 9.24672 142.947 9.02892 143.293 8.88431C143.639 8.73969 144.013 8.6718 144.388 8.68546C144.754 8.6629 145.119 8.72678 145.454 8.87178C145.789 9.01677 146.084 9.23867 146.314 9.51892C146.779 10.1373 147.014 10.8939 146.981 11.6625V11.8821H141.648L141.647 11.6898Z" fill="white"/>
<path d="M167.833 6.64429L166.544 11.9126L165.521 16.2982H165.424L164.201 11.9126L162.637 6.64429H159.751L158.234 11.9126L157.042 16.2982H156.942L155.922 11.9126L154.602 6.64429H151.539L155.121 19.4337H158.504L160.144 13.7972L161.094 10.3176H161.167L162.14 13.7972L163.807 19.4337H167.236L170.999 6.64429H167.833Z" fill="white"/>
<path d="M92.1575 16.9088C91.9808 16.9088 91.8112 16.8396 91.6863 16.7165C91.5613 16.5934 91.4911 16.4265 91.4911 16.2524V10.8982C91.5309 10.2704 91.4287 9.64167 91.1918 9.05753C90.9548 8.47338 90.5891 7.94837 90.121 7.52041C88.9774 6.66284 87.5556 6.24513 86.1218 6.34546C85.025 6.29743 83.9345 6.5329 82.9586 7.02846C82.1814 7.46079 81.5236 8.07401 81.0425 8.81453L82.5166 10.126L82.9465 10.5034C83.1315 10.2427 83.345 10.0027 83.5832 9.78778C83.744 9.63143 83.9178 9.48869 84.1029 9.36107C84.6361 9.01265 85.2668 8.838 85.9062 8.8618C86.2373 8.83125 86.5713 8.86764 86.8877 8.96871C87.204 9.06979 87.4961 9.23343 87.746 9.44961C87.95 9.67777 88.1059 9.94353 88.2049 10.2315C88.3039 10.5194 88.3438 10.8239 88.3225 11.1272V12.0591H86.1063C84.6728 11.9729 83.2458 12.3089 82.007 13.0244C81.5299 13.3543 81.1464 13.7989 80.8933 14.3161C80.6401 14.8333 80.5255 15.4057 80.5606 15.9788C80.5372 16.4824 80.6198 16.9854 80.8034 17.456C80.9869 17.9267 81.2674 18.3548 81.6271 18.7135C81.775 18.8596 81.9394 18.9884 82.1172 19.0976C82.5605 19.377 83.0574 19.5635 83.5771 19.6454C83.6339 19.6454 83.694 19.6687 83.7569 19.6747C84.0494 19.7278 84.3462 19.7541 84.6436 19.7533C84.8902 19.754 85.1365 19.7364 85.3804 19.7007H85.427C86.0387 19.6387 86.628 19.4399 87.1498 19.1195L87.21 19.0736C87.8016 18.7418 88.3187 18.2952 88.7301 17.7609C88.8484 18.1761 89.0708 18.5554 89.3769 18.8639C89.5987 19.0702 89.861 19.2297 90.1476 19.3327C90.4341 19.4357 90.7391 19.4801 91.0436 19.463H92.8131V16.9088H92.1575ZM88.3212 15.6253C88.3335 15.8968 88.2709 16.1665 88.14 16.4058C88.0091 16.6451 87.8147 16.8449 87.5777 16.984C87.0287 17.307 86.3974 17.4687 85.7582 17.45C85.2441 17.4816 84.7334 17.3492 84.3016 17.0725C84.1278 16.9344 83.9906 16.7568 83.9018 16.5549C83.813 16.353 83.7754 16.1329 83.792 15.9135V15.5035C83.792 14.4663 84.6209 13.9466 86.2786 13.9444H88.3218L88.3212 15.6253Z" fill="white"/>
<path d="M54.326 2.09766C53.9282 2.09785 53.5428 2.23387 53.2354 2.48254C52.928 2.73121 52.7177 3.07716 52.6402 3.46144C52.5628 3.84572 52.623 4.24456 52.8106 4.59001C52.9983 4.93547 53.3017 5.20617 53.6692 5.356C54.0368 5.50582 54.4457 5.52551 54.8263 5.4117C55.2069 5.29788 55.5357 5.05762 55.7566 4.73183C55.9776 4.40604 56.077 4.01488 56.038 3.625C55.9989 3.23511 55.8238 2.87061 55.5426 2.5936C55.2197 2.27616 54.7822 2.0978 54.326 2.09766Z" fill="white"/>
<path d="M135.675 6.64429H132.488V19.4337H135.675V6.64429Z" fill="white"/>
<path d="M134.092 2.09766C133.694 2.09785 133.309 2.23387 133.001 2.48254C132.694 2.73121 132.483 3.07716 132.406 3.46144C132.329 3.84572 132.389 4.24456 132.576 4.59001C132.764 4.93547 133.067 5.20617 133.435 5.356C133.803 5.50582 134.211 5.52551 134.592 5.4117C134.973 5.29788 135.301 5.05762 135.522 4.73183C135.743 4.40604 135.843 4.01488 135.804 3.625C135.765 3.23511 135.59 2.87061 135.308 2.5936C134.985 2.27616 134.548 2.0978 134.092 2.09766Z" fill="white"/>
</g>
<defs>
<clipPath id="clip0_571_1806">
<rect width="171" height="22" fill="white"/>
</clipPath>
</defs>
</svg>
