<?xml version="1.0" standalone="no"?>
<!DOCTYPE svg PUBLIC "-//W3C//DTD SVG 20010904//EN"
 "http://www.w3.org/TR/2001/REC-SVG-20010904/DTD/svg10.dtd">
<svg version="1.0" xmlns="http://www.w3.org/2000/svg"
 width="1280.000000pt" height="236.000000pt" viewBox="0 0 1280.000000 236.000000"
 preserveAspectRatio="xMidYMid meet">

<g transform="translate(0.000000,236.000000) scale(0.100000,-0.100000)"
fill="#fff" stroke="none">
<path d="M4090 2334 c-102 -21 -219 -84 -278 -149 -217 -237 -156 -648 117
-794 95 -50 194 -71 341 -71 205 0 342 46 448 151 120 120 167 302 127 492
-40 189 -187 329 -390 372 -88 18 -278 18 -365 -1z m321 -241 c50 -22 101 -76
126 -131 23 -53 24 -193 0 -254 -49 -127 -215 -190 -378 -142 -71 21 -139 89
-160 160 -31 108 -7 247 54 312 25 27 87 61 132 73 50 13 178 3 226 -18z"/>
<path d="M0 1835 l0 -495 435 0 c341 0 435 3 435 13 1 6 7 56 14 110 l12 97
-303 0 -303 0 0 85 0 85 270 0 270 0 0 110 0 110 -270 0 -270 0 0 80 0 80 285
0 285 0 0 110 0 110 -430 0 -430 0 0 -495z"/>
<path d="M1074 2317 c-2 -7 -3 -58 -2 -113 l3 -99 110 -6 c134 -7 186 -29 264
-115 57 -62 83 -108 130 -229 62 -160 168 -282 304 -348 99 -48 192 -67 331
-67 l116 0 0 114 0 114 -122 4 c-114 3 -127 5 -177 33 -85 47 -136 115 -184
248 -41 113 -95 197 -186 288 -138 138 -266 188 -479 189 -76 0 -104 -3 -108
-13z"/>
<path d="M2560 1835 l0 -495 140 0 140 0 0 154 0 154 183 4 c235 6 293 22 377
106 68 69 85 119 84 242 -2 185 -99 286 -306 320 -35 5 -188 10 -340 10 l-278
0 0 -495z m562 265 c52 -15 78 -51 78 -111 0 -98 -60 -129 -255 -129 l-105 0
0 125 0 125 123 0 c67 0 139 -5 159 -10z"/>
<path d="M5100 1835 l0 -495 135 0 135 0 0 295 c0 162 3 295 8 295 4 0 117
-133 252 -295 l245 -295 127 0 128 0 0 495 0 495 -135 0 -135 0 0 -295 c0
-162 -3 -295 -7 -295 -5 0 -118 133 -253 295 l-245 295 -127 0 -128 0 0 -495z"/>
<path d="M6430 1835 l0 -495 434 0 433 0 7 68 c4 37 10 86 13 109 l6 43 -304
2 -304 3 -3 83 -3 82 276 0 275 0 0 110 0 110 -272 2 -273 3 0 75 0 75 288 3
287 2 0 110 0 110 -430 0 -430 0 0 -495z"/>
<path d="M7560 1835 l0 -495 140 0 140 0 2 296 3 296 245 -294 246 -293 132
-3 132 -3 0 496 0 495 -140 0 -140 0 -2 -297 -3 -298 -248 298 -249 297 -129
0 -129 0 0 -495z"/>
<path d="M8800 2210 l0 -120 183 -2 182 -3 2 -370 2 -370 143 0 143 0 3 373 2
372 180 0 180 0 0 120 0 120 -510 0 -510 0 0 -120z"/>
<path d="M10020 1835 l0 -495 145 0 145 0 0 495 0 495 -145 0 -145 0 0 -495z"/>
<path d="M10927 2298 c-8 -18 -99 -226 -202 -463 -103 -236 -194 -445 -201
-462 l-14 -33 147 0 148 0 35 90 35 90 230 0 230 0 34 -86 c18 -47 39 -88 45
-90 7 -3 76 -3 153 -2 l142 3 -214 490 -213 490 -171 3 -171 2 -13 -32z m252
-378 c33 -85 61 -161 61 -167 0 -10 -34 -13 -135 -13 -83 0 -135 4 -135 10 0
23 133 341 140 333 4 -4 35 -78 69 -163z"/>
<path d="M11910 1835 l0 -495 413 2 412 3 12 90 c6 50 12 102 12 118 l1 27
-280 0 -280 0 0 375 0 375 -145 0 -145 0 0 -495z"/>
<path d="M1534 1021 c-262 -64 -406 -260 -391 -531 17 -305 227 -481 577 -482
326 -1 530 139 586 402 27 127 3 287 -59 393 -61 103 -196 192 -336 222 -98
20 -285 19 -377 -4z m328 -235 c100 -43 151 -131 151 -261 0 -180 -104 -285
-283 -285 -126 0 -230 62 -267 158 -27 71 -25 203 6 264 28 59 91 114 151 133
56 19 190 13 242 -9z"/>
<path d="M0 526 l0 -496 140 0 140 0 0 165 0 165 113 0 113 0 97 -165 98 -165
156 0 c120 0 154 3 150 13 -2 6 -55 92 -116 190 -61 98 -111 182 -111 187 0 4
13 13 30 20 50 21 107 92 126 156 19 68 15 169 -11 230 -20 49 -78 109 -130
136 -90 47 -123 51 -467 55 l-328 5 0 -496z m616 262 c38 -21 59 -66 51 -114
-13 -79 -52 -94 -242 -94 l-145 0 0 116 0 116 153 -4 c117 -3 159 -8 183 -20z"/>
<path d="M2612 533 c-117 -269 -212 -491 -212 -495 0 -5 65 -8 144 -8 l144 0
35 87 35 88 230 3 229 2 38 -90 38 -90 149 0 c139 0 150 1 144 18 -4 9 -100
232 -214 494 l-207 478 -171 0 -170 0 -212 -487z m445 89 c34 -86 65 -165 69
-174 6 -17 -5 -18 -136 -18 -131 0 -142 1 -136 18 35 94 132 332 136 332 3 0
33 -71 67 -158z"/>
<path d="M3790 525 l0 -497 313 4 c344 5 385 11 519 79 172 87 259 276 230
497 -21 159 -100 274 -234 340 -119 58 -161 64 -510 69 l-318 5 0 -497z m543
255 c156 -23 227 -104 227 -259 0 -81 -32 -156 -82 -194 -60 -46 -112 -59
-260 -64 l-138 -6 0 267 0 266 93 0 c50 0 123 -5 160 -10z"/>
<path d="M5100 525 l0 -495 130 0 130 0 2 280 3 279 125 -279 124 -280 108 0
c59 0 108 1 108 3 0 2 56 129 125 283 l125 279 0 -282 0 -283 135 0 135 0 0
495 0 495 -162 -2 -161 -3 -147 -328 c-81 -180 -149 -330 -152 -332 -2 -2 -48
96 -103 218 -54 122 -122 273 -151 335 l-53 112 -160 0 -161 0 0 -495z"/>
<path d="M6976 1012 c-4 -7 -411 -938 -423 -970 -4 -10 26 -12 143 -10 l148 3
35 88 35 87 230 -2 230 -3 35 -87 36 -88 152 0 152 0 -75 173 c-42 94 -138
317 -216 495 l-140 322 -169 0 c-92 0 -170 -4 -173 -8z m243 -410 c34 -84 61
-157 61 -162 0 -6 -53 -10 -135 -10 -103 0 -135 3 -135 13 0 7 25 76 56 152
31 77 61 151 66 165 12 32 10 35 87 -158z"/>
<path d="M7950 525 l0 -495 140 0 140 0 0 155 0 155 158 0 c217 0 319 27 400
104 69 64 101 180 83 295 -26 161 -121 244 -309 271 -37 5 -190 10 -339 10
l-273 0 0 -495z m578 255 c46 -21 62 -48 62 -108 0 -87 -51 -114 -227 -120
l-133 -5 0 127 0 126 128 0 c104 0 135 -4 170 -20z"/>
<path d="M9270 235 l0 -215 50 0 50 0 0 215 0 215 -50 0 -50 0 0 -215z"/>
<path d="M9470 235 l0 -215 45 0 45 0 0 145 c0 80 3 145 8 145 4 -1 60 -66
125 -145 l119 -145 44 0 44 0 0 215 0 215 -45 0 -44 0 -3 -147 -3 -148 -123
148 -122 147 -45 0 -45 0 0 -215z"/>
<path d="M10010 235 l0 -215 45 0 45 0 0 215 0 215 -45 0 -45 0 0 -215z"/>
<path d="M10160 410 l0 -40 85 0 85 0 0 -175 0 -175 50 0 50 0 0 175 0 175 80
0 80 0 0 40 0 40 -215 0 -215 0 0 -40z"/>
<path d="M10654 437 c-2 -7 -3 -102 -2 -212 l3 -200 48 -3 47 -3 0 215 0 216
-45 0 c-28 0 -48 -5 -51 -13z"/>
<path d="M10968 363 c-22 -49 -67 -145 -99 -215 l-58 -128 50 0 50 0 21 50 21
50 107 0 108 0 21 -50 22 -50 50 0 c37 0 50 3 46 13 -3 6 -47 103 -98 215
l-92 202 -54 0 -54 0 -41 -87z m131 -84 c17 -40 31 -76 31 -80 0 -5 -31 -9
-70 -9 -38 0 -70 3 -70 8 0 14 64 152 70 152 4 0 21 -32 39 -71z"/>
<path d="M11250 410 l0 -40 85 0 85 0 0 -175 0 -175 45 0 45 0 0 175 0 175 85
0 85 0 0 40 0 40 -215 0 -215 0 0 -40z"/>
<path d="M11740 235 l0 -215 50 0 50 0 0 215 0 215 -50 0 -50 0 0 -215z"/>
<path d="M11926 368 c20 -46 61 -143 92 -215 l56 -133 56 0 57 0 89 207 c49
114 91 211 93 216 1 4 -21 7 -50 5 l-54 -3 -66 -163 c-76 -187 -58 -190 -141
18 -27 69 -52 131 -55 138 -3 7 -25 12 -59 12 l-53 0 35 -82z"/>
<path d="M12425 437 c-3 -7 -4 -102 -3 -212 l3 -200 183 -3 c169 -2 182 -1
182 15 0 10 3 28 6 41 l6 22 -141 0 -141 0 0 50 0 50 125 0 125 0 0 40 0 40
-125 0 -125 0 0 45 0 44 133 3 132 3 0 35 0 35 -178 3 c-138 2 -179 0 -182
-11z"/>
</g>
</svg>
