<?xml version="1.0" encoding="UTF-8"?>
<!DOCTYPE svg PUBLIC "-//W3C//DTD SVG 1.1//EN" "http://www.w3.org/Graphics/SVG/1.1/DTD/svg11.dtd">
<svg xmlns="http://www.w3.org/2000/svg" version="1.1" width="536px" height="257px"
  style="shape-rendering:geometricPrecision; text-rendering:geometricPrecision; image-rendering:optimizeQuality; fill-rule:evenodd; clip-rule:evenodd"
  xmlns:xlink="http://www.w3.org/1999/xlink">
  <g>
    <path style="opacity:0.944" fill="#fefffe"
      d="M 495.5,52.5 C 494.609,51.8902 493.609,51.5569 492.5,51.5C 490.459,48.0783 488.625,44.0783 487,39.5C 485.167,28 490,23.1667 501.5,25C 507.798,29.7062 508.965,35.5396 505,42.5C 501.508,45.8174 498.341,49.1508 495.5,52.5 Z" />
  </g>
  <g>
    <path style="opacity:0.843" fill="#fefffe"
      d="M 429.5,51.5 C 432.167,51.5 434.833,51.5 437.5,51.5C 437.5,52.5 437.5,53.5 437.5,54.5C 432.658,52.5906 429.991,54.2572 429.5,59.5C 429.991,64.7428 432.658,66.4094 437.5,64.5C 437.5,65.5 437.5,66.5 437.5,67.5C 427.726,69.2261 423.893,65.2261 426,55.5C 426.69,53.6498 427.856,52.3164 429.5,51.5 Z" />
  </g>
  <g>
    <path style="opacity:0.831" fill="#fefffe"
      d="M 442.5,51.5 C 452.639,50.4397 456.139,54.773 453,64.5C 442.425,70.8321 437.759,67.8321 439,55.5C 439.69,53.6498 440.856,52.3164 442.5,51.5 Z M 445.5,53.5 C 448.766,54.1138 450.099,56.1138 449.5,59.5C 450.048,62.553 448.882,64.553 446,65.5C 441.523,61.653 441.357,57.653 445.5,53.5 Z" />
  </g>
  <g>
    <path style="opacity:0.721" fill="#fffefe"
      d="M 492.5,51.5 C 493.609,51.5569 494.609,51.8902 495.5,52.5C 495.938,52.4346 496.272,52.6012 496.5,53C 491.168,58.3185 490.335,64.1518 494,70.5C 494.667,75.5 494.667,80.5 494,85.5C 492.989,86.3366 491.822,86.67 490.5,86.5C 490.666,81.4889 490.499,76.4889 490,71.5C 486.263,64.3024 487.096,57.6357 492.5,51.5 Z" />
  </g>
  <g>
    <path style="opacity:0.817" fill="#fefffe"
      d="M 455.5,61.5 C 463.136,61.1665 464.469,63.9998 459.5,70C 460.938,70.2189 462.271,70.7189 463.5,71.5C 460.914,72.48 458.247,72.8134 455.5,72.5C 455.933,69.7147 457.266,67.3813 459.5,65.5C 458.895,63.5188 457.895,63.1854 456.5,64.5C 455.614,63.675 455.281,62.675 455.5,61.5 Z" />
  </g>
  <g>
    <path style="opacity:0.735" fill="#fefffe"
      d="M 274.5,73.5 C 302.321,73.1659 329.987,74.9992 357.5,79C 388.603,83.6165 412.436,99.1165 429,125.5C 435.671,110.15 439.837,94.1501 441.5,77.5C 442.833,77.5 444.167,77.5 445.5,77.5C 443.88,95.8148 439.213,113.315 431.5,130C 439.333,147.001 444,164.834 445.5,183.5C 444.167,183.5 442.833,183.5 441.5,183.5C 440.057,166.781 435.89,150.781 429,135.5C 411.657,161.942 387.157,177.442 355.5,182C 328.641,185.908 301.641,187.408 274.5,186.5C 274.5,185.167 274.5,183.833 274.5,182.5C 303.045,183.708 331.378,181.875 359.5,177C 389.202,171.839 411.535,156.339 426.5,130.5C 412.015,105.212 390.348,89.7123 361.5,84C 332.73,78.9708 303.73,76.8042 274.5,77.5C 274.5,76.1667 274.5,74.8333 274.5,73.5 Z" />
  </g>
  <g>
    <path style="opacity:0.844" fill="#fefffe"
      d="M 243.5,113.5 C 245.5,113.5 247.5,113.5 249.5,113.5C 249.751,117.331 248.584,120.664 246,123.5C 244.644,124.38 243.144,124.714 241.5,124.5C 242.917,120.998 243.584,117.331 243.5,113.5 Z" />
  </g>
  <g>
    <path style="opacity:0.899" fill="#fefffe"
      d="M 25.5,115.5 C 30.1785,115.334 34.8452,115.501 39.5,116C 43.4613,120.13 43.4613,124.297 39.5,128.5C 41.5439,131.623 43.2105,134.956 44.5,138.5C 42.5787,139.641 40.5787,139.808 38.5,139C 33.291,126.979 30.9577,127.146 31.5,139.5C 29.5,139.5 27.5,139.5 25.5,139.5C 25.5,131.5 25.5,123.5 25.5,115.5 Z M 31.5,119.5 C 35.5273,119.26 36.8607,120.926 35.5,124.5C 34.2638,125.246 32.9305,125.579 31.5,125.5C 31.5,123.5 31.5,121.5 31.5,119.5 Z" />
  </g>
  <g>
    <path style="opacity:0.938" fill="#fefffe"
      d="M 46.5,115.5 C 51.5,115.5 56.5,115.5 61.5,115.5C 61.5,116.833 61.5,118.167 61.5,119.5C 58.5,119.5 55.5,119.5 52.5,119.5C 52.5,121.167 52.5,122.833 52.5,124.5C 55.1667,124.5 57.8333,124.5 60.5,124.5C 60.5,125.833 60.5,127.167 60.5,128.5C 57.8333,128.5 55.1667,128.5 52.5,128.5C 52.5,130.833 52.5,133.167 52.5,135.5C 55.5,135.5 58.5,135.5 61.5,135.5C 61.5,136.833 61.5,138.167 61.5,139.5C 56.5,139.5 51.5,139.5 46.5,139.5C 46.5,131.5 46.5,123.5 46.5,115.5 Z" />
  </g>
  <g>
    <path style="opacity:0.872" fill="#fefffe"
      d="M 67.5,115.5 C 70.5184,115.335 73.5184,115.502 76.5,116C 78.1554,117.444 78.822,119.278 78.5,121.5C 76.1732,121.335 74.0065,120.669 72,119.5C 70.8419,119.998 70.0085,120.831 69.5,122C 71.8008,124.156 74.4675,125.822 77.5,127C 80.6149,131.644 79.9483,135.644 75.5,139C 72.1667,139.667 68.8333,139.667 65.5,139C 63.8078,137.599 63.1412,135.766 63.5,133.5C 65.9372,133.756 68.2706,134.423 70.5,135.5C 71.9019,135.135 72.9019,134.301 73.5,133C 70.5201,130.407 67.3534,127.907 64,125.5C 62.7563,121.191 63.9229,117.858 67.5,115.5 Z" />
  </g>
  <g>
    <path style="opacity:0.929" fill="#fefffe"
      d="M 82.5,115.5 C 87.5,115.5 92.5,115.5 97.5,115.5C 97.5,116.833 97.5,118.167 97.5,119.5C 94.1667,119.5 90.8333,119.5 87.5,119.5C 87.5,121.167 87.5,122.833 87.5,124.5C 90.1667,124.5 92.8333,124.5 95.5,124.5C 95.5,125.833 95.5,127.167 95.5,128.5C 92.8333,128.5 90.1667,128.5 87.5,128.5C 87.5,130.833 87.5,133.167 87.5,135.5C 91.3506,134.971 94.8506,135.638 98,137.5C 100.531,130.909 102.864,124.242 105,117.5C 107.121,115.543 109.621,115.043 112.5,116C 115.864,123.591 118.53,131.425 120.5,139.5C 118.5,139.5 116.5,139.5 114.5,139.5C 114.579,138.07 114.246,136.736 113.5,135.5C 110.572,134.516 107.572,134.183 104.5,134.5C 104.579,135.93 104.246,137.264 103.5,138.5C 96.5316,139.497 89.5316,139.83 82.5,139.5C 82.5,131.5 82.5,123.5 82.5,115.5 Z M 108.5,121.5 C 110.072,124.215 111.072,127.215 111.5,130.5C 109.833,130.5 108.167,130.5 106.5,130.5C 107.167,127.5 107.833,124.5 108.5,121.5 Z" />
  </g>
  <g>
    <path style="opacity:0.896" fill="#fefffe"
      d="M 122.5,115.5 C 127.179,115.334 131.845,115.501 136.5,116C 141.787,119.91 141.787,123.91 136.5,128C 138.568,131.303 140.234,134.803 141.5,138.5C 139.5,139.833 137.5,139.833 135.5,138.5C 130.468,126.444 128.135,126.778 128.5,139.5C 126.5,139.5 124.5,139.5 122.5,139.5C 122.5,131.5 122.5,123.5 122.5,115.5 Z M 128.5,119.5 C 136.5,121.5 136.5,123.5 128.5,125.5C 128.5,123.5 128.5,121.5 128.5,119.5 Z" />
  </g>
  <g>
    <path style="opacity:0.881" fill="#fefffe"
      d="M 148.5,115.5 C 151.85,115.335 155.183,115.502 158.5,116C 160.192,117.401 160.859,119.234 160.5,121.5C 158.323,121.414 156.323,120.747 154.5,119.5C 150.095,120.294 148.095,122.961 148.5,127.5C 148.095,132.039 150.095,134.706 154.5,135.5C 156.323,134.253 158.323,133.586 160.5,133.5C 160.859,135.766 160.192,137.599 158.5,139C 145.52,141.017 140.353,135.517 143,122.5C 143.967,119.379 145.8,117.046 148.5,115.5 Z" />
  </g>
  <g>
    <path style="opacity:0.995" fill="#fefffe"
      d="M 163.5,115.5 C 165.167,115.5 166.833,115.5 168.5,115.5C 168.5,118.833 168.5,122.167 168.5,125.5C 171.5,125.5 174.5,125.5 177.5,125.5C 177.5,122.167 177.5,118.833 177.5,115.5C 179.167,115.5 180.833,115.5 182.5,115.5C 182.5,123.5 182.5,131.5 182.5,139.5C 180.833,139.5 179.167,139.5 177.5,139.5C 177.5,136.167 177.5,132.833 177.5,129.5C 174.5,129.5 171.5,129.5 168.5,129.5C 168.5,132.833 168.5,136.167 168.5,139.5C 166.833,139.5 165.167,139.5 163.5,139.5C 163.5,131.5 163.5,123.5 163.5,115.5 Z" />
  </g>
  <g>
    <path style="opacity:0.935" fill="#fefffe"
      d="M 187.5,115.5 C 192.167,115.5 196.833,115.5 201.5,115.5C 201.5,116.833 201.5,118.167 201.5,119.5C 198.5,119.5 195.5,119.5 192.5,119.5C 192.5,121.167 192.5,122.833 192.5,124.5C 195.167,124.5 197.833,124.5 200.5,124.5C 200.5,125.833 200.5,127.167 200.5,128.5C 197.833,128.5 195.167,128.5 192.5,128.5C 192.5,130.833 192.5,133.167 192.5,135.5C 195.5,135.5 198.5,135.5 201.5,135.5C 201.5,136.833 201.5,138.167 201.5,139.5C 196.57,139.803 191.737,139.469 187,138.5C 186.202,130.754 186.369,123.087 187.5,115.5 Z" />
  </g>
  <g>
    <path style="opacity:0.936" fill="#fefffe"
      d="M 205.5,115.5 C 210.179,115.334 214.845,115.501 219.5,116C 222.349,118.559 223.183,121.726 222,125.5C 221.097,126.701 219.931,127.535 218.5,128C 221.406,131.311 223.073,135.144 223.5,139.5C 221.5,139.5 219.5,139.5 217.5,139.5C 217.02,135.198 215.02,131.865 211.5,129.5C 210.513,132.768 210.18,136.102 210.5,139.5C 208.833,139.5 207.167,139.5 205.5,139.5C 205.5,131.5 205.5,123.5 205.5,115.5 Z M 210.5,119.5 C 214.971,118.843 216.638,120.51 215.5,124.5C 213.929,125.309 212.262,125.643 210.5,125.5C 210.5,123.5 210.5,121.5 210.5,119.5 Z" />
  </g>
  <g>
    <path style="opacity:0.877" fill="#fefffe"
      d="M 228.5,115.5 C 231.909,115.249 235.242,115.583 238.5,116.5C 239.452,118.045 239.785,119.712 239.5,121.5C 237.323,121.414 235.323,120.747 233.5,119.5C 232.328,119.919 231.328,120.585 230.5,121.5C 233.654,123.739 236.821,126.073 240,128.5C 241.004,131.993 240.504,135.159 238.5,138C 234.625,139.52 230.625,139.854 226.5,139C 224.808,137.599 224.141,135.766 224.5,133.5C 226.937,133.756 229.271,134.423 231.5,135.5C 233.002,134.917 234.335,134.084 235.5,133C 232.589,130.472 229.422,128.305 226,126.5C 224.812,122.259 225.645,118.592 228.5,115.5 Z" />
  </g>
  <g>
    <path style="opacity:0.903" fill="#fefffe"
      d="M 261.5,115.5 C 266.959,115.103 272.292,115.603 277.5,117C 284.151,123.946 284.151,130.946 277.5,138C 272.292,139.397 266.959,139.897 261.5,139.5C 261.5,131.5 261.5,123.5 261.5,115.5 Z M 267.5,119.5 C 273.03,119.365 276.03,122.031 276.5,127.5C 276.03,132.969 273.03,135.635 267.5,135.5C 267.5,130.167 267.5,124.833 267.5,119.5 Z" />
  </g>
  <g>
    <path style="opacity:0.974" fill="#fefffe"
      d="M 285.5,115.5 C 290.5,115.5 295.5,115.5 300.5,115.5C 300.5,116.833 300.5,118.167 300.5,119.5C 297.167,119.5 293.833,119.5 290.5,119.5C 290.5,121.167 290.5,122.833 290.5,124.5C 293.167,124.5 295.833,124.5 298.5,124.5C 298.5,125.833 298.5,127.167 298.5,128.5C 295.833,128.5 293.167,128.5 290.5,128.5C 290.5,130.833 290.5,133.167 290.5,135.5C 293.833,135.5 297.167,135.5 300.5,135.5C 300.5,136.833 300.5,138.167 300.5,139.5C 295.5,139.5 290.5,139.5 285.5,139.5C 285.5,131.5 285.5,123.5 285.5,115.5 Z" />
  </g>
  <g>
    <path style="opacity:0.877" fill="#fefffe"
      d="M 305.5,115.5 C 308.909,115.249 312.242,115.583 315.5,116.5C 316.452,118.045 316.785,119.712 316.5,121.5C 314.323,121.414 312.323,120.747 310.5,119.5C 309.328,119.919 308.328,120.585 307.5,121.5C 310.654,123.739 313.821,126.073 317,128.5C 318.004,131.993 317.504,135.159 315.5,138C 311.625,139.52 307.625,139.854 303.5,139C 301.808,137.599 301.141,135.766 301.5,133.5C 303.937,133.756 306.271,134.423 308.5,135.5C 310.002,134.917 311.335,134.084 312.5,133C 309.589,130.472 306.422,128.305 303,126.5C 301.812,122.259 302.645,118.592 305.5,115.5 Z" />
  </g>
  <g>
    <path style="opacity:0.877" fill="#fefffe"
      d="M 320.5,115.5 C 322.5,115.5 324.5,115.5 326.5,115.5C 326.335,118.518 326.502,121.518 327,124.5C 329.043,118.931 332.877,115.931 338.5,115.5C 336.955,119.573 334.621,123.239 331.5,126.5C 334.167,130.5 336.833,134.5 339.5,138.5C 337.167,139.833 334.833,139.833 332.5,138.5C 330.468,135.632 328.635,132.632 327,129.5C 326.502,132.817 326.335,136.15 326.5,139.5C 324.5,139.5 322.5,139.5 320.5,139.5C 320.5,131.5 320.5,123.5 320.5,115.5 Z" />
  </g>
  <g>
    <path style="opacity:0.864" fill="#fefffe"
      d="M 423.5,200.5 C 424.833,200.5 426.167,200.5 427.5,200.5C 427.5,205.167 427.5,209.833 427.5,214.5C 429.604,214.201 431.604,214.534 433.5,215.5C 430.232,216.487 426.898,216.82 423.5,216.5C 423.5,211.167 423.5,205.833 423.5,200.5 Z" />
  </g>
  <g>
    <path style="opacity:0.881" fill="#fefffe"
      d="M 434.5,200.5 C 435.833,200.5 437.167,200.5 438.5,200.5C 438.5,205.833 438.5,211.167 438.5,216.5C 437.167,216.5 435.833,216.5 434.5,216.5C 434.5,211.167 434.5,205.833 434.5,200.5 Z" />
  </g>
  <g>
    <path style="opacity:0.903" fill="#fefffe"
      d="M 441.5,200.5 C 444.572,200.183 447.572,200.516 450.5,201.5C 448.955,202.452 447.288,202.785 445.5,202.5C 445.5,204.5 445.5,206.5 445.5,208.5C 452.167,209.167 452.167,209.833 445.5,210.5C 445.5,212.5 445.5,214.5 445.5,216.5C 444.167,216.5 442.833,216.5 441.5,216.5C 441.5,211.167 441.5,205.833 441.5,200.5 Z" />
  </g>
  <g>
    <path style="opacity:0.923" fill="#fefffe"
      d="M 452.5,200.5 C 455.898,200.18 459.232,200.513 462.5,201.5C 460.604,202.466 458.604,202.799 456.5,202.5C 456.5,204.167 456.5,205.833 456.5,207.5C 463.167,208.167 463.167,208.833 456.5,209.5C 456.5,211.167 456.5,212.833 456.5,214.5C 458.604,214.201 460.604,214.534 462.5,215.5C 459.232,216.487 455.898,216.82 452.5,216.5C 452.5,211.167 452.5,205.833 452.5,200.5 Z" />
  </g>
</svg>