<?xml version="1.0" encoding="UTF-8"?>
<svg version="1.1" xmlns="http://www.w3.org/2000/svg" width="536" height="257">
  <path
    d="M0 0 C105.56154561 -0.84179861 105.56154561 -0.84179861 139.08203125 32.0390625 C144.93408063 37.93094755 150.20224471 43.56272923 154 51 C160.91668948 35.98931219 164.4677784 20.26386231 167 4 C168.32 4 169.64 4 171 4 C170.64127626 19.75123319 166.11169904 35.23760586 160.234375 49.75 C158.02869907 55.34354182 158.02869907 55.34354182 159.0390625 61.1015625 C159.56242188 62.26429688 160.08578125 63.42703125 160.625 64.625 C166.60050709 78.57427139 171.24481437 94.75474127 171 110 C169.68 110 168.36 110 167 110 C166.87995605 109.30664551 166.75991211 108.61329102 166.63623047 107.89892578 C163.24701984 84.4722404 163.24701984 84.4722404 154 63 C153.05640625 64.37671875 153.05640625 64.37671875 152.09375 65.78125 C136.75498922 87.90104013 116.02057721 100.71679959 90 107 C88.83210938 107.28488281 87.66421875 107.56976563 86.4609375 107.86328125 C58.02488913 113.90361832 28.89520539 113.39811807 0 113 C0 111.68 0 110.36 0 109 C1.21244385 108.98018066 2.4248877 108.96036133 3.67407227 108.93994141 C76.16466292 109.25341869 76.16466292 109.25341869 138.16015625 75.875 C143.00548874 70.64689558 148.36990607 64.67264571 151 58 C148.53986546 45.71530222 136.01546521 34.26810545 126.12084961 27.45654297 C89.31084892 3.33520844 42.33318594 5.08017464 0 4 C0 2.68 0 1.36 0 0 Z "
    fill="#FFFFFF" transform="translate(275,74)" />
  <path
    d="M0 0 C3.63946908 2.50213499 4.74875408 4.15204503 6 8.375 C6 13.47226556 4.88091493 17.02786287 1.30859375 20.7734375 C-3.44380869 25 -3.44380869 25 -6 25 C-5.7525 25.515625 -5.505 26.03125 -5.25 26.5625 C-4.91431778 29.83540165 -6.38643043 31.42583096 -8.06640625 34.12890625 C-9.56729868 37.136971 -9.37791917 39.72470056 -9 43 C-8.34 43.99 -7.68 44.98 -7 46 C-6.85778935 48.60245498 -6.81197068 51.09117684 -6.875 53.6875 C-6.88402344 54.38939453 -6.89304687 55.09128906 -6.90234375 55.81445312 C-6.92586296 57.54311525 -6.96173287 59.27160145 -7 61 C-8.98 61.495 -8.98 61.495 -11 62 C-11.04898437 60.95199219 -11.09796875 59.90398437 -11.1484375 58.82421875 C-11.22348143 57.44528646 -11.29902857 56.0663815 -11.375 54.6875 C-11.4059375 53.99720703 -11.436875 53.30691406 -11.46875 52.59570312 C-11.68124919 48.93009211 -11.91933861 47.12099208 -14 44 C-14.83702365 39.06545362 -14.32301894 35.10846616 -11.875 30.75 C-10.13121452 27.79738201 -10.13121452 27.79738201 -10.5625 24.4375 C-11.036875 23.633125 -11.51125 22.82875 -12 22 C-14.70714616 16.58570768 -16.04493639 11.99995735 -15 6 C-11.14089079 -0.17457473 -6.95724022 -1.04538843 0 0 Z "
    fill="#FFFFFF" transform="translate(502,25)" />
  <path
    d="M0 0 C4.95 0 9.9 0 15 0 C15 1.32 15 2.64 15 4 C11.7 4 8.4 4 5 4 C5 5.65 5 7.3 5 9 C7.64 9 10.28 9 13 9 C13 10.32 13 11.64 13 13 C10.36 13 7.72 13 5 13 C5 15.31 5 17.62 5 20 C8.3 20 11.6 20 15 20 C17.79308415 13.37608502 20.53267983 6.75266574 23 0 C25.31 0 27.62 0 30 0 C38 16.85106383 38 16.85106383 38 24 C36.02 24 34.04 24 32 24 C31.505 21.525 31.505 21.525 31 19 C28.03 19 25.06 19 22 19 C21.67 20.65 21.34 22.3 21 24 C14.07 24 7.14 24 0 24 C0 16.08 0 8.16 0 0 Z M26 6 C25.34 8.97 24.68 11.94 24 15 C25.65 15 27.3 15 29 15 C28.34 12.03 27.68 9.06 27 6 C26.67 6 26.34 6 26 6 Z "
    fill="#FFFFFF" transform="translate(83,116)" />
  <path
    d="M0 0 C14.19642857 -0.66964286 14.19642857 -0.66964286 17.8125 1.875 C20.81982129 6.17117327 21.36603967 9.80889191 21 15 C19.5215458 19.27973584 17.91350705 21.73944334 14 24 C9.30257317 24.39853734 4.72350556 24.13120849 0 24 C0 16.08 0 8.16 0 0 Z M6 4 C6 9.28 6 14.56 6 20 C11.66115844 19.6090747 11.66115844 19.6090747 13.875 17.3125 C15.34420486 14.29246779 15.41546043 12.32368343 15 9 C14.00965774 6.59616005 14.00965774 6.59616005 12 5 C9.03 4.505 9.03 4.505 6 4 Z "
    fill="#FFFFFF" transform="translate(262,116)" />
  <path
    d="M0 0 C2.248125 -0.04125 4.49625 -0.0825 6.8125 -0.125 C8.07707031 -0.14820312 9.34164062 -0.17140625 10.64453125 -0.1953125 C14 0 14 0 17 2 C17.875 4.8125 17.875 4.8125 18 8 C17.443125 8.763125 16.88625 9.52625 16.3125 10.3125 C14.6823437 12.87464446 14.6823437 12.87464446 15.6875 15.2421875 C16.42715569 16.84991133 17.20390283 18.44117211 18.01953125 20.01171875 C19 22 19 22 19 24 C17.02 24 15.04 24 13 24 C12.66226563 23.36191406 12.32453125 22.72382813 11.9765625 22.06640625 C11.53054687 21.24011719 11.08453125 20.41382813 10.625 19.5625 C10.18414062 18.73878906 9.74328125 17.91507813 9.2890625 17.06640625 C8.16581441 14.86533422 8.16581441 14.86533422 6 14 C6 17.3 6 20.6 6 24 C4.02 24 2.04 24 0 24 C0 16.08 0 8.16 0 0 Z M6 4 C6 5.98 6 7.96 6 10 C7.65 9.67 9.3 9.34 11 9 C11 7.68 11 6.36 11 5 C9.35 4.67 7.7 4.34 6 4 Z "
    fill="#FFFFFF" transform="translate(123,116)" />
  <path
    d="M0 0 C13.44921688 -0.37016193 13.44921688 -0.37016193 15.9296875 1.296875 C17.72308533 4.15060294 17.28688551 6.72950515 17 10 C16.62488281 10.64839844 16.24976562 11.29679687 15.86328125 11.96484375 C14.7432531 13.98427177 14.7432531 13.98427177 15.6796875 16.0703125 C16.07414062 16.74835938 16.46859375 17.42640625 16.875 18.125 C19 21.85430464 19 21.85430464 19 24 C17.02 24 15.04 24 13 24 C12.73445313 23.43410156 12.46890625 22.86820313 12.1953125 22.28515625 C11.66550781 21.18494141 11.66550781 21.18494141 11.125 20.0625 C10.77695312 19.33160156 10.42890625 18.60070312 10.0703125 17.84765625 C9.1315023 15.83667541 9.1315023 15.83667541 7 15 C6.67 17.97 6.34 20.94 6 24 C4.02 24 2.04 24 0 24 C0 16.08 0 8.16 0 0 Z M6 4 C6 5.98 6 7.96 6 10 C7.65 9.67 9.3 9.34 11 9 C11 7.68 11 6.36 11 5 C9.35 4.67 7.7 4.34 6 4 Z "
    fill="#FFFFFF" transform="translate(26,116)" />
  <path
    d="M0 0 C13.44869269 -0.37014751 13.44869269 -0.37014751 15.92578125 1.29296875 C17.74109309 4.17766429 17.35319931 6.70347311 17 10 C15.5 11.9375 15.5 11.9375 14 13 C14.66 14.0725 15.32 15.145 16 16.25 C17.88295807 19.30980686 18 20.1335864 18 24 C16.02 24 14.04 24 12 24 C11.82984375 23.36191406 11.6596875 22.72382813 11.484375 22.06640625 C11.24203125 21.24011719 10.9996875 20.41382813 10.75 19.5625 C10.51796875 18.73878906 10.2859375 17.91507813 10.046875 17.06640625 C9.70140625 16.38449219 9.3559375 15.70257813 9 15 C7.68 14.67 6.36 14.34 5 14 C5 17.3 5 20.6 5 24 C3.35 24 1.7 24 0 24 C0 16.08 0 8.16 0 0 Z M5 4 C5 5.98 5 7.96 5 10 C6.98 9.67 8.96 9.34 11 9 C11 7.68 11 6.36 11 5 C8.03 4.505 8.03 4.505 5 4 Z "
    fill="#FFFFFF" transform="translate(206,116)" />
  <path
    d="M0 0 C1.98 0 3.96 0 6 0 C6.33 2.31 6.66 4.62 7 7 C7.29132813 6.4946875 7.58265625 5.989375 7.8828125 5.46875 C9.1470972 3.46497803 10.34859082 1.70261567 12 0 C15.3125 -0.4375 15.3125 -0.4375 18 0 C17.49477778 4.37859255 14.82172778 6.81651224 12 10 C13.35571097 14.06713292 15.39673943 17.08650139 17.9765625 20.44921875 C19 22 19 22 19 24 C15.8125 24.5 15.8125 24.5 12 24 C9.84975764 21.57299378 8.40896506 18.90883109 7 16 C6.67 18.64 6.34 21.28 6 24 C4.02 24 2.04 24 0 24 C0 16.08 0 8.16 0 0 Z "
    fill="#FFFFFF" transform="translate(321,116)" />
  <path
    d="M0 0 C1.65 0 3.3 0 5 0 C5 3.3 5 6.6 5 10 C7.97 10 10.94 10 14 10 C14 6.7 14 3.4 14 0 C15.65 0 17.3 0 19 0 C19 7.92 19 15.84 19 24 C17.35 24 15.7 24 14 24 C14 20.7 14 17.4 14 14 C11.03 14 8.06 14 5 14 C5 17.3 5 20.6 5 24 C3.35 24 1.7 24 0 24 C0 16.08 0 8.16 0 0 Z "
    fill="#FFFFFF" transform="translate(164,116)" />
  <path
    d="M0 0 C2 2 2 2 2 6 C-0.97 5.67 -3.94 5.34 -7 5 C-7 5.99 -7 6.98 -7 8 C-6.0925 8.2475 -5.185 8.495 -4.25 8.75 C-0.79182829 10.08006604 0.83928199 11.0082366 3 14 C3.58890625 17.53343747 3.42208081 19.27095134 1.625 22.375 C-2.37759852 24.85279908 -6.40460183 24.48836113 -11 24 C-11.66 23.67 -12.32 23.34 -13 23 C-13 21.35 -13 19.7 -13 18 C-9.7 18.33 -6.4 18.66 -3 19 C-4.17351952 15.47944145 -4.90322383 15.17776613 -8 13.375 C-11.95652174 11.04347826 -11.95652174 11.04347826 -13 10 C-13.38298208 6.55316129 -13.37706052 4.62296955 -11.5625 1.625 C-7.87825567 -0.71135006 -4.26545908 -0.70816502 0 0 Z "
    fill="#FFFFFF" transform="translate(77,116)" />
  <path
    d="M0 0 C4.95 0 9.9 0 15 0 C15 1.32 15 2.64 15 4 C12.03 4 9.06 4 6 4 C6 5.65 6 7.3 6 9 C8.64 9 11.28 9 14 9 C14 10.32 14 11.64 14 13 C11.36 13 8.72 13 6 13 C6 15.31 6 17.62 6 20 C8.97 20 11.94 20 15 20 C15 21.32 15 22.64 15 24 C10.05 24 5.1 24 0 24 C0 16.08 0 8.16 0 0 Z "
    fill="#FFFFFF" transform="translate(47,116)" />
  <path
    d="M0 0 C1.17755859 0.02320312 1.17755859 0.02320312 2.37890625 0.046875 C4.4375 0.25 4.4375 0.25 6.4375 1.25 C6.4375 2.9 6.4375 4.55 6.4375 6.25 C3.4675 5.92 0.4975 5.59 -2.5625 5.25 C-0.2239804 8.75777939 1.70163448 9.45989777 5.4375 11.25 C8.01740801 13.82990801 7.75348838 15.75244461 7.8984375 19.27734375 C7.4375 21.25 7.4375 21.25 5.734375 22.98828125 C3.02888504 24.47446026 1.37858949 24.59152506 -1.6875 24.5 C-2.55632812 24.48453125 -3.42515625 24.4690625 -4.3203125 24.453125 C-6.5625 24.25 -6.5625 24.25 -8.5625 23.25 C-8.5625 21.6 -8.5625 19.95 -8.5625 18.25 C-6.54427083 18.57552083 -4.52604167 18.90104167 -2.5078125 19.2265625 C-1.54488281 19.23816406 -1.54488281 19.23816406 -0.5625 19.25 C0.0975 18.59 0.7575 17.93 1.4375 17.25 C0.695 16.816875 -0.0475 16.38375 -0.8125 15.9375 C-2.17375 15.1021875 -2.17375 15.1021875 -3.5625 14.25 C-4.7071875 13.6621875 -4.7071875 13.6621875 -5.875 13.0625 C-8.23402016 10.52873761 -8.0024549 8.54618653 -7.99609375 5.1875 C-6.98836477 0.68449483 -4.27141975 -0.14073871 0 0 Z "
    fill="#FFFFFF" transform="translate(310.5625,115.75)" />
  <path
    d="M0 0 C1.17755859 0.02320312 1.17755859 0.02320312 2.37890625 0.046875 C4.4375 0.25 4.4375 0.25 6.4375 1.25 C6.4375 2.9 6.4375 4.55 6.4375 6.25 C3.4675 5.92 0.4975 5.59 -2.5625 5.25 C-0.2239804 8.75777939 1.70163448 9.45989777 5.4375 11.25 C8.01740801 13.82990801 7.75348838 15.75244461 7.8984375 19.27734375 C7.4375 21.25 7.4375 21.25 5.734375 22.98828125 C3.02888504 24.47446026 1.37858949 24.59152506 -1.6875 24.5 C-2.55632812 24.48453125 -3.42515625 24.4690625 -4.3203125 24.453125 C-6.5625 24.25 -6.5625 24.25 -8.5625 23.25 C-8.5625 21.6 -8.5625 19.95 -8.5625 18.25 C-6.54427083 18.57552083 -4.52604167 18.90104167 -2.5078125 19.2265625 C-1.54488281 19.23816406 -1.54488281 19.23816406 -0.5625 19.25 C0.0975 18.59 0.7575 17.93 1.4375 17.25 C0.695 16.816875 -0.0475 16.38375 -0.8125 15.9375 C-2.17375 15.1021875 -2.17375 15.1021875 -3.5625 14.25 C-4.7071875 13.6621875 -4.7071875 13.6621875 -5.875 13.0625 C-8.23402016 10.52873761 -8.0024549 8.54618653 -7.99609375 5.1875 C-6.98836477 0.68449483 -4.27141975 -0.14073871 0 0 Z "
    fill="#FFFFFF" transform="translate(233.5625,115.75)" />
  <path
    d="M0 0 C1.93166016 0.01740234 1.93166016 0.01740234 3.90234375 0.03515625 C5.19269531 0.04417969 6.48304688 0.05320312 7.8125 0.0625 C8.81152344 0.07410156 9.81054688 0.08570312 10.83984375 0.09765625 C10.83984375 1.41765625 10.83984375 2.73765625 10.83984375 4.09765625 C7.86984375 4.09765625 4.89984375 4.09765625 1.83984375 4.09765625 C1.83984375 5.74765625 1.83984375 7.39765625 1.83984375 9.09765625 C4.47984375 9.09765625 7.11984375 9.09765625 9.83984375 9.09765625 C9.83984375 10.41765625 9.83984375 11.73765625 9.83984375 13.09765625 C7.19984375 13.09765625 4.55984375 13.09765625 1.83984375 13.09765625 C1.83984375 15.40765625 1.83984375 17.71765625 1.83984375 20.09765625 C4.80984375 20.09765625 7.77984375 20.09765625 10.83984375 20.09765625 C10.83984375 21.41765625 10.83984375 22.73765625 10.83984375 24.09765625 C8.52740583 24.12451037 6.21488105 24.14398466 3.90234375 24.16015625 C2.61457031 24.17175781 1.32679688 24.18335938 0 24.1953125 C-3.16015625 24.09765625 -3.16015625 24.09765625 -4.16015625 23.09765625 C-4.25932195 21.47508081 -4.29095402 19.84825794 -4.29296875 18.22265625 C-4.29425781 17.2378125 -4.29554688 16.25296875 -4.296875 15.23828125 C-4.29300781 14.201875 -4.28914062 13.16546875 -4.28515625 12.09765625 C-4.29095703 10.54304688 -4.29095703 10.54304688 -4.296875 8.95703125 C-4.29558594 7.9721875 -4.29429687 6.98734375 -4.29296875 5.97265625 C-4.29184082 5.06257813 -4.29071289 4.1525 -4.28955078 3.21484375 C-4.07899223 -0.23037087 -3.54112926 0.10942921 0 0 Z "
    fill="#FFFFFF" transform="translate(191.16015625,115.90234375)" />
  <path
    d="M0 0 C0.886875 -0.00257812 1.77375 -0.00515625 2.6875 -0.0078125 C5 0.125 5 0.125 7 1.125 C7 2.775 7 4.425 7 6.125 C5.906875 5.939375 4.81375 5.75375 3.6875 5.5625 C0.06375867 4.8671932 0.06375867 4.8671932 -3 6.125 C-4.12256131 8.37012262 -4.13413762 9.63956649 -4.125 12.125 C-4.12757813 12.82625 -4.13015625 13.5275 -4.1328125 14.25 C-4.11377236 16.21653775 -4.11377236 16.21653775 -3 18.125 C0.64653273 19.23921833 3.33291043 19.06796589 7 18.125 C7 19.775 7 21.425 7 23.125 C3.30009772 24.97495114 -0.96167141 24.59486842 -5 24.125 C-8.55680172 22.01995409 -9.69468936 21.04093192 -11 17.125 C-11.5068437 12.29752148 -11.8609538 7.75288277 -9.125 3.5625 C-6.08339401 0.07359901 -4.47619011 -0.01301218 0 0 Z "
    fill="#FFFFFF" transform="translate(154,115.875)" />
  <path
    d="M0 0 C4.95 0 9.9 0 15 0 C15 1.32 15 2.64 15 4 C11.7 4 8.4 4 5 4 C5 5.65 5 7.3 5 9 C7.64 9 10.28 9 13 9 C13 10.32 13 11.64 13 13 C10.36 13 7.72 13 5 13 C5 15.31 5 17.62 5 20 C8.3 20 11.6 20 15 20 C15 21.32 15 22.64 15 24 C10.05 24 5.1 24 0 24 C0 16.08 0 8.16 0 0 Z "
    fill="#FFFFFF" transform="translate(286,116)" />
  <path
    d="M0 0 C1.9375 1.0625 1.9375 1.0625 3 3 C4.03608129 6.99631356 4.42696428 9.1072565 2.625 12.875 C1 15 1 15 0 16 C-3.98536922 16.48427793 -7.73252113 16.92180281 -11.0625 14.5 C-12.40646523 10.91609272 -12.67288649 7.77435178 -12 4 C-8.99732176 -1.00446374 -5.31746703 -0.59082967 0 0 Z M-5 2 C-6.62493901 3.12109566 -6.62493901 3.12109566 -8 5 C-8.5 8 -8.5 8 -8 11 C-6.62493901 12.87890434 -6.62493901 12.87890434 -5 14 C-3.68 13.34 -2.36 12.68 -1 12 C-1 9.36 -1 6.72 -1 4 C-2.32 3.34 -3.64 2.68 -5 2 Z "
    fill="#FFFFFF" transform="translate(451,52)" />
  <path
    d="M0 0 C1.32 0.66 2.64 1.32 4 2 C3.01 3.5159375 3.01 3.5159375 2 5.0625 C-0.14490563 8.81228182 -0.501518 11.65351064 0 16 C0.66 16.99 1.32 17.98 2 19 C2.14221065 21.60245498 2.18802932 24.09117684 2.125 26.6875 C2.11597656 27.38939453 2.10695313 28.09128906 2.09765625 28.81445312 C2.07413704 30.54311525 2.03826713 32.27160145 2 34 C0.02 34.495 0.02 34.495 -2 35 C-2.04898437 33.95199219 -2.09796875 32.90398437 -2.1484375 31.82421875 C-2.22348143 30.44528646 -2.29902857 29.0663815 -2.375 27.6875 C-2.4059375 26.99720703 -2.436875 26.30691406 -2.46875 25.59570312 C-2.68124919 21.93009211 -2.91933861 20.12099208 -5 17 C-6.0759701 10.54417941 -4.6385319 6.29241004 -1 1 C-0.67 0.67 -0.34 0.34 0 0 Z "
    fill="#FEFEFE" transform="translate(493,52)" />
  <path
    d="M0 0 C3.3 0 6.6 0 10 0 C10 0.66 10 1.32 10 2 C8.02 2 6.04 2 4 2 C4 3.65 4 5.3 4 7 C5.65 7 7.3 7 9 7 C9 7.66 9 8.32 9 9 C7.35 9 5.7 9 4 9 C4 10.65 4 12.3 4 14 C5.98 14 7.96 14 10 14 C10 14.66 10 15.32 10 16 C6.7 16 3.4 16 0 16 C0 10.72 0 5.44 0 0 Z "
    fill="#FFFFFF" transform="translate(453,201)" />
  <path
    d="M0 0 C0 0.99 0 1.98 0 3 C-2.31 3 -4.62 3 -7 3 C-7 6.3 -7 9.6 -7 13 C-4.69 13 -2.38 13 0 13 C0 13.99 0 14.98 0 16 C-8.15384615 16.61538462 -8.15384615 16.61538462 -11.0625 14.5 C-12.40646523 10.91609272 -12.67288649 7.77435178 -12 4 C-8.98818934 -1.01968443 -5.31107251 -0.3540715 0 0 Z "
    fill="#FFFFFF" transform="translate(438,52)" />
  <path
    d="M0 0 C2.97 0 5.94 0 9 0 C9 0.66 9 1.32 9 2 C7.35 2 5.7 2 4 2 C4 3.98 4 5.96 4 8 C5.65 8 7.3 8 9 8 C9 8.66 9 9.32 9 10 C7.35 10 5.7 10 4 10 C4 11.98 4 13.96 4 16 C2.68 16 1.36 16 0 16 C0 10.72 0 5.44 0 0 Z "
    fill="#FFFFFF" transform="translate(442,201)" />
  <path
    d="M0 0 C1.32 0 2.64 0 4 0 C4 4.62 4 9.24 4 14 C5.98 14 7.96 14 10 14 C10 14.66 10 15.32 10 16 C6.7 16 3.4 16 0 16 C0 10.72 0 5.44 0 0 Z "
    fill="#FFFFFF" transform="translate(424,201)" />
  <path
    d="M0 0 C1.32 0 2.64 0 4 0 C4 5.28 4 10.56 4 16 C2.68 16 1.36 16 0 16 C0 10.72 0 5.44 0 0 Z "
    fill="#FFFFFF" transform="translate(435,201)" />
  <path
    d="M0 0 C1.98 0 3.96 0 6 0 C5.22986708 8.00938233 5.22986708 8.00938233 2 11 C0.68 11 -0.64 11 -2 11 C-1.34 7.37 -0.68 3.74 0 0 Z "
    fill="#FFFFFF" transform="translate(244,114)" />
  <path
    d="M0 0 C1.98 0 3.96 0 6 0 C6.625 2.3125 6.625 2.3125 7 5 C6.01 6.485 6.01 6.485 5 8 C5.99 8.33 6.98 8.66 8 9 C8 9.66 8 10.32 8 11 C5.36 11 2.72 11 0 11 C0.62759865 8.07120629 1.58622659 5.63904371 3 3 C2.01 3 1.02 3 0 3 C0 2.01 0 1.02 0 0 Z "
    fill="#FFFFFF" transform="translate(456,62)" />
</svg>