<svg width="485" height="86" viewBox="0 0 485 86" fill="none" xmlns="http://www.w3.org/2000/svg">
<path d="M4.84836 61V8.78688H10.4426V42.2033L28.4189 23.7049H36.2508L21.2582 38.3992L37.3697 61H30.5074L17.4541 42.2779L10.4426 49.2148V61H4.84836ZM46.3916 61V8.78688H51.9858V61H46.3916ZM65.5671 17.4393V10.1295H71.6089V17.4393H65.5671ZM65.7909 61V23.7049H71.3851V61H65.7909ZM85.1901 61V23.7049H90.7844V29.3738C91.6297 27.882 92.9724 26.4648 94.8123 25.1221C96.6521 23.7795 99.0888 23.1082 102.122 23.1082C104.608 23.1082 106.896 23.7795 108.984 25.1221C111.123 26.415 112.788 28.2549 113.982 30.6418C114.479 29.7964 115.25 28.777 116.294 27.5836C117.388 26.3902 118.805 25.3459 120.546 24.4508C122.286 23.5557 124.375 23.1082 126.811 23.1082C129.198 23.1082 131.436 23.7298 133.525 24.9729C135.613 26.2161 137.304 28.0063 138.597 30.3434C139.939 32.6309 140.611 35.341 140.611 38.4738V61H135.016V38.6229C135.016 35.4902 134.121 32.979 132.331 31.0893C130.591 29.15 128.403 28.1803 125.767 28.1803C123.032 28.1803 120.67 29.1003 118.681 30.9402C116.692 32.7801 115.698 35.3658 115.698 38.6975V61H110.103V38.6229C110.103 35.4902 109.208 32.979 107.418 31.0893C105.678 29.15 103.49 28.1803 100.854 28.1803C98.1191 28.1803 95.7571 29.1003 93.768 30.9402C91.7789 32.7801 90.7844 35.3658 90.7844 38.6975V61H85.1901ZM169.788 61.5967C166.158 61.5967 162.975 60.7514 160.24 59.0607C157.555 57.3202 155.466 54.9831 153.975 52.0492C152.483 49.1153 151.737 45.8831 151.737 42.3525C151.737 38.7721 152.483 35.5399 153.975 32.6557C155.466 29.7219 157.555 27.4096 160.24 25.7189C162.975 23.9784 166.158 23.1082 169.788 23.1082C172.871 23.1082 175.506 23.7049 177.694 24.8984C179.932 26.0918 181.747 27.7079 183.139 29.7467V23.7049H188.734V61H183.139V55.0328C181.747 57.0219 179.932 58.6131 177.694 59.8066C175.506 61 172.871 61.5967 169.788 61.5967ZM170.534 56.5246C173.318 56.5246 175.655 55.8781 177.545 54.5852C179.484 53.2923 180.951 51.5768 181.946 49.4385C182.94 47.2505 183.438 44.8885 183.438 42.3525C183.438 39.7667 182.94 37.4046 181.946 35.2664C180.951 33.1281 179.484 31.4126 177.545 30.1197C175.655 28.8268 173.318 28.1803 170.534 28.1803C167.799 28.1803 165.437 28.8268 163.447 30.1197C161.458 31.4126 159.942 33.1281 158.897 35.2664C157.853 37.4046 157.331 39.7667 157.331 42.3525C157.331 44.8885 157.853 47.2505 158.897 49.4385C159.942 51.5768 161.458 53.2923 163.447 54.5852C165.437 55.8781 167.799 56.5246 170.534 56.5246ZM206.54 61V28.6279H198.932V23.7049H206.54V10.3533H212.134V23.7049H220.712V28.6279H212.134V61H206.54ZM230.944 61V8.78688H236.538V42.2033L254.514 23.7049H262.346L247.354 38.3992L263.465 61H256.603L243.55 42.2779L236.538 49.2148V61H230.944ZM289.046 61.5967C285.267 61.5967 281.985 60.7514 279.2 59.0607C276.416 57.3202 274.277 54.9831 272.786 52.0492C271.294 49.1153 270.548 45.8831 270.548 42.3525C270.548 38.7721 271.294 35.5399 272.786 32.6557C274.277 29.7219 276.416 27.4096 279.2 25.7189C281.985 23.9784 285.267 23.1082 289.046 23.1082C292.875 23.1082 296.157 23.9784 298.892 25.7189C301.677 27.4096 303.815 29.7219 305.307 32.6557C306.799 35.5399 307.545 38.7721 307.545 42.3525C307.545 45.8831 306.799 49.1153 305.307 52.0492C303.815 54.9831 301.677 57.3202 298.892 59.0607C296.157 60.7514 292.875 61.5967 289.046 61.5967ZM289.046 56.5246C291.831 56.5246 294.168 55.8781 296.058 54.5852C297.997 53.2923 299.464 51.5768 300.459 49.4385C301.453 47.2505 301.95 44.8885 301.95 42.3525C301.95 39.7667 301.453 37.4046 300.459 35.2664C299.464 33.1281 297.997 31.4126 296.058 30.1197C294.168 28.8268 291.831 28.1803 289.046 28.1803C286.311 28.1803 283.974 28.8268 282.035 30.1197C280.095 31.4126 278.628 33.1281 277.634 35.2664C276.639 37.4046 276.142 39.7667 276.142 42.3525C276.142 44.8885 276.639 47.2505 277.634 49.4385C278.628 51.5768 280.095 53.2923 282.035 54.5852C283.974 55.8781 286.311 56.5246 289.046 56.5246ZM319.065 61V8.78688H324.66V61H319.065ZM338.465 61V8.78688H344.059V61H338.465ZM374.423 61.5967C370.644 61.5967 367.337 60.7514 364.502 59.0607C361.668 57.3202 359.455 54.9831 357.864 52.0492C356.322 49.1153 355.552 45.8831 355.552 42.3525C355.552 38.7721 356.297 35.5399 357.789 32.6557C359.281 29.7219 361.419 27.4096 364.204 25.7189C366.989 23.9784 370.271 23.1082 374.05 23.1082C377.879 23.1082 381.161 23.9784 383.896 25.7189C386.68 27.4096 388.819 29.7219 390.311 32.6557C391.802 35.5399 392.548 38.7721 392.548 42.3525V44.5902H361.295C361.593 46.7781 362.289 48.7921 363.383 50.632C364.527 52.4221 366.044 53.8642 367.933 54.9582C369.823 56.0025 372.011 56.5246 374.497 56.5246C377.133 56.5246 379.346 55.9527 381.136 54.809C382.926 53.6156 384.318 52.0989 385.313 50.259H391.429C390.136 53.5907 388.073 56.3257 385.238 58.4639C382.454 60.5525 378.849 61.5967 374.423 61.5967ZM361.37 39.3689H386.73C386.233 36.1863 384.89 33.526 382.702 31.3877C380.514 29.2495 377.63 28.1803 374.05 28.1803C370.47 28.1803 367.585 29.2495 365.397 31.3877C363.259 33.526 361.917 36.1863 361.37 39.3689ZM403.486 61V23.7049H409.08V29.5229C410.423 27.7328 412.064 26.2161 414.003 24.9729C415.943 23.7298 418.429 23.1082 421.462 23.1082C424.048 23.1082 426.46 23.7298 428.698 24.9729C430.985 26.1664 432.825 27.9814 434.217 30.418C435.659 32.8049 436.38 35.7637 436.38 39.2943V61H430.786V39.4434C430.786 36.062 429.817 33.3519 427.877 31.3131C425.938 29.2246 423.427 28.1803 420.344 28.1803C418.255 28.1803 416.365 28.6527 414.675 29.5975C412.984 30.5423 411.617 31.885 410.572 33.6254C409.578 35.3161 409.08 37.2803 409.08 39.518V61H403.486Z" fill="#F9FBFF"/>
<path d="M447.23 47.5H448.865V59.1543L448.725 61H447.23V47.5ZM455.29 56.166V56.3506C455.29 57.042 455.208 57.6836 455.044 58.2754C454.88 58.8613 454.64 59.3711 454.323 59.8047C454.007 60.2383 453.62 60.5752 453.163 60.8154C452.706 61.0557 452.182 61.1758 451.59 61.1758C450.986 61.1758 450.456 61.0732 449.999 60.8682C449.548 60.6572 449.167 60.3555 448.856 59.9629C448.546 59.5703 448.297 59.0957 448.109 58.5391C447.928 57.9824 447.802 57.3555 447.731 56.6582V55.8496C447.802 55.1465 447.928 54.5166 448.109 53.96C448.297 53.4033 448.546 52.9287 448.856 52.5361C449.167 52.1377 449.548 51.8359 449.999 51.6309C450.45 51.4199 450.975 51.3145 451.572 51.3145C452.17 51.3145 452.7 51.4316 453.163 51.666C453.626 51.8945 454.013 52.2227 454.323 52.6504C454.64 53.0781 454.88 53.5908 455.044 54.1885C455.208 54.7803 455.29 55.4395 455.29 56.166ZM453.655 56.3506V56.166C453.655 55.6914 453.611 55.2461 453.523 54.8301C453.436 54.4082 453.295 54.0391 453.102 53.7227C452.908 53.4004 452.653 53.1484 452.337 52.9668C452.021 52.7793 451.631 52.6855 451.168 52.6855C450.758 52.6855 450.4 52.7559 450.096 52.8965C449.797 53.0371 449.542 53.2275 449.331 53.4678C449.12 53.7021 448.947 53.9717 448.812 54.2764C448.684 54.5752 448.587 54.8857 448.522 55.208V57.3262C448.616 57.7363 448.769 58.1318 448.979 58.5127C449.196 58.8877 449.483 59.1953 449.841 59.4355C450.204 59.6758 450.652 59.7959 451.186 59.7959C451.625 59.7959 452 59.708 452.311 59.5322C452.627 59.3506 452.882 59.1016 453.075 58.7852C453.274 58.4688 453.421 58.1025 453.515 57.6865C453.608 57.2705 453.655 56.8252 453.655 56.3506ZM462.283 61.1758C461.621 61.1758 461.02 61.0645 460.481 60.8418C459.948 60.6133 459.488 60.2939 459.101 59.8838C458.72 59.4736 458.427 58.9873 458.222 58.4248C458.017 57.8623 457.915 57.2471 457.915 56.5791V56.21C457.915 55.4365 458.029 54.748 458.258 54.1445C458.486 53.5352 458.797 53.0195 459.189 52.5977C459.582 52.1758 460.027 51.8564 460.525 51.6396C461.023 51.4229 461.539 51.3145 462.072 51.3145C462.752 51.3145 463.338 51.4316 463.83 51.666C464.328 51.9004 464.735 52.2285 465.052 52.6504C465.368 53.0664 465.602 53.5586 465.755 54.127C465.907 54.6895 465.983 55.3047 465.983 55.9727V56.7021H458.882V55.375H464.357V55.252C464.334 54.8301 464.246 54.4199 464.094 54.0215C463.947 53.623 463.713 53.2949 463.39 53.0371C463.068 52.7793 462.629 52.6504 462.072 52.6504C461.703 52.6504 461.363 52.7295 461.052 52.8877C460.742 53.04 460.475 53.2686 460.253 53.5732C460.03 53.8779 459.857 54.25 459.734 54.6895C459.611 55.1289 459.55 55.6357 459.55 56.21V56.5791C459.55 57.0303 459.611 57.4551 459.734 57.8535C459.863 58.2461 460.048 58.5918 460.288 58.8906C460.534 59.1895 460.83 59.4238 461.176 59.5938C461.527 59.7637 461.926 59.8486 462.371 59.8486C462.945 59.8486 463.431 59.7314 463.83 59.4971C464.228 59.2627 464.577 58.9492 464.876 58.5566L465.86 59.3389C465.655 59.6494 465.394 59.9453 465.078 60.2266C464.761 60.5078 464.372 60.7363 463.909 60.9121C463.452 61.0879 462.91 61.1758 462.283 61.1758ZM472.853 51.4902V52.7383H467.711V51.4902H472.853ZM469.452 49.1787H471.078V58.6445C471.078 58.9668 471.127 59.21 471.227 59.374C471.327 59.5381 471.456 59.6465 471.614 59.6992C471.772 59.752 471.942 59.7783 472.124 59.7783C472.258 59.7783 472.399 59.7666 472.545 59.7432C472.698 59.7139 472.812 59.6904 472.888 59.6729L472.897 61C472.768 61.041 472.598 61.0791 472.387 61.1143C472.182 61.1553 471.933 61.1758 471.64 61.1758C471.242 61.1758 470.876 61.0967 470.542 60.9385C470.208 60.7803 469.941 60.5166 469.742 60.1475C469.548 59.7725 469.452 59.2686 469.452 58.6357V49.1787ZM481.358 59.374V54.4785C481.358 54.1035 481.282 53.7783 481.129 53.5029C480.983 53.2217 480.76 53.0049 480.461 52.8525C480.162 52.7002 479.793 52.624 479.354 52.624C478.944 52.624 478.583 52.6943 478.273 52.835C477.968 52.9756 477.728 53.1602 477.552 53.3887C477.382 53.6172 477.297 53.8633 477.297 54.127H475.671C475.671 53.7871 475.759 53.4502 475.935 53.1162C476.111 52.7822 476.363 52.4805 476.691 52.2109C477.025 51.9355 477.423 51.7188 477.886 51.5605C478.355 51.3965 478.876 51.3145 479.45 51.3145C480.142 51.3145 480.751 51.4316 481.279 51.666C481.812 51.9004 482.228 52.2549 482.527 52.7295C482.831 53.1982 482.984 53.7871 482.984 54.4961V58.9258C482.984 59.2422 483.01 59.5791 483.063 59.9365C483.121 60.2939 483.206 60.6016 483.318 60.8594V61H481.621C481.539 60.8125 481.475 60.5635 481.428 60.2529C481.381 59.9365 481.358 59.6436 481.358 59.374ZM481.639 55.2344L481.657 56.377H480.013C479.55 56.377 479.137 56.415 478.774 56.4912C478.41 56.5615 478.106 56.6699 477.86 56.8164C477.614 56.9629 477.426 57.1475 477.297 57.3701C477.168 57.5869 477.104 57.8418 477.104 58.1348C477.104 58.4336 477.171 58.7061 477.306 58.9521C477.441 59.1982 477.643 59.3945 477.912 59.541C478.188 59.6816 478.525 59.752 478.923 59.752C479.421 59.752 479.861 59.6465 480.241 59.4355C480.622 59.2246 480.924 58.9668 481.147 58.6621C481.375 58.3574 481.498 58.0615 481.516 57.7744L482.21 58.5566C482.169 58.8027 482.058 59.0752 481.876 59.374C481.695 59.6729 481.451 59.96 481.147 60.2354C480.848 60.5049 480.491 60.7305 480.074 60.9121C479.664 61.0879 479.201 61.1758 478.686 61.1758C478.041 61.1758 477.476 61.0498 476.99 60.7979C476.509 60.5459 476.134 60.209 475.865 59.7871C475.601 59.3594 475.469 58.8818 475.469 58.3545C475.469 57.8447 475.569 57.3965 475.768 57.0098C475.967 56.6172 476.254 56.292 476.629 56.0342C477.004 55.7705 477.455 55.5713 477.983 55.4365C478.51 55.3018 479.099 55.2344 479.749 55.2344H481.639Z" fill="#F9FBFF"/>
<rect x="277.942" y="55.016" width="6" height="33.0733" transform="rotate(35 277.942 55.016)" fill="#F9FBFF"/>
</svg>
