<svg width="335" height="60" viewBox="0 0 335 60" fill="none" xmlns="http://www.w3.org/2000/svg">
<path fill-rule="evenodd" clip-rule="evenodd" d="M0 0V40.6381H4.34284V31.4655L9.78591 26.0665L19.9193 40.6381H25.2465L12.7391 23.0476L24.3779 11.6109H18.2979L4.34284 26.0084V0H0ZM32.2503 0V40.6381H36.5931V0H32.2503ZM47.1363 1.04498V6.73428H51.8266V1.04498H47.1363ZM47.31 11.6109V40.6381H51.6529V11.6109H47.31ZM62.3698 11.6109V40.6381H66.7126V23.2798C66.7126 20.6867 67.4847 18.6742 69.0288 17.2422C70.573 15.8102 72.4066 15.0941 74.5297 15.0941C76.5761 15.0941 78.2746 15.8489 79.6254 17.3582C81.015 18.829 81.7098 20.7835 81.7098 23.2217V40.6381H86.0532V23.2798C86.0532 20.6867 86.8249 18.6742 88.3689 17.2422C89.913 15.8102 91.7466 15.0941 93.8698 15.0941C95.9162 15.0941 97.6147 15.8489 98.9655 17.3582C100.355 18.829 101.05 20.7835 101.05 23.2217V40.6381H105.393V23.1057C105.393 20.6674 104.872 18.5581 103.83 16.7777C102.826 14.9587 101.513 13.5654 99.8924 12.5978C98.2707 11.6303 96.5333 11.1465 94.6803 11.1465C92.7892 11.1465 91.1675 11.4947 89.8167 12.1914C88.4652 12.8881 87.3652 13.7009 86.5159 14.6297C85.7054 15.5585 85.1069 16.352 84.7211 17.0099C83.7942 15.1522 82.5016 13.7202 80.8411 12.7139C79.2202 11.6689 77.444 11.1465 75.5141 11.1465C73.1594 11.1465 71.2678 11.6689 69.8395 12.7139C68.4112 13.7589 67.3689 14.862 66.7126 16.023V11.6109H62.3698ZM120.631 39.1287C122.755 40.4446 125.226 41.1025 128.044 41.1025C130.437 41.1025 132.483 40.6381 134.181 39.7092C135.918 38.7803 137.327 37.5419 138.408 35.9937V40.6381H142.751V11.6109H138.408V16.3133C137.327 14.7265 135.918 13.4686 134.181 12.5398C132.483 11.6109 130.437 11.1465 128.044 11.1465C125.226 11.1465 122.755 11.8237 120.631 13.1784C118.547 14.4943 116.925 16.294 115.768 18.5774C114.61 20.8222 114.03 23.3379 114.03 26.1245C114.03 28.8724 114.61 31.3881 115.768 33.6716C116.925 35.9551 118.547 37.7741 120.631 39.1287ZM134.065 35.6454C132.598 36.6517 130.784 37.1548 128.623 37.1548C126.5 37.1548 124.666 36.6517 123.121 35.6454C121.577 34.6391 120.4 33.3039 119.589 31.6396C118.778 29.9367 118.373 28.0983 118.373 26.1245C118.373 24.112 118.778 22.2735 119.589 20.6093C120.4 18.9451 121.577 17.6099 123.121 16.6036C124.666 15.5973 126.5 15.0941 128.623 15.0941C130.784 15.0941 132.598 15.5973 134.065 16.6036C135.571 17.6099 136.709 18.9451 137.482 20.6093C138.254 22.2735 138.64 24.112 138.64 26.1245C138.64 28.0983 138.254 29.9367 137.482 31.6396C136.709 33.3039 135.571 34.6391 134.065 35.6454ZM156.574 15.4425V40.6381H160.917V15.4425H167.576V11.6109H160.917V1.21916H156.574V11.6109H150.668V15.4425H156.574ZM175.519 0V40.6381H179.862V31.4655L185.305 26.0665L195.439 40.6381H200.766L188.259 23.0476L199.897 11.6109H193.817L179.862 26.0084V0H175.519ZM214.841 40.0606C216.565 40.7552 218.493 41.1025 220.624 41.1025C223.597 41.1025 226.145 40.4446 228.268 39.1287C230.43 37.7741 232.09 35.9551 233.248 33.6716C234.406 31.3881 234.985 28.8724 234.985 26.1245C234.985 23.3379 234.406 20.8222 233.248 18.5774C232.09 16.294 230.43 14.4943 228.268 13.1784C226.145 11.8237 223.597 11.1465 220.624 11.1465C217.691 11.1465 215.143 11.8237 212.981 13.1784C210.82 14.4943 209.159 16.294 208.002 18.5774C206.843 20.8222 206.264 23.3379 206.264 26.1245C206.264 28.8724 206.843 31.3881 208.002 33.6716C208.757 35.1616 209.726 36.4538 210.909 37.5484L197.278 57.0667L201.093 59.7453L214.841 40.0606ZM226.068 35.6454C224.601 36.6517 222.786 37.1548 220.624 37.1548C218.501 37.1548 216.687 36.6517 215.182 35.6454C213.676 34.6391 212.537 33.3039 211.765 31.6396C210.993 29.9367 210.607 28.0983 210.607 26.1245C210.607 24.112 210.993 22.2735 211.765 20.6093C212.537 18.9451 213.676 17.6099 215.182 16.6036C216.687 15.5973 218.501 15.0941 220.624 15.0941C222.786 15.0941 224.601 15.5973 226.068 16.6036C227.573 17.6099 228.712 18.9451 229.484 20.6093C230.256 22.2735 230.642 24.112 230.642 26.1245C230.642 28.0983 230.256 29.9367 229.484 31.6396C228.712 33.3039 227.573 34.6391 226.068 35.6454ZM243.928 0V40.6381H248.272V0H243.928ZM258.988 0V40.6381H263.331V0H258.988ZM279.201 39.1287C281.402 40.4446 283.969 41.1025 286.903 41.1025C290.339 41.1025 293.137 40.2898 295.299 38.6642C297.499 37 299.101 34.8713 300.105 32.2782H295.357C294.584 33.7103 293.504 34.8907 292.114 35.8196C290.725 36.7097 289.007 37.1548 286.96 37.1548C285.03 37.1548 283.332 36.7485 281.865 35.9357C280.398 35.0842 279.221 33.9618 278.332 32.5686C277.483 31.1365 276.943 29.569 276.712 27.8661H300.973V26.1245C300.973 23.3379 300.394 20.8222 299.237 18.5774C298.079 16.294 296.418 14.4943 294.257 13.1784C292.134 11.8237 289.586 11.1465 286.613 11.1465C283.68 11.1465 281.132 11.8237 278.97 13.1784C276.808 14.4943 275.148 16.294 273.99 18.5774C272.832 20.8222 272.253 23.3379 272.253 26.1245C272.253 28.8724 272.851 31.3881 274.048 33.6716C275.283 35.9551 277.001 37.7741 279.201 39.1287ZM296.457 23.8023H276.77C277.194 21.3253 278.236 19.2547 279.896 17.5905C281.595 15.9263 283.834 15.0941 286.613 15.0941C289.393 15.0941 291.631 15.9263 293.33 17.5905C295.029 19.2547 296.071 21.3253 296.457 23.8023ZM309.465 11.6109V40.6381H313.807V23.9184C313.807 22.1768 314.194 20.648 314.966 19.3321C315.777 17.9775 316.838 16.9325 318.151 16.1972C319.463 15.4618 320.93 15.0941 322.552 15.0941C324.945 15.0941 326.894 15.9069 328.4 17.5324C329.906 19.1192 330.658 21.2285 330.658 23.8603V40.6381H335V23.7443C335 20.9964 334.441 18.6935 333.321 16.8358C332.241 14.9393 330.812 13.5267 329.037 12.5978C327.3 11.6303 325.427 11.1465 323.42 11.1465C321.065 11.1465 319.135 11.6303 317.629 12.5978C316.124 13.5654 314.85 14.7458 313.807 16.1391V11.6109H309.465Z" fill="#F9FBFF"/>
</svg>
