<svg width="200" height="37" viewBox="0 0 200 37" fill="none" xmlns="http://www.w3.org/2000/svg">
<path fill-rule="evenodd" clip-rule="evenodd" d="M32.4278 35.8717H24.9405L22.7717 29.5985H9.70768L7.48731 35.8717H0L13.3739 0.422993H19.0023L32.4278 35.8717ZM20.8612 23.7733L16.3688 10.8784L11.7215 23.7733H20.8612ZM64.8039 35.8717H56.4904L49.3129 21.732H44.1493V35.8717H36.9718V0.422993H51.3784C58.8657 0.422993 63.3065 5.35195 63.3065 11.2767C63.3065 16.2554 60.1566 19.3422 56.5937 20.5869L64.8039 35.8717ZM56.129 11.2767C56.129 8.53835 54.0635 6.59664 50.9137 6.59664H44.1493V15.9567H50.9137C54.0635 15.9567 56.129 14.015 56.129 11.2767ZM96.9219 21.3337C96.9219 26.5116 95.9408 29.5487 93.4106 32.1376C90.5706 34.9257 87.1626 36.1704 83.0316 36.1704C79.1073 36.1704 75.8025 34.8759 73.1174 32.287C71.5167 30.7436 70.5356 28.9512 70.1225 26.9597C69.7094 24.9682 69.5029 22.0308 69.5029 18.1473C69.5029 14.2639 69.7094 11.3265 70.1225 9.33495C70.5356 7.29367 71.5167 5.5511 73.1174 4.00769C75.8025 1.41874 79.1073 0.124268 83.0316 0.124268C91.3968 0.124268 95.8892 5.30217 96.8702 11.4758H89.6411C88.7633 8.04048 86.5946 6.29792 83.0316 6.29792C81.1211 6.29792 79.572 6.94515 78.436 8.18984C77.0934 9.83283 76.6803 11.1273 76.6803 18.1473C76.6803 25.1176 76.9902 26.5116 78.436 28.1546C79.5203 29.3993 81.0695 29.9968 83.0316 29.9968C85.1487 29.9968 86.8527 29.3495 88.1437 28.0053C89.228 26.8104 89.796 25.2172 89.796 23.2755V21.9312H83.0316V16.1558H96.9219V21.3337ZM132.035 35.8717H124.547L122.379 29.5985H109.315L107.094 35.8717H99.607L112.981 0.422993H118.609L132.035 35.8717ZM120.468 23.7733L115.976 10.8784L111.328 23.7733H120.468ZM164.721 35.8717H158.318L143.756 14.1146V35.8717H136.579V0.422993H142.982L157.543 22.1303V0.422993H164.721V35.8717ZM199.989 17.998C199.989 23.3252 200.402 28.5031 196.271 32.4861C193.844 34.8261 190.384 35.8717 186.563 35.8717H173.292V0.422993H186.563C190.384 0.422993 193.844 1.46853 196.271 3.80854C200.402 7.79154 199.989 12.6707 199.989 17.998ZM192.811 17.998C192.811 12.6209 192.604 10.3805 191.262 8.78729C190.023 7.34345 188.37 6.59664 185.892 6.59664H180.47V29.698H185.892C188.37 29.698 190.023 28.9512 191.262 27.5074C192.604 25.9142 192.811 23.375 192.811 17.998Z" fill="#F9FBFF"/>
</svg>
