<svg width="48" height="71" viewBox="0 0 48 71" fill="none" xmlns="http://www.w3.org/2000/svg">
<path d="M16.525 58.008C17.082 58.008 17.535 58.459 17.535 59.016C17.535 59.172 17.498 59.319 17.435 59.45L13.206 70.223C13.083 70.645 12.696 70.955 12.237 70.955C11.768 70.955 11.376 70.633 11.264 70.201L9.164 63.941L9.012 63.386L8.834 63.943L6.34 70.26C6.209 70.662 5.832 70.955 5.383 70.955C4.914 70.955 4.524 70.633 4.41 70.201L0.835999 59.567C0.784999 59.397 0.728999 59.2 0.728999 59.055C0.728999 58.518 1.151 58.078 1.682 58.051V58.047H4.069C4.503 58.049 4.87 58.328 5.008 58.717L5.012 58.727C5.018 58.743 5.024 58.76 5.028 58.778L6.503 63.481L6.65 64.034L6.839 63.487L8.007 60.547L7.693 59.567C7.64 59.397 7.585 59.2 7.585 59.055C7.585 58.518 8.007 58.078 8.536 58.051V58.047H10.923C11.357 58.049 11.726 58.328 11.864 58.717L11.868 58.727C11.874 58.743 11.878 58.76 11.884 58.778L13.357 63.477L13.506 64.034L13.69 63.479L15.588 58.659C15.73 58.279 16.095 58.008 16.525 58.008ZM34.295 58.008C33.865 58.008 33.5 58.279 33.356 58.658L31.458 63.478L31.274 64.033L31.128 63.476L29.653 58.777C29.647 58.759 29.643 58.742 29.637 58.726L29.633 58.716C29.494 58.327 29.125 58.048 28.69 58.046H26.305V58.05C25.774 58.077 25.352 58.517 25.352 59.054C25.352 59.199 25.409 59.396 25.461 59.566L25.777 60.546L24.607 63.486L24.417 64.033L24.271 63.48L22.796 58.777C22.79 58.759 22.786 58.742 22.78 58.726L22.776 58.716C22.637 58.327 22.27 58.048 21.835 58.046H19.45V58.05C18.919 58.077 18.497 58.517 18.497 59.054C18.497 59.199 18.552 59.396 18.604 59.566L22.178 70.201C22.289 70.633 22.682 70.955 23.151 70.955C23.598 70.955 23.979 70.662 24.108 70.26L26.605 63.944L26.783 63.387L26.933 63.942L29.033 70.202C29.146 70.634 29.539 70.956 30.008 70.956C30.467 70.956 30.856 70.645 30.977 70.224L35.206 59.451C35.268 59.32 35.304 59.174 35.304 59.017C35.303 58.459 34.852 58.008 34.295 58.008ZM45.842 58.026C45.832 58.026 37.508 58.028 37.508 58.028C37.029 58.028 36.639 58.417 36.639 58.897C36.639 58.897 36.639 58.897 36.639 58.899L36.637 58.901C36.637 58.901 36.637 59.764 36.637 61.008C36.637 64.016 36.637 69.967 36.637 69.967C36.637 69.977 36.637 69.959 36.637 69.967L36.639 69.969C36.66 70.467 37.073 70.867 37.577 70.867C39.067 70.867 39.934 70.867 39.934 70.867C40.442 70.861 40.848 70.449 40.856 69.941C40.856 70.023 40.856 64.767 40.856 64.767C40.856 64.767 44.243 64.765 44.252 64.763C44.748 64.753 45.15 64.349 45.15 63.849C45.15 63.345 44.74 62.935 44.236 62.935C44.226 62.935 40.857 62.931 40.857 62.931L40.855 59.982C40.855 59.982 45.869 59.982 45.88 59.98C46.403 59.959 46.82 59.531 46.82 59.003C46.821 58.465 46.383 58.026 45.842 58.026ZM32.914 22.762C34.435 24.455 34.592 29.508 38.404 27.496C40.691 26.289 40.662 21.191 37.615 19.351C35.138 17.886 33.785 19.853 32.888 22.275C32.821 22.463 32.815 22.653 32.914 22.762ZM26.992 21.944C27.078 21.872 27.168 21.721 27.168 21.626C27.154 18.88 25.713 16.288 22.867 17.595C18.789 19.767 19.016 24.45 21.379 25.657C24.318 26.881 25.408 23.264 26.992 21.944ZM30.924 31.174C32.5 31.014 32.149 29.557 30.955 29.197C29.889 28.875 28.279 28.664 27.133 28.689C25.107 28.734 25.162 30.281 26.213 30.543C27.002 30.807 27.526 30.91 28.212 31.805C28.84 33.014 28.557 31.436 30.924 31.174ZM38.358 5.06696C37.143 7.08296 37.399 8.25796 38.686 8.79696C39.526 9.15096 41.071 10.352 41.797 11.358C43.443 13.639 45.975 11.288 46.957 9.33996C47.687 7.89296 47.385 5.83796 45.502 4.05296C43.776 2.41196 40.334 1.77796 38.358 5.06696ZM46.223 19.576C49.11 29.08 44.119 46.367 40.139 48.99C36.262 51.539 30.786 52.248 32.518 45.152C35.145 32.752 25.846 35.746 29.682 48.462C29.996 49.931 32.887 52.509 27.684 53.191C18.684 53.839 16.266 46.863 12.844 39.185C12.67 38.663 12.366 38.781 12.366 39.038C12.135 43.345 16.354 46.782 10.134 46.782C6.72 46.518 4.304 45.835 1.464 37.11C0.231999 32.926 1.405 32.338 0.629999 29.149C-0.952001 22.577 -0.0730009 12.803 9.46 7.76396C10.368 7.23696 10.462 7.53396 10.214 7.74496C-0.793001 15.356 3.025 29.149 10.09 33.68C10.33 33.825 10.662 33.836 10.518 33.375C8.858 28.086 10.178 28.527 10.03 23.342C9.872 18.457 11.028 12.836 17.809 8.26596C15.389 5.32096 16.707 2.82096 18.592 1.27196C20.26 -0.10104 23.899 -1.23204 25.69 2.74696C27.068 5.80796 26.202 6.49096 24.602 7.09696C23.928 7.35296 22.692 8.10096 21.961 8.77296C20.551 10.07 20.065 9.94896 18.752 9.15796C12.078 17.566 14.488 27.984 22.063 29.863C22.836 30.056 23.45 30.476 23.85 31.543C25.69 35.223 27.159 31.807 29.735 33.539C33.307 35.117 32.723 31.98 34.68 31.971C42.344 31.934 45.934 25.508 45.76 19.512C45.754 19.026 46.045 18.992 46.223 19.576ZM31.067 34.611C31.084 34.496 30.971 34.523 30.928 34.523C29.645 34.529 27.754 34.304 25.763 33.845C25.714 33.833 25.593 33.806 25.591 33.902C25.728 36.11 30.205 36.885 31.067 34.611ZM9.439 48.356C8.517 48.356 7.773 49.1 7.773 50.02C7.773 50.94 8.517 51.686 9.439 51.686C10.357 51.686 11.105 50.94 11.105 50.02C11.105 49.1 10.357 48.356 9.439 48.356ZM11.433 50.02C11.433 51.12 10.538 52.012 9.439 52.012C8.337 52.012 7.445 51.119 7.445 50.02C7.445 48.918 8.338 48.026 9.439 48.026C10.539 48.026 11.433 48.918 11.433 50.02ZM10.299 50.324C10.217 50.754 9.893 51.021 9.494 51.021C8.908 51.021 8.531 50.582 8.531 50.015C8.531 49.439 8.89 49.015 9.478 49.015C9.892 49.015 10.234 49.253 10.294 49.695H10.005C9.952 49.459 9.753 49.303 9.482 49.303C9.076 49.303 8.859 49.608 8.859 50.01C8.859 50.399 9.101 50.735 9.494 50.735C9.767 50.735 9.967 50.569 10.006 50.325H10.299V50.324ZM44.504 53.113C43.582 53.113 42.838 53.857 42.838 54.777C42.838 55.699 43.582 56.443 44.504 56.443C45.422 56.443 46.17 55.699 46.17 54.777C46.17 53.858 45.422 53.113 44.504 53.113ZM46.496 54.778C46.496 55.879 45.604 56.77 44.504 56.77C43.4 56.77 42.51 55.879 42.51 54.778C42.51 53.674 43.401 52.786 44.504 52.786C45.604 52.785 46.496 53.674 46.496 54.778ZM44.158 55.723H43.873V53.84H44.59C45.035 53.84 45.254 54.004 45.254 54.375C45.254 54.713 45.043 54.859 44.766 54.895L45.303 55.723H44.983L44.487 54.909H44.159V55.723H44.158ZM44.5 54.666C44.74 54.666 44.957 54.649 44.957 54.357C44.957 54.127 44.744 54.082 44.547 54.082H44.158V54.666H44.5Z" fill="#F9FBFF"/>
</svg>
