<svg width="260" height="260" viewBox="0 0 260 260" fill="none" xmlns="http://www.w3.org/2000/svg">
<circle cx="130" cy="130" r="130" fill="#30ACB4"/>
<path d="M25.001 201L235.001 201" stroke="#181818" stroke-width="3" stroke-dasharray="40 40"/>
<path d="M186.642 189.038L159.775 135.305H106.043L83.0154 189.038H136.748L164.574 124.552H186.642C191.411 124.552 195.278 128.418 195.278 133.187C195.278 137.957 191.411 141.823 186.642 141.823C186.642 141.823 182.772 141.823 179.719 141.823" stroke="#181818" stroke-width="3" stroke-linecap="round" stroke-linejoin="round"/>
<path d="M134.829 187.12L92.1399 106.304" stroke="#181818" stroke-width="3" stroke-linecap="round" stroke-linejoin="round"/>
<path d="M83.0154 105H109.881" stroke="#181818" stroke-width="3" stroke-linecap="round" stroke-linejoin="round"/>
<path d="M209.134 211.566C194.542 226.158 172.911 227.602 160.792 215.483C148.673 203.365 150.118 181.733 164.709 167.141C179.301 152.55 200.932 151.106 213.051 163.224C225.17 175.343 223.726 196.974 209.134 211.566Z" stroke="#181818" stroke-width="3"/>
<path d="M202.65 205.082C212.945 194.787 214.147 179.299 205.336 170.487M168.055 207.767C159.244 198.956 160.446 183.467 170.741 173.172" stroke="#181818" stroke-width="3"/>
<path d="M98.8791 204.642C88.674 214.847 73.3202 216.039 64.5854 207.304M67.2475 173.01C77.4525 162.805 92.8063 161.613 101.541 170.348" stroke="#181818" stroke-width="3"/>
<path d="M105.506 211.566C90.9148 226.158 69.2834 227.602 57.1647 215.483C45.0459 203.365 46.4902 181.733 61.0819 167.141C75.6736 152.55 97.305 151.106 109.424 163.224C121.542 175.343 120.098 196.974 105.506 211.566Z" stroke="#181818" stroke-width="3"/>
<path d="M201.126 87.8353C195.723 76.7779 178.889 54.6631 154.772 54.6631C130.655 54.6631 144.723 76.7779 154.772 87.8353C149.153 81.0057 134.61 67.3466 121.384 67.3466C108.159 67.3466 115.874 81.0057 121.384 87.8353C118.251 84.5831 110.298 78.0787 103.556 78.0787C96.8136 78.0787 99.0179 84.5831 100.963 87.8353H201.126Z" stroke="#181818" stroke-width="3"/>
<path d="M180.401 64.1675C182.292 60.5143 186.106 58.0176 190.504 58.0176C196.782 58.0176 201.872 63.1072 201.872 69.3856C201.872 73.477 199.71 77.0636 196.467 79.0658" stroke="#181818" stroke-width="3"/>
<path d="M190.689 20V49.0722" stroke="#181818" stroke-width="3"/>
<path d="M147.826 44.5996L173.004 59.1357" stroke="#181818" stroke-width="3"/>
<path d="M208.187 79.4492L233.364 93.9853" stroke="#181818" stroke-width="3"/>
<path d="M210.816 69.5723L239.888 69.5723" stroke="#181818" stroke-width="3"/>
<path d="M208.187 59.3223L233.365 44.7861" stroke="#181818" stroke-width="3"/>
<path d="M200.567 51.7012L215.103 26.5239" stroke="#181818" stroke-width="3"/>
<path d="M165.716 26.709L180.252 51.8863" stroke="#181818" stroke-width="3"/>
<path d="M200.565 87.0703L215.102 112.248" stroke="#181818" stroke-width="3"/>
</svg>
