<svg width="260" height="260" viewBox="0 0 260 260" fill="none" xmlns="http://www.w3.org/2000/svg">
<circle cx="130" cy="130" r="130" fill="#30ACB4"/>
<path d="M129.592 52.0596H171.585C178.929 52.0596 183.906 59.5341 181.075 66.3099V66.3099C179.475 70.1374 175.733 72.6294 171.585 72.6294H97.0693C93.1523 72.6294 89.5754 74.8544 87.8438 78.3679V78.3679C84.4755 85.2027 89.4496 93.1993 97.0693 93.1993H138.13C145.594 93.1993 150.572 100.9 147.508 107.706V107.706C145.847 111.396 142.176 113.769 138.13 113.769H68.1486C62.4617 113.769 57.2874 117.057 54.8714 122.205L47.4265 138.069C44.3835 144.553 49.1153 152.001 56.278 152.001H73.0106" stroke="#181818" stroke-width="3"/>
<path d="M125.677 42.6113H117.339V60.8771H125.677C128.377 60.8771 130.566 58.6882 130.566 55.9882V47.5002C130.566 44.8002 128.377 42.6113 125.677 42.6113Z" stroke="#181818" stroke-width="3"/>
<path d="M107.261 48.2803H117.338" stroke="#181818" stroke-width="3"/>
<path d="M107.261 55.8379H117.338" stroke="#181818" stroke-width="3"/>
<path d="M116.366 123.656L108.883 151.863" stroke="#181818" stroke-width="3"/>
<path d="M114.727 211.18C105.986 220.55 93.1461 221.376 86.0222 213.739C78.8982 206.102 79.6683 192.338 88.4093 182.967C97.1502 173.597 109.99 172.772 117.114 180.408C124.238 188.045 123.468 201.81 114.727 211.18Z" stroke="#181818" stroke-width="3"/>
<path d="M201.349 211.373C192.608 220.743 179.767 221.568 172.644 213.931C165.52 206.295 166.29 192.53 175.031 183.16C183.772 173.79 196.612 172.964 203.736 180.601C210.86 188.238 210.089 202.002 201.349 211.373Z" stroke="#181818" stroke-width="3"/>
<path d="M194.984 204.094C190.509 208.891 184.086 209.183 180.613 205.46C177.14 201.737 177.412 194.851 181.887 190.054C186.363 185.256 192.786 184.964 196.259 188.687C199.732 192.411 199.46 199.296 194.984 204.094Z" stroke="#181818" stroke-width="3"/>
<path d="M108.504 204.094C104.028 208.891 97.6052 209.183 94.132 205.46C90.6589 201.737 90.9309 194.851 95.4065 190.054C99.8821 185.256 106.305 184.964 109.778 188.687C113.251 192.411 112.979 199.296 108.504 204.094Z" stroke="#181818" stroke-width="3"/>
<path d="M169.564 160.3H151.397" stroke="#181818" stroke-width="3" stroke-linecap="round"/>
<path d="M167.86 197.222H121.145M208.913 197.222H225.333V170.007C225.333 165.372 222.08 161.374 217.542 160.433L176.898 152H84.9061H70.7502L63.3891 197.222H80.9425" stroke="#181818" stroke-width="3"/>
<path d="M71.4645 151.022V151.022C73.7934 135.3 87.2883 123.656 103.182 123.656H155.358C158.936 123.656 162.229 125.611 163.942 128.752L176.232 151.287" stroke="#181818" stroke-width="3"/>
<path d="M69.9616 159.334H74.5482C76.0624 159.334 77.2123 160.697 76.9579 162.189L75.8462 168.711C75.4458 171.06 73.4099 172.778 71.0268 172.778H68.2779" stroke="#181818" stroke-width="3"/>
<path d="M225.945 167.89H221.056C219.706 167.89 218.611 168.984 218.611 170.334V178.89C218.611 180.24 219.706 181.334 221.056 181.334H225.945" stroke="#181818" stroke-width="3"/>
</svg>
