<svg width="260" height="260" viewBox="0 0 260 260" fill="none" xmlns="http://www.w3.org/2000/svg">
<circle cx="130" cy="130" r="130" fill="#30ACB4"/>
<path d="M116.556 106.434H97.1875C88.3509 106.434 81.1875 113.597 81.1875 122.434V212.465C81.1875 221.301 88.351 228.465 97.1875 228.465H166.021C174.857 228.465 182.021 221.301 182.021 212.465V122.434C182.021 113.597 174.857 106.434 166.021 106.434H149.861" stroke="#303030" stroke-width="3"/>
<path d="M117.501 114.455H96.6355C92.2172 114.455 88.6355 118.037 88.6355 122.455V213.018C88.6355 217.436 92.2172 221.018 96.6355 221.018H166.573C170.991 221.018 174.573 217.436 174.573 213.018V122.455C174.573 118.037 170.991 114.455 166.573 114.455H149.613" stroke="#303030" stroke-width="3"/>
<path fill-rule="evenodd" clip-rule="evenodd" d="M123.861 103.54C123.86 103.575 123.86 103.61 123.86 103.645H126.86C126.86 101.044 128.969 98.9355 131.57 98.9355H134.675C137.276 98.9355 139.384 101.044 139.384 103.645H142.384C142.384 103.61 142.384 103.575 142.384 103.54H142.868C146.281 103.54 149.047 106.306 149.047 109.719C149.047 113.131 146.281 115.897 142.868 115.897H123.376C119.964 115.897 117.197 113.131 117.197 109.719C117.197 106.306 119.964 103.54 123.376 103.54H123.861ZM124.511 100.54H123.376C118.307 100.54 114.197 104.649 114.197 109.719C114.197 114.788 118.307 118.897 123.376 118.897H142.868C147.938 118.897 152.047 114.788 152.047 109.719C152.047 104.649 147.938 100.54 142.868 100.54H141.733C140.539 97.8284 137.828 95.9355 134.675 95.9355H131.57C128.417 95.9355 125.706 97.8284 124.511 100.54Z" fill="#303030"/>
<path d="M128.74 109.871H137.906" stroke="#303030" stroke-width="3"/>
<path d="M118.413 136.808V141.945C118.413 144.154 116.622 145.945 114.413 145.945H104.138C101.929 145.945 100.138 144.154 100.138 141.945V131.671C100.138 129.462 101.929 127.671 104.138 127.671H112.321" stroke="#303030" stroke-width="3"/>
<path d="M105.553 134.777L109.276 138.5L123.151 124.625" stroke="#303030" stroke-width="3"/>
<path d="M130.257 130.039H139.394" stroke="#303030" stroke-width="3"/>
<path d="M130.595 138.838H160.375" stroke="#303030" stroke-width="3"/>
<path d="M118.413 167.942V173.079C118.413 175.288 116.622 177.079 114.413 177.079H104.138C101.929 177.079 100.138 175.288 100.138 173.079V162.805C100.138 160.596 101.929 158.805 104.138 158.805H112.321" stroke="#303030" stroke-width="3"/>
<path d="M105.553 165.911L109.276 169.634L123.151 155.759" stroke="#303030" stroke-width="3"/>
<path d="M130.595 161.174H160.375" stroke="#303030" stroke-width="3"/>
<path d="M130.595 169.972H156.314" stroke="#303030" stroke-width="3"/>
<path d="M118.413 199.076V204.213C118.413 206.422 116.622 208.213 114.413 208.213H104.138C101.929 208.213 100.138 206.422 100.138 204.213V193.938C100.138 191.729 101.929 189.938 104.138 189.938H112.321" stroke="#303030" stroke-width="3"/>
<path d="M105.553 197.045L109.276 200.767L123.151 186.893" stroke="#303030" stroke-width="3"/>
<path d="M129.918 192.308H160.375" stroke="#303030" stroke-width="3"/>
<path d="M130.595 201.105H146.162" stroke="#303030" stroke-width="3"/>
<path d="M156.975 56.3609C160.259 50.6976 166.387 46.8887 173.405 46.8887C183.887 46.8887 192.384 55.3857 192.384 65.8673C192.384 76.3489 183.887 84.8459 173.405 84.8459C171.179 84.8459 169.043 84.4627 167.059 83.7588" stroke="#303030" stroke-width="3"/>
<path d="M80.6145 148.83L51.3958 166.018V219.528" stroke="#303030" stroke-width="3"/>
<path d="M74.8855 169.455V180.913" stroke="#303030" stroke-width="3"/>
<path d="M69.1562 169.455V180.913" stroke="#303030" stroke-width="3"/>
<path d="M63.427 169.455V180.913" stroke="#303030" stroke-width="3"/>
<path d="M74.8855 185.497L74.8855 196.955" stroke="#303030" stroke-width="3"/>
<path d="M69.1562 185.497L69.1562 196.955" stroke="#303030" stroke-width="3"/>
<path d="M63.427 185.497L63.427 196.955" stroke="#303030" stroke-width="3"/>
<path d="M210.094 168.099V155.056L196.057 147.417L182.021 155.056V190.157" stroke="#303030" stroke-width="3"/>
<path d="M36.5 206.695V151.134L50.7097 138.518L63.1699 151.134V158.417" stroke="#303030" stroke-width="3"/>
<circle cx="210.094" cy="186.146" r="18.3333" stroke="#303030" stroke-width="3"/>
<path d="M202.646 189.54L209.521 195.844M209.521 186.146V219.375" stroke="#303030" stroke-width="3"/>
<path d="M36.5864 160.556H45.142" stroke="#303030" stroke-width="3"/>
<path d="M36.5864 170.944H45.142" stroke="#303030" stroke-width="3"/>
<path d="M36.5864 182.556H45.142" stroke="#303030" stroke-width="3"/>
<path d="M36.5864 192.944H45.142" stroke="#303030" stroke-width="3"/>
<path d="M94.031 106.472L112.803 64.4087L122.873 80.2936L133.551 59.9053M133.551 59.9053L149.032 31L156.975 56.3611M133.551 59.9053L145.67 74.3889L156.975 56.3611M156.975 56.3611L175.5 109.5" stroke="#303030" stroke-width="3"/>
<path d="M79.9753 148.027C75.392 147.111 68.9753 141.46 68.9753 125.955C68.9753 110.45 74.7532 90.2773 81.8805 90.2773C86.0978 90.2773 89.8426 97.3402 92.1976 106.32" stroke="#303030" stroke-width="3"/>
</svg>
