<svg width="260" height="260" viewBox="0 0 260 260" fill="none" xmlns="http://www.w3.org/2000/svg">
<circle cx="130" cy="130" r="130" fill="#30ACB4"/>
<path d="M46.8887 94.5918H62.6671C65.9617 94.5918 68.9193 96.6115 70.1184 99.6801L99.739 175.483C100.88 178.403 100.21 181.721 98.0259 183.969L90.3171 191.905C85.3898 196.977 88.9839 205.479 96.0554 205.479H178.658" stroke="#181818" stroke-width="3" stroke-linecap="round"/>
<path d="M78.9309 121.594H179.55C184.406 121.594 188.142 125.885 187.474 130.694L182.425 167.047C181.907 170.776 178.859 173.64 175.104 173.923L100.532 179.558" stroke="#181818" stroke-width="3"/>
<path d="M91.8916 121.594V155.436" stroke="#181818" stroke-width="3"/>
<path d="M107.733 121.594V179.198" stroke="#181818" stroke-width="3"/>
<path d="M123.574 121.594V179.198" stroke="#181818" stroke-width="3"/>
<path d="M139.415 121.594V176.317" stroke="#181818" stroke-width="3"/>
<path d="M155.256 121.594V176.317" stroke="#181818" stroke-width="3"/>
<path d="M171.097 121.594V174.877" stroke="#181818" stroke-width="3"/>
<circle cx="95.4919" cy="220.24" r="8.64058" stroke="#181818" stroke-width="3" stroke-linecap="round"/>
<circle cx="168.217" cy="220.24" r="8.64058" stroke="#181818" stroke-width="3" stroke-linecap="round"/>
<path d="M108.093 121.954V105.393H123.934V121.954" stroke="#181818" stroke-width="3"/>
<path d="M154.896 107.912V85.2305H178.658V121.953" stroke="#181818" stroke-width="3"/>
<path d="M110.253 105.392V85.2311C110.253 82.0497 112.832 79.4707 116.013 79.4707V79.4707C119.195 79.4707 121.774 82.0497 121.774 85.2311V105.392" stroke="#181818" stroke-width="3"/>
<path d="M93.3316 122.62C89.469 118.758 89.469 112.495 93.3316 108.633C97.1942 104.77 103.457 104.77 107.319 108.633" stroke="#181818" stroke-width="3"/>
<path d="M130.414 120.873C132.142 104.744 145.295 92.7916 151.656 88.8313L147.335 81.9909C146.073 82.9327 144.873 83.9096 143.735 84.9143M143.735 84.9143C129.559 97.428 124.849 114.262 124.294 121.594C124.294 102.296 135.095 86.1912 140.495 80.5508L143.735 84.9143Z" stroke="#181818" stroke-width="3"/>
<path d="M132.574 121.953L154.896 99.6318V121.953" stroke="#181818" stroke-width="3"/>
<path d="M155.256 115.113L170.737 99.6318V121.953" stroke="#181818" stroke-width="3"/>
<path d="M114.953 94.9324C115.538 95.5182 116.488 95.5182 117.074 94.9324C117.66 94.3466 117.66 93.3968 117.074 92.8111L114.953 94.9324ZM109.192 89.172L114.953 94.9324L117.074 92.8111L111.314 87.0507L109.192 89.172Z" fill="#181818"/>
<path d="M114.953 102.133C115.538 102.718 116.488 102.718 117.074 102.133C117.66 101.547 117.66 100.597 117.074 100.011L114.953 102.133ZM109.192 96.3722L114.953 102.133L117.074 100.011L111.314 94.2509L109.192 96.3722Z" fill="#181818"/>
<path d="M178.097 102.666L182.723 99.7349L186.218 103.952L189.713 99.7349L194.34 102.666L196.36 97.5751L201.666 98.9328L202.014 93.4669L207.48 93.1185L206.123 87.8124L211.213 85.7919L208.283 81.1651L212.5 77.6704L208.283 74.1758L211.213 69.5489L206.123 67.5285L207.48 62.2224L202.014 61.874L201.666 56.408L196.36 57.7658L194.34 52.675L189.713 55.606L186.218 51.3887L182.723 55.606L178.097 52.675L176.076 57.7658L170.77 56.408L170.422 61.874L164.956 62.2224L166.313 67.5285L161.223 69.5489L164.154 74.1758L159.936 77.6704L164.154 81.1651L161.223 85.7919" stroke="#181818" stroke-width="3"/>
</svg>
